<?xml version="1.0" standalone="no"?><!DOCTYPE svg PUBLIC "-//W3C//DTD SVG 1.1//EN" "http://www.w3.org/Graphics/SVG/1.1/DTD/svg11.dtd"><svg height="1024" node-id="1" sillyvg="true" template-height="1024" template-width="1024" version="1.1" viewBox="0 0 1024 1024" width="1024" xmlns="http://www.w3.org/2000/svg" xmlns:xlink="http://www.w3.org/1999/xlink"><defs node-id="32"><linearGradient gradientUnits="objectBoundingBox" id="SVGID_1_" node-id="5" spreadMethod="pad" x1="121.1372" x2="885.8723" y1="353.3358" y2="353.3358"><stop offset="0.005154639" stop-color="#c1b7fe"></stop><stop offset="1" stop-color="#7d6ff8"></stop></linearGradient><linearGradient gradientUnits="objectBoundingBox" id="SVGID_2_" node-id="9" spreadMethod="pad" x1="137.8709" x2="543.7557" y1="753.2777" y2="460.1387"><stop offset="0.005154639" stop-color="#6052e9"></stop><stop offset="1" stop-color="#8071fe"></stop></linearGradient><linearGradient gradientUnits="objectBoundingBox" id="SVGID_3_" node-id="15" spreadMethod="pad" x1="503.5047" x2="885.8723" y1="627.3018" y2="627.3018"><stop offset="0.005154639" stop-color="#6052e9"></stop><stop offset="1" stop-color="#8071fe"></stop></linearGradient></defs><path d="M 503.50 178.30 L 121.10 342.10 L 503.50 528.40 L 885.90 342.10 Z" fill="url(#SVGID_1_)" fill-rule="nonzero" node-id="55" stroke="none" target-height="350.10004" target-width="764.80005" target-x="121.1" target-y="178.3"></path><path d="M 503.50 528.40 L 503.50 912.50 L 121.10 726.20 L 121.10 342.10 L 349.70 453.40 Z" fill="url(#SVGID_2_)" fill-rule="nonzero" node-id="57" stroke="none" target-height="570.4" target-width="382.4" target-x="121.1" target-y="342.1"></path><g node-id="104"><path d="M 349.70 453.40 L 349.70 837.50 L 256.10 792.00 L 256.10 407.80 Z" fill="#c2bdfc" fill-opacity="0.5" fill-rule="nonzero" group-id="1" node-id="61" stroke="none" target-height="429.7" target-width="93.600006" target-x="256.1" target-y="407.8"></path></g><g node-id="105"><path d="M 372.10 462.60 L 372.10 846.70 L 278.60 801.20 L 278.60 417.10 Z" fill="#c2bdfc" fill-opacity="0.5" fill-rule="nonzero" group-id="2" node-id="66" stroke="none" target-height="429.6" target-width="93.5" target-x="278.6" target-y="417.1"></path></g><path d="M 885.90 342.10 L 885.90 726.20 L 503.50 912.50 L 503.50 528.40 Z" fill="url(#SVGID_3_)" fill-rule="nonzero" node-id="69" stroke="none" target-height="570.4" target-width="382.40002" target-x="503.5" target-y="342.1"></path><path d="M 852.10 608.60 L 852.10 630.30 L 795.90 657.70 L 795.90 636.00 Z" fill="#c2bdfc" fill-rule="nonzero" node-id="71" stroke="none" target-height="49.100037" target-width="56.19995" target-x="795.9" target-y="608.6"></path><g node-id="106"><path d="M 256.10 407.80 L 636.30 235.20 L 728.80 274.80 L 349.70 453.40 Z" fill="#c2bdfc" fill-opacity="0.5" fill-rule="nonzero" group-id="3" node-id="75" stroke="none" target-height="218.2" target-width="472.69998" target-x="256.1" target-y="235.2"></path></g><g node-id="107"><path d="M 278.60 417.10 L 658.80 244.40 L 751.30 284.00 L 372.10 462.60 Z" fill="#c2bdfc" fill-opacity="0.5" fill-rule="nonzero" group-id="4" node-id="80" stroke="none" target-height="218.20001" target-width="472.69998" target-x="278.6" target-y="244.4"></path></g><g node-id="108"><path d="M 638.50 362.60 L 711.40 327.50 L 762.60 349.00 L 690.00 385.90 Z" fill="#c2bdfc" fill-opacity="0.5" fill-rule="nonzero" group-id="5" node-id="85" stroke="none" target-height="58.399994" target-width="124.099976" target-x="638.5" target-y="327.5"></path></g><g node-id="109"><path d="M 601.20 581.60 L 604.40 579.60 L 605.90 579.30 L 607.60 579.60 L 609.20 581.50 L 603.60 585.90 L 599.40 588.60 L 594.50 591.20 L 589.90 593.10 L 586.40 594.10 L 584.20 594.40 L 582.40 594.30 L 581.00 593.80 L 579.80 593.00 L 578.90 591.80 L 578.30 590.10 L 578.10 586.00 L 579.30 579.10 L 580.80 575.10 L 582.80 571.30 L 585.20 567.80 L 588.10 564.50 L 591.40 561.50 L 595.10 558.90 L 599.10 556.70 L 603.30 555.00 L 606.40 554.20 L 608.40 554.10 L 609.90 554.30 L 611.90 555.70 L 613.20 558.30 L 613.40 560.80 L 612.90 565.30 L 612.40 566.80 L 610.70 569.20 L 588.10 580.30 L 588.00 583.60 L 588.50 584.80 L 589.20 585.60 L 590.30 586.00 L 593.70 585.30 L 601.20 581.60 Z M 590.30 571.20 L 589.30 574.50 L 604.00 567.30 L 604.20 564.80 L 603.90 563.20 L 603.20 562.30 L 601.40 561.80 L 600.00 562.10 L 596.20 563.90 L 594.70 565.10 L 592.20 567.90 L 590.30 571.20 Z" fill="#c2bdfc" fill-rule="nonzero" group-id="6" node-id="90" stroke="none" target-height="40.30005" target-width="35.30005" target-x="578.1" target-y="554.1"></path><path d="M 642.00 538.80 L 644.00 536.10 L 646.30 534.00 L 653.40 530.20 L 640.70 552.20 L 648.60 565.10 L 641.70 568.40 L 640.00 568.90 L 638.90 568.80 L 638.00 568.10 L 633.40 560.20 L 624.60 575.50 L 623.40 577.00 L 621.90 578.10 L 614.60 581.70 L 628.40 558.40 L 620.30 546.50 L 626.10 543.70 L 627.90 543.10 L 629.20 543.00 L 630.40 543.30 L 631.30 544.10 L 635.70 550.40 L 642.00 538.80 Z" fill="#c2bdfc" fill-rule="nonzero" group-id="6" node-id="92" stroke="none" target-height="51.5" target-width="38.80005" target-x="614.6" target-y="530.2"></path><path d="M 694.60 519.90 L 694.40 526.20 L 693.50 530.30 L 692.20 534.20 L 690.50 537.90 L 688.30 541.30 L 685.80 544.40 L 682.90 547.20 L 679.60 549.70 L 676.10 551.70 L 673.30 552.80 L 670.90 553.20 L 668.70 553.00 L 666.60 552.30 L 663.30 572.00 L 661.20 574.50 L 653.30 578.50 L 660.80 530.30 L 661.30 528.70 L 662.50 526.90 L 664.00 525.40 L 665.60 524.30 L 670.90 521.70 L 670.00 526.70 L 675.80 520.60 L 679.10 518.00 L 682.70 515.90 L 687.50 514.20 L 690.70 514.30 L 692.00 514.80 L 693.70 516.70 L 694.60 519.90 Z M 683.90 531.80 L 684.20 528.10 L 683.60 525.40 L 682.90 524.60 L 681.80 524.20 L 680.50 524.30 L 678.60 524.90 L 676.60 526.10 L 674.50 527.90 L 669.60 533.90 L 667.90 544.20 L 669.70 545.30 L 672.50 546.00 L 675.10 545.20 L 677.00 544.10 L 680.00 541.10 L 682.20 537.50 L 683.00 535.50 L 683.90 531.80 Z" fill="#c2bdfc" fill-rule="nonzero" group-id="6" node-id="94" stroke="none" target-height="64.29999" target-width="41.299988" target-x="653.3" target-y="514.2"></path><path d="M 725.40 495.40 L 730.40 494.20 L 726.30 503.20 L 724.30 503.60 L 720.70 505.50 L 718.90 507.20 L 714.30 513.40 L 711.90 528.70 L 710.60 532.10 L 707.80 535.50 L 706.10 536.80 L 701.00 539.40 L 705.70 509.40 L 706.30 507.70 L 707.50 505.80 L 709.10 504.20 L 714.80 501.10 L 714.00 506.10 L 717.10 501.90 L 719.80 499.00 L 722.20 497.00 L 725.40 495.40 Z" fill="#c2bdfc" fill-rule="nonzero" group-id="6" node-id="96" stroke="none" target-height="45.200012" target-width="29.400024" target-x="701" target-y="494.2"></path><path d="M 753.70 507.40 L 756.90 505.50 L 758.40 505.10 L 760.10 505.40 L 761.70 507.30 L 756.10 511.70 L 751.90 514.40 L 747.00 517.00 L 742.40 518.90 L 739.00 519.90 L 736.80 520.20 L 735.00 520.10 L 733.60 519.60 L 732.40 518.80 L 731.50 517.60 L 730.90 515.90 L 730.70 511.80 L 731.90 504.90 L 733.40 500.90 L 735.40 497.10 L 737.80 493.60 L 740.70 490.30 L 744.00 487.30 L 747.70 484.70 L 754.70 481.20 L 757.10 480.40 L 761.00 479.90 L 762.50 480.20 L 764.60 481.50 L 765.80 484.10 L 766.00 486.60 L 765.50 491.10 L 765.00 492.60 L 763.30 495.00 L 740.90 506.00 L 740.80 509.30 L 741.30 510.50 L 742.00 511.30 L 743.10 511.70 L 746.50 511.00 L 749.00 510.00 L 753.70 507.40 Z M 742.80 497.10 L 741.80 500.40 L 756.50 493.20 L 756.70 490.70 L 756.40 489.10 L 755.70 488.20 L 753.90 487.70 L 752.50 488.00 L 750.50 488.80 L 747.10 491.00 L 744.60 493.80 L 742.80 497.10 Z" fill="#c2bdfc" fill-rule="nonzero" group-id="6" node-id="98" stroke="none" target-height="40.30002" target-width="35.299988" target-x="730.7" target-y="479.9"></path><path d="M 794.10 478.00 L 795.70 479.80 L 796.00 481.10 L 795.80 483.20 L 795.10 485.90 L 793.90 488.60 L 790.30 493.50 L 785.40 497.80 L 779.80 501.10 L 773.40 503.40 L 770.30 503.50 L 769.50 503.00 L 770.40 500.90 L 771.50 499.00 L 773.10 497.10 L 775.10 495.60 L 780.80 493.40 L 782.90 492.20 L 785.00 490.20 L 785.90 488.00 L 785.70 487.10 L 784.50 486.70 L 777.10 487.00 L 775.80 486.80 L 774.70 486.30 L 773.80 485.50 L 773.20 484.40 L 773.00 481.00 L 773.70 478.60 L 776.40 473.90 L 778.30 471.70 L 782.70 467.80 L 788.00 464.70 L 792.90 463.00 L 797.30 462.70 L 795.90 466.00 L 793.90 468.80 L 791.40 470.50 L 787.20 471.80 L 785.40 472.90 L 784.30 473.80 L 783.10 476.10 L 783.30 477.10 L 784.50 477.50 L 792.10 477.10 L 794.10 478.00 Z" fill="#c2bdfc" fill-rule="nonzero" group-id="6" node-id="100" stroke="none" target-height="40.799988" target-width="27.799988" target-x="769.5" target-y="462.7"></path><path d="M 825.30 462.90 L 826.90 464.70 L 827.20 466.00 L 827.00 468.10 L 826.30 470.80 L 825.10 473.50 L 821.50 478.40 L 816.60 482.70 L 811.00 486.00 L 804.60 488.30 L 801.60 488.40 L 800.80 487.90 L 802.80 483.80 L 804.30 482.00 L 806.30 480.50 L 812.00 478.30 L 814.10 477.10 L 815.70 475.70 L 816.60 474.40 L 817.10 472.90 L 816.90 472.00 L 815.70 471.60 L 808.30 471.90 L 807.00 471.70 L 805.90 471.20 L 805.00 470.40 L 804.40 469.30 L 804.10 468.00 L 804.20 465.90 L 804.90 463.50 L 807.60 458.80 L 809.40 456.60 L 813.90 452.70 L 819.10 449.60 L 824.00 447.90 L 828.40 447.60 L 827.00 450.90 L 825.00 453.70 L 822.50 455.40 L 818.30 456.70 L 816.50 457.80 L 815.40 458.70 L 814.10 461.00 L 814.30 462.00 L 815.50 462.40 L 823.10 462.00 L 825.30 462.90 Z" fill="#c2bdfc" fill-rule="nonzero" group-id="6" node-id="102" stroke="none" target-height="40.799988" target-width="27.600037" target-x="800.8" target-y="447.6"></path></g></svg>