<?xml version="1.0" standalone="no"?><!DOCTYPE svg PUBLIC "-//W3C//DTD SVG 1.1//EN" "http://www.w3.org/Graphics/SVG/1.1/DTD/svg11.dtd"><svg height="1024" node-id="1" sillyvg="true" template-height="1024" template-width="1024" version="1.1" viewBox="0 0 1024 1024" width="1024" xmlns="http://www.w3.org/2000/svg" xmlns:xlink="http://www.w3.org/1999/xlink"><defs node-id="132"><linearGradient gradientUnits="objectBoundingBox" id="SVGID_1_" node-id="6" spreadMethod="pad" x1="122.4127" x2="892.5778" y1="301.4021" y2="301.4021"><stop offset="0.005154639" stop-color="#c1b7fe"></stop><stop offset="1" stop-color="#7d6ff8"></stop></linearGradient><linearGradient gradientUnits="objectBoundingBox" id="SVGID_2_" node-id="10" spreadMethod="pad" x1="718.4998" x2="629.6088" y1="241.513" y2="434.89"><stop offset="0.005154639" stop-color="#c5bafe"></stop><stop offset="1" stop-color="#7d6ff8"></stop></linearGradient><linearGradient gradientUnits="objectBoundingBox" id="SVGID_3_" node-id="14" spreadMethod="pad" x1="152.3942" x2="500.9582" y1="394.8518" y2="379.8598"><stop offset="0" stop-color="#7d6ff8"></stop><stop offset="0.9948" stop-color="#c5bafe"></stop></linearGradient><linearGradient gradientUnits="objectBoundingBox" id="SVGID_4_" node-id="20" spreadMethod="pad" x1="280.9761" x2="700.0365" y1="517.3864" y2="517.3864"><stop offset="0.005154639" stop-color="#f9ffff"></stop><stop offset="1" stop-color="#b5caff"></stop></linearGradient><linearGradient gradientUnits="objectBoundingBox" id="SVGID_5_" node-id="24" spreadMethod="pad" x1="674.2637" x2="338.3929" y1="507.5593" y2="435.3627"><stop offset="0.005154639" stop-color="#f9ffff"></stop><stop offset="1" stop-color="#b5caff"></stop></linearGradient><linearGradient gradientUnits="objectBoundingBox" id="SVGID_6_" node-id="28" spreadMethod="pad" x1="664.9783" x2="316.0343" y1="505.5633" y2="430.5567"><stop offset="0.005154639" stop-color="#f9ffff"></stop><stop offset="1" stop-color="#b5caff"></stop></linearGradient><linearGradient gradientUnits="objectBoundingBox" id="SVGID_7_" node-id="33" spreadMethod="pad" x1="425.8376" x2="575.451" y1="461.6667" y2="461.6667"><stop offset="0.005154639" stop-color="#f9ffff"></stop><stop offset="1" stop-color="#b5caff"></stop></linearGradient><linearGradient gradientUnits="objectBoundingBox" id="SVGID_8_" node-id="38" spreadMethod="pad" x1="326.2799" x2="745.3403" y1="428.5989" y2="428.5989"><stop offset="0.005154639" stop-color="#f9ffff"></stop><stop offset="1" stop-color="#b5caff"></stop></linearGradient><linearGradient gradientUnits="objectBoundingBox" id="SVGID_9_" node-id="42" spreadMethod="pad" x1="719.5675" x2="383.6967" y1="418.7719" y2="346.5753"><stop offset="0.005154639" stop-color="#f9ffff"></stop><stop offset="1" stop-color="#b5caff"></stop></linearGradient><linearGradient gradientUnits="objectBoundingBox" id="SVGID_10_" node-id="46" spreadMethod="pad" x1="710.2821" x2="361.3381" y1="416.7759" y2="341.7693"><stop offset="0.005154639" stop-color="#f9ffff"></stop><stop offset="1" stop-color="#b5caff"></stop></linearGradient><linearGradient gradientUnits="objectBoundingBox" id="SVGID_11_" node-id="51" spreadMethod="pad" x1="471.1414" x2="620.7548" y1="372.8793" y2="372.8793"><stop offset="0.005154639" stop-color="#f9ffff"></stop><stop offset="1" stop-color="#b5caff"></stop></linearGradient><linearGradient gradientUnits="objectBoundingBox" id="SVGID_12_" node-id="56" spreadMethod="pad" x1="190.3684" x2="609.4288" y1="349.6768" y2="349.6768"><stop offset="0.005154639" stop-color="#f9ffff"></stop><stop offset="1" stop-color="#b5caff"></stop></linearGradient><linearGradient gradientUnits="objectBoundingBox" id="SVGID_13_" node-id="60" spreadMethod="pad" x1="583.656" x2="247.7853" y1="339.8497" y2="267.6532"><stop offset="0.005154639" stop-color="#f9ffff"></stop><stop offset="1" stop-color="#b5caff"></stop></linearGradient><linearGradient gradientUnits="objectBoundingBox" id="SVGID_14_" node-id="64" spreadMethod="pad" x1="574.3707" x2="225.4266" y1="337.8538" y2="262.8471"><stop offset="0.005154639" stop-color="#f9ffff"></stop><stop offset="1" stop-color="#b5caff"></stop></linearGradient><linearGradient gradientUnits="objectBoundingBox" id="SVGID_15_" node-id="69" spreadMethod="pad" x1="335.23" x2="484.8433" y1="293.9571" y2="293.9571"><stop offset="0.005154639" stop-color="#f9ffff"></stop><stop offset="1" stop-color="#b5caff"></stop></linearGradient><linearGradient gradientUnits="objectBoundingBox" id="SVGID_16_" node-id="74" spreadMethod="pad" x1="394.2357" x2="813.296" y1="320.081" y2="320.081"><stop offset="0.005154639" stop-color="#f9ffff"></stop><stop offset="1" stop-color="#b5caff"></stop></linearGradient><linearGradient gradientUnits="objectBoundingBox" id="SVGID_17_" node-id="78" spreadMethod="pad" x1="787.5233" x2="451.6525" y1="310.2539" y2="238.0574"><stop offset="0.005154639" stop-color="#f9ffff"></stop><stop offset="1" stop-color="#b5caff"></stop></linearGradient><linearGradient gradientUnits="objectBoundingBox" id="SVGID_18_" node-id="82" spreadMethod="pad" x1="778.2379" x2="429.2938" y1="308.258" y2="233.2513"><stop offset="0.005154639" stop-color="#f9ffff"></stop><stop offset="1" stop-color="#b5caff"></stop></linearGradient><linearGradient gradientUnits="objectBoundingBox" id="SVGID_19_" node-id="87" spreadMethod="pad" x1="539.0972" x2="688.7105" y1="264.3613" y2="264.3613"><stop offset="0.005154639" stop-color="#f9ffff"></stop><stop offset="1" stop-color="#b5caff"></stop></linearGradient><linearGradient gradientUnits="objectBoundingBox" id="SVGID_20_" node-id="92" spreadMethod="pad" x1="122.4127" x2="892.5778" y1="613.2603" y2="613.2603"><stop offset="0.005154639" stop-color="#c1b7fe"></stop><stop offset="1" stop-color="#7d6ff8"></stop></linearGradient><linearGradient gradientUnits="objectBoundingBox" id="SVGID_21_" node-id="96" spreadMethod="pad" x1="195.8841" x2="472.9184" y1="839.2292" y2="639.1489"><stop offset="0.005154639" stop-color="#6052e9"></stop><stop offset="1" stop-color="#8071fe"></stop></linearGradient><linearGradient gradientUnits="objectBoundingBox" id="SVGID_22_" node-id="100" spreadMethod="pad" x1="507.4952" x2="892.5778" y1="753.2343" y2="753.2343"><stop offset="0.005154639" stop-color="#6052e9"></stop><stop offset="1" stop-color="#8071fe"></stop></linearGradient><linearGradient gradientUnits="objectBoundingBox" id="SVGID_23_" node-id="109" spreadMethod="pad" x1="122.4127" x2="892.5778" y1="468.7192" y2="468.7192"><stop offset="0.005154639" stop-color="#c1b7fe"></stop><stop offset="1" stop-color="#7d6ff8"></stop></linearGradient><linearGradient gradientUnits="objectBoundingBox" id="SVGID_24_" node-id="115" spreadMethod="pad" x1="180.4825" x2="493.351" y1="668.4504" y2="442.4898"><stop offset="0.005154639" stop-color="#c5bafe"></stop><stop offset="1" stop-color="#7d6ff8"></stop></linearGradient><linearGradient gradientUnits="objectBoundingBox" id="SVGID_25_" node-id="119" spreadMethod="pad" x1="567.705" x2="897.9959" y1="557.015" y2="318.4715"><stop offset="0.005154639" stop-color="#c5bafe"></stop><stop offset="1" stop-color="#7d6ff8"></stop></linearGradient><linearGradient gradientUnits="objectBoundingBox" id="SVGID_26_" node-id="123" spreadMethod="pad" x1="507.4952" x2="892.5778" y1="571.3321" y2="571.3321"><stop offset="0.005154639" stop-color="#c5bafe"></stop><stop offset="1" stop-color="#7d6ff8"></stop></linearGradient><linearGradient gradientUnits="objectBoundingBox" id="SVGID_27_" node-id="127" spreadMethod="pad" x1="145.0646" x2="466.1566" y1="454.6198" y2="454.6198"><stop offset="0.005154639" stop-color="#c5bafe"></stop><stop offset="1" stop-color="#7d6ff8"></stop></linearGradient></defs><g node-id="400"><path d="M 507.50 223.00 L 122.40 379.20 L 145.10 379.90 L 507.50 232.80 L 869.90 379.90 L 892.60 379.20 Z" fill="url(#SVGID_1_)" fill-rule="nonzero" group-id="1" node-id="301" stroke="none" target-height="156.9" target-width="770.19995" target-x="122.4" target-y="223"></path><path d="M 869.90 379.90 L 549.40 527.90 L 507.50 511.40 L 507.50 232.80 Z" fill="url(#SVGID_2_)" fill-rule="nonzero" group-id="1" node-id="303" stroke="none" target-height="295.10004" target-width="362.40002" target-x="507.5" target-y="232.8"></path><path d="M 507.50 232.80 L 507.50 511.40 L 466.20 528.20 L 145.10 379.90 Z" fill="url(#SVGID_3_)" fill-rule="nonzero" group-id="1" node-id="305" stroke="none" target-height="295.40002" target-width="362.4" target-x="145.1" target-y="232.8"></path></g><g node-id="401"><g node-id="403"><path d="M 681.60 473.00 L 676.50 467.60 L 670.80 462.20 L 664.40 457.00 L 657.30 451.80 L 650.10 447.10 L 642.20 442.60 L 633.80 438.30 L 624.70 434.10 L 606.00 426.90 L 595.80 423.60 L 574.50 418.00 L 551.90 413.60 L 528.10 410.60 L 515.90 409.70 L 490.50 408.90 L 465.10 409.70 L 441.10 411.90 L 417.60 415.60 L 395.90 420.60 L 385.20 423.60 L 375.00 426.90 L 356.30 434.10 L 347.20 438.30 L 338.80 442.60 L 330.90 447.10 L 323.70 451.80 L 316.60 457.00 L 310.20 462.20 L 304.50 467.60 L 299.40 473.00 L 281.00 473.00 L 281.00 522.30 L 281.50 522.30 L 282.30 528.00 L 283.60 533.60 L 285.50 539.10 L 287.90 544.50 L 290.90 550.00 L 294.30 555.10 L 298.10 560.10 L 302.50 565.00 L 307.40 569.90 L 312.90 574.80 L 320.00 580.20 L 327.70 585.60 L 336.30 590.70 L 345.70 595.70 L 355.10 600.10 L 365.20 604.30 L 376.00 608.20 L 387.40 611.80 L 398.80 615.00 L 410.80 617.70 L 423.30 620.20 L 436.30 622.20 L 449.30 623.80 L 462.60 624.90 L 476.30 625.60 L 490.50 625.90 L 504.70 625.60 L 518.40 624.90 L 531.70 623.80 L 544.70 622.20 L 557.70 620.20 L 570.20 617.70 L 582.20 615.00 L 593.60 611.80 L 605.00 608.20 L 615.80 604.30 L 625.90 600.10 L 635.30 595.70 L 644.70 590.70 L 653.30 585.60 L 661.00 580.20 L 668.10 574.80 L 673.60 569.90 L 678.50 565.00 L 682.90 560.10 L 686.70 555.10 L 690.10 550.00 L 693.10 544.50 L 695.50 539.10 L 697.40 533.60 L 698.70 528.00 L 699.50 522.30 L 700.00 522.30 L 700.00 473.00 L 681.60 473.00 Z" fill="url(#SVGID_4_)" fill-rule="nonzero" group-id="2,4" node-id="312" stroke="none" target-height="217.00003" target-width="419" target-x="281" target-y="408.9"></path><path d="M 700.00 468.10 L 699.70 474.00 L 698.80 479.90 L 697.30 485.60 L 695.20 491.30 L 692.50 496.90 L 689.40 502.20 L 685.80 507.50 L 681.60 512.70 L 676.80 517.80 L 671.40 522.90 L 664.40 528.60 L 656.70 534.20 L 648.10 539.60 L 638.60 544.80 L 629.10 549.50 L 618.90 553.90 L 607.90 558.00 L 596.20 561.80 L 584.60 565.10 L 572.40 568.00 L 559.60 570.60 L 546.20 572.70 L 532.90 574.40 L 519.20 575.60 L 505.10 576.30 L 490.50 576.60 L 475.90 576.30 L 461.80 575.60 L 448.10 574.40 L 434.80 572.70 L 421.40 570.60 L 408.60 568.00 L 396.40 565.10 L 384.80 561.80 L 373.10 558.00 L 362.10 553.90 L 351.90 549.50 L 342.40 544.80 L 332.90 539.60 L 324.30 534.20 L 316.60 528.60 L 309.60 522.90 L 304.20 517.80 L 299.40 512.70 L 295.20 507.50 L 291.60 502.20 L 288.50 496.90 L 285.80 491.30 L 283.70 485.60 L 282.20 479.90 L 281.30 474.00 L 281.00 468.10 L 281.30 462.20 L 282.20 456.30 L 283.70 450.60 L 285.80 444.90 L 288.50 439.30 L 291.60 434.00 L 295.20 428.70 L 299.40 423.50 L 304.20 418.40 L 309.60 413.30 L 316.60 407.60 L 324.30 402.00 L 332.90 396.60 L 342.40 391.40 L 351.90 386.70 L 362.10 382.30 L 373.10 378.20 L 384.80 374.40 L 396.40 371.10 L 408.60 368.20 L 421.40 365.60 L 434.80 363.50 L 448.10 361.80 L 461.80 360.60 L 475.90 359.90 L 490.50 359.60 L 505.10 359.90 L 519.20 360.60 L 532.90 361.80 L 546.20 363.50 L 559.60 365.60 L 572.40 368.20 L 584.60 371.10 L 596.20 374.40 L 607.90 378.20 L 618.90 382.30 L 629.10 386.70 L 638.60 391.40 L 648.10 396.60 L 656.70 402.00 L 664.40 407.60 L 671.40 413.30 L 676.80 418.40 L 681.60 423.50 L 685.80 428.70 L 689.40 434.00 L 692.50 439.30 L 695.20 444.90 L 697.30 450.60 L 698.80 456.30 L 699.70 462.20 L 700.00 468.10 Z" fill="url(#SVGID_5_)" fill-rule="nonzero" group-id="2,4" node-id="314" stroke="none" target-height="216.99997" target-width="419" target-x="281" target-y="359.6"></path><path d="M 667.00 468.10 L 666.70 472.70 L 666.00 477.20 L 664.70 481.60 L 663.00 486.00 L 660.70 490.40 L 657.40 495.50 L 653.30 500.50 L 648.50 505.50 L 642.90 510.40 L 637.10 514.90 L 630.50 519.20 L 623.30 523.40 L 615.30 527.40 L 607.30 531.00 L 598.70 534.40 L 589.50 537.60 L 579.60 540.50 L 559.50 545.30 L 537.40 549.00 L 526.20 550.30 L 502.80 551.80 L 490.50 552.00 L 478.20 551.80 L 454.80 550.30 L 443.60 549.00 L 421.50 545.30 L 401.40 540.50 L 391.50 537.60 L 382.30 534.40 L 373.70 531.00 L 365.70 527.40 L 357.70 523.40 L 350.50 519.20 L 343.90 514.90 L 338.10 510.40 L 332.50 505.50 L 327.70 500.50 L 323.60 495.50 L 320.30 490.40 L 318.00 486.00 L 316.30 481.60 L 315.00 477.20 L 314.30 472.70 L 314.00 468.10 L 314.30 463.50 L 315.00 459.00 L 316.30 454.60 L 318.00 450.20 L 320.30 445.80 L 323.60 440.70 L 327.70 435.70 L 332.50 430.70 L 338.10 425.80 L 343.90 421.30 L 350.50 417.00 L 357.70 412.80 L 365.70 408.80 L 373.70 405.20 L 382.30 401.80 L 391.50 398.60 L 401.40 395.70 L 421.50 390.90 L 443.60 387.20 L 454.80 385.90 L 478.20 384.40 L 490.50 384.20 L 502.80 384.40 L 526.20 385.90 L 537.40 387.20 L 559.50 390.90 L 579.60 395.70 L 589.50 398.60 L 598.70 401.80 L 607.30 405.20 L 615.30 408.80 L 623.30 412.80 L 630.50 417.00 L 637.10 421.30 L 642.90 425.80 L 648.50 430.70 L 653.30 435.70 L 657.40 440.70 L 660.70 445.80 L 663.00 450.20 L 664.70 454.60 L 666.00 459.00 L 666.70 463.50 L 667.00 468.10 Z" fill="none" group-id="2,4" node-id="316" stroke="url(#SVGID_6_)" stroke-linecap="butt" stroke-width="9.9832" target-height="167.79999" target-width="353" target-x="314" target-y="384.2"></path><g node-id="408"><path d="M 501.10 462.40 L 536.30 462.40 L 531.50 469.50 L 496.00 469.50 L 468.40 510.40 L 433.60 510.40 L 461.20 469.50 L 425.90 469.50 L 430.70 462.40 L 465.90 462.40 L 458.20 412.90 L 495.90 412.90 L 499.80 438.30 L 537.90 412.90 L 575.60 412.90 L 501.10 462.40 Z" fill="url(#SVGID_7_)" fill-rule="nonzero" group-id="2,4,9" node-id="320" stroke="none" target-height="97.5" target-width="149.69998" target-x="425.9" target-y="412.9"></path></g></g><g node-id="404"><path d="M 726.90 384.20 L 721.80 378.80 L 716.10 373.40 L 709.70 368.20 L 702.60 363.00 L 695.40 358.30 L 687.50 353.80 L 679.10 349.50 L 670.00 345.30 L 651.30 338.10 L 641.10 334.80 L 619.80 329.20 L 597.20 324.80 L 573.40 321.80 L 561.20 320.90 L 535.80 320.10 L 510.40 320.90 L 486.40 323.10 L 462.90 326.80 L 441.20 331.80 L 430.50 334.80 L 420.30 338.10 L 401.60 345.30 L 392.50 349.50 L 384.10 353.80 L 376.20 358.30 L 369.00 363.00 L 361.90 368.20 L 355.50 373.40 L 349.80 378.80 L 344.70 384.20 L 326.20 384.20 L 326.20 433.50 L 326.70 433.50 L 327.50 439.20 L 328.80 444.80 L 330.70 450.30 L 333.10 455.70 L 336.10 461.20 L 339.50 466.30 L 343.30 471.30 L 347.70 476.20 L 352.60 481.10 L 358.10 486.00 L 365.20 491.40 L 372.90 496.80 L 381.50 501.90 L 390.90 506.90 L 400.30 511.30 L 410.40 515.50 L 421.20 519.40 L 432.60 523.00 L 444.00 526.20 L 456.00 528.90 L 468.50 531.40 L 481.50 533.40 L 494.50 535.00 L 507.80 536.10 L 521.50 536.80 L 535.70 537.10 L 549.90 536.80 L 563.60 536.10 L 576.90 535.00 L 589.90 533.40 L 602.90 531.40 L 615.40 528.90 L 627.40 526.20 L 638.80 523.00 L 650.20 519.40 L 661.00 515.50 L 671.10 511.30 L 680.50 506.90 L 689.90 501.90 L 698.50 496.80 L 706.20 491.40 L 713.30 486.00 L 718.80 481.10 L 723.70 476.20 L 728.10 471.30 L 731.90 466.30 L 735.30 461.20 L 738.30 455.70 L 740.70 450.30 L 742.60 444.80 L 743.90 439.20 L 744.70 433.50 L 745.20 433.50 L 745.20 384.20 L 726.90 384.20 Z" fill="url(#SVGID_8_)" fill-rule="nonzero" group-id="2,5" node-id="326" stroke="none" target-height="216.99997" target-width="419" target-x="326.2" target-y="320.1"></path><path d="M 745.30 379.30 L 745.00 385.20 L 744.10 391.10 L 742.60 396.80 L 740.50 402.50 L 737.80 408.10 L 734.70 413.40 L 731.10 418.70 L 726.90 423.90 L 722.10 429.00 L 716.70 434.10 L 709.70 439.80 L 702.00 445.40 L 693.40 450.80 L 683.90 456.00 L 674.40 460.70 L 664.20 465.10 L 653.20 469.20 L 641.50 473.00 L 629.90 476.30 L 617.70 479.20 L 604.90 481.80 L 591.50 483.90 L 578.20 485.60 L 564.50 486.80 L 550.40 487.50 L 535.80 487.80 L 521.20 487.50 L 507.10 486.80 L 493.40 485.60 L 480.10 483.90 L 466.70 481.80 L 453.90 479.20 L 441.70 476.30 L 430.10 473.00 L 418.40 469.20 L 407.40 465.10 L 397.20 460.70 L 387.70 456.00 L 378.20 450.80 L 369.60 445.40 L 361.90 439.80 L 354.90 434.10 L 349.50 429.00 L 344.70 423.90 L 340.50 418.70 L 336.90 413.40 L 333.80 408.10 L 331.10 402.50 L 329.00 396.80 L 327.50 391.10 L 326.60 385.20 L 326.30 379.30 L 326.60 373.40 L 327.50 367.50 L 329.00 361.80 L 331.10 356.10 L 333.80 350.50 L 336.90 345.20 L 340.50 339.90 L 344.70 334.70 L 349.50 329.60 L 354.90 324.50 L 361.90 318.80 L 369.60 313.20 L 378.20 307.80 L 387.70 302.60 L 397.20 297.90 L 407.40 293.50 L 418.40 289.40 L 430.10 285.60 L 441.70 282.30 L 453.90 279.40 L 466.70 276.80 L 480.10 274.70 L 493.40 273.00 L 507.10 271.80 L 521.20 271.10 L 535.80 270.80 L 550.40 271.10 L 564.50 271.80 L 578.20 273.00 L 591.50 274.70 L 604.90 276.80 L 617.70 279.40 L 629.90 282.30 L 641.50 285.60 L 653.20 289.40 L 664.20 293.50 L 674.40 297.90 L 683.90 302.60 L 693.40 307.80 L 702.00 313.20 L 709.70 318.80 L 716.70 324.50 L 722.10 329.60 L 726.90 334.70 L 731.10 339.90 L 734.70 345.20 L 737.80 350.50 L 740.50 356.10 L 742.60 361.80 L 744.10 367.50 L 745.00 373.40 L 745.30 379.30 Z" fill="url(#SVGID_9_)" fill-rule="nonzero" group-id="2,5" node-id="328" stroke="none" target-height="217" target-width="419" target-x="326.3" target-y="270.8"></path><path d="M 712.30 379.30 L 712.00 383.90 L 711.30 388.40 L 710.00 392.80 L 708.30 397.20 L 706.00 401.60 L 702.70 406.70 L 698.60 411.70 L 693.80 416.70 L 688.20 421.60 L 682.40 426.10 L 675.80 430.40 L 668.60 434.60 L 660.60 438.60 L 652.60 442.20 L 644.00 445.60 L 634.80 448.80 L 624.90 451.70 L 604.80 456.50 L 582.70 460.20 L 571.50 461.50 L 548.10 463.00 L 535.80 463.20 L 523.50 463.00 L 500.10 461.50 L 488.90 460.20 L 466.80 456.50 L 446.70 451.70 L 436.80 448.80 L 427.60 445.60 L 419.00 442.20 L 411.00 438.60 L 403.00 434.60 L 395.80 430.40 L 389.20 426.10 L 383.40 421.60 L 377.80 416.70 L 373.00 411.70 L 368.90 406.70 L 365.60 401.60 L 363.30 397.20 L 361.60 392.80 L 360.30 388.40 L 359.60 383.90 L 359.30 379.30 L 359.60 374.70 L 360.30 370.20 L 361.60 365.80 L 363.30 361.40 L 365.60 357.00 L 368.90 351.90 L 373.00 346.90 L 377.80 341.90 L 383.40 337.00 L 389.20 332.50 L 395.80 328.20 L 403.00 324.00 L 411.00 320.00 L 419.00 316.40 L 427.60 313.00 L 436.80 309.80 L 446.70 306.90 L 466.80 302.10 L 488.90 298.40 L 500.10 297.10 L 523.50 295.60 L 535.80 295.40 L 548.10 295.60 L 571.50 297.10 L 582.70 298.40 L 604.80 302.10 L 624.90 306.90 L 634.80 309.80 L 644.00 313.00 L 652.60 316.40 L 660.60 320.00 L 668.60 324.00 L 675.80 328.20 L 682.40 332.50 L 688.20 337.00 L 693.80 341.90 L 698.60 346.90 L 702.70 351.90 L 706.00 357.00 L 708.30 361.40 L 710.00 365.80 L 711.30 370.20 L 712.00 374.70 L 712.30 379.30 Z" fill="none" group-id="2,5" node-id="330" stroke="url(#SVGID_10_)" stroke-linecap="butt" stroke-width="9.9832" target-height="167.80002" target-width="353" target-x="359.3" target-y="295.4"></path><g node-id="409"><path d="M 546.40 373.60 L 581.60 373.60 L 576.80 380.70 L 541.30 380.70 L 513.70 421.60 L 478.90 421.60 L 506.50 380.70 L 471.20 380.70 L 476.00 373.60 L 511.00 373.60 L 503.30 324.10 L 541.00 324.10 L 544.90 349.50 L 583.00 324.10 L 620.70 324.10 L 546.40 373.60 Z" fill="url(#SVGID_11_)" fill-rule="nonzero" group-id="2,5,10" node-id="334" stroke="none" target-height="97.5" target-width="149.5" target-x="471.2" target-y="324.1"></path></g></g><g node-id="405"><path d="M 591.00 305.30 L 585.90 299.90 L 580.20 294.50 L 573.80 289.30 L 566.70 284.10 L 559.50 279.40 L 551.60 274.90 L 543.20 270.60 L 534.10 266.40 L 515.40 259.20 L 505.20 255.90 L 483.90 250.30 L 461.30 245.90 L 437.50 242.90 L 425.30 242.00 L 399.90 241.20 L 374.50 242.00 L 350.50 244.20 L 327.00 247.90 L 305.30 252.90 L 294.60 255.90 L 284.40 259.20 L 265.70 266.40 L 256.60 270.60 L 248.20 274.90 L 240.30 279.40 L 233.10 284.10 L 226.00 289.30 L 219.60 294.50 L 213.90 299.90 L 208.80 305.30 L 190.30 305.30 L 190.30 354.60 L 190.80 354.60 L 191.60 360.30 L 192.90 365.90 L 194.80 371.40 L 197.20 376.80 L 200.20 382.30 L 203.60 387.40 L 207.40 392.40 L 211.80 397.30 L 216.70 402.20 L 222.20 407.10 L 229.30 412.50 L 237.00 417.90 L 245.60 423.00 L 255.00 428.00 L 264.40 432.40 L 274.50 436.60 L 285.30 440.50 L 296.70 444.10 L 308.10 447.30 L 320.10 450.00 L 332.60 452.50 L 345.60 454.50 L 358.60 456.10 L 371.90 457.20 L 385.60 457.90 L 399.80 458.20 L 414.00 457.90 L 427.70 457.20 L 441.00 456.10 L 454.00 454.50 L 467.00 452.50 L 479.50 450.00 L 491.50 447.30 L 502.90 444.10 L 514.30 440.50 L 525.10 436.60 L 535.20 432.40 L 544.60 428.00 L 554.00 423.00 L 562.60 417.90 L 570.30 412.50 L 577.40 407.10 L 582.90 402.20 L 587.80 397.30 L 592.20 392.40 L 596.00 387.40 L 599.40 382.30 L 602.40 376.80 L 604.80 371.40 L 606.70 365.90 L 608.00 360.30 L 608.80 354.60 L 609.30 354.60 L 609.30 305.30 L 591.00 305.30 Z" fill="url(#SVGID_12_)" fill-rule="nonzero" group-id="2,6" node-id="340" stroke="none" target-height="217.00002" target-width="419" target-x="190.3" target-y="241.2"></path><path d="M 609.40 300.40 L 609.10 306.30 L 608.20 312.20 L 606.70 317.90 L 604.60 323.60 L 601.90 329.20 L 598.80 334.50 L 595.20 339.80 L 591.00 345.00 L 586.20 350.10 L 580.80 355.20 L 573.80 360.90 L 566.10 366.50 L 557.50 371.90 L 548.00 377.10 L 538.50 381.80 L 528.30 386.20 L 517.30 390.30 L 505.60 394.10 L 494.00 397.40 L 481.80 400.30 L 469.00 402.90 L 455.60 405.00 L 442.30 406.70 L 428.60 407.90 L 414.50 408.60 L 399.90 408.90 L 385.30 408.60 L 371.20 407.90 L 357.50 406.70 L 344.20 405.00 L 330.80 402.90 L 318.00 400.30 L 305.80 397.40 L 294.20 394.10 L 282.50 390.30 L 271.50 386.20 L 261.30 381.80 L 251.80 377.10 L 242.30 371.90 L 233.70 366.50 L 226.00 360.90 L 219.00 355.20 L 213.60 350.10 L 208.80 345.00 L 204.60 339.80 L 201.00 334.50 L 197.90 329.20 L 195.20 323.60 L 193.10 317.90 L 191.60 312.20 L 190.70 306.30 L 190.40 300.40 L 190.70 294.50 L 191.60 288.60 L 193.10 282.90 L 195.20 277.20 L 197.90 271.60 L 201.00 266.30 L 204.60 261.00 L 208.80 255.80 L 213.60 250.70 L 219.00 245.60 L 226.00 239.90 L 233.70 234.30 L 242.30 228.90 L 251.80 223.70 L 261.30 219.00 L 271.50 214.60 L 282.50 210.50 L 294.20 206.70 L 305.80 203.40 L 318.00 200.50 L 330.80 197.90 L 344.20 195.80 L 357.50 194.10 L 371.20 192.90 L 385.30 192.20 L 399.90 191.90 L 414.50 192.20 L 428.60 192.90 L 442.30 194.10 L 455.60 195.80 L 469.00 197.90 L 481.80 200.50 L 494.00 203.40 L 505.60 206.70 L 517.30 210.50 L 528.30 214.60 L 538.50 219.00 L 548.00 223.70 L 557.50 228.90 L 566.10 234.30 L 573.80 239.90 L 580.80 245.60 L 586.20 250.70 L 591.00 255.80 L 595.20 261.00 L 598.80 266.30 L 601.90 271.60 L 604.60 277.20 L 606.70 282.90 L 608.20 288.60 L 609.10 294.50 L 609.40 300.40 Z" fill="url(#SVGID_13_)" fill-rule="nonzero" group-id="2,6" node-id="342" stroke="none" target-height="217" target-width="419.00003" target-x="190.4" target-y="191.9"></path><path d="M 576.40 300.40 L 576.10 305.00 L 575.40 309.50 L 574.10 313.90 L 572.40 318.30 L 570.10 322.70 L 566.80 327.80 L 562.70 332.80 L 557.90 337.80 L 552.30 342.70 L 546.50 347.20 L 539.90 351.50 L 532.70 355.70 L 524.70 359.70 L 516.70 363.30 L 508.10 366.70 L 498.90 369.90 L 489.00 372.80 L 468.90 377.60 L 446.80 381.30 L 435.60 382.60 L 412.20 384.10 L 399.90 384.30 L 387.60 384.10 L 364.20 382.60 L 353.00 381.30 L 330.90 377.60 L 310.80 372.80 L 300.90 369.90 L 291.70 366.70 L 283.10 363.30 L 275.10 359.70 L 267.10 355.70 L 259.90 351.50 L 253.30 347.20 L 247.50 342.70 L 241.90 337.80 L 237.10 332.80 L 233.00 327.80 L 229.70 322.70 L 227.40 318.30 L 225.70 313.90 L 224.40 309.50 L 223.70 305.00 L 223.40 300.40 L 223.70 295.80 L 224.40 291.30 L 225.70 286.90 L 227.40 282.50 L 229.70 278.10 L 233.00 273.00 L 237.10 268.00 L 241.90 263.00 L 247.50 258.10 L 253.30 253.60 L 259.90 249.30 L 267.10 245.10 L 275.10 241.10 L 283.10 237.50 L 291.70 234.10 L 300.90 230.90 L 310.80 228.00 L 330.90 223.20 L 353.00 219.50 L 364.20 218.20 L 387.60 216.70 L 399.90 216.50 L 412.20 216.70 L 435.60 218.20 L 446.80 219.50 L 468.90 223.20 L 489.00 228.00 L 498.90 230.90 L 508.10 234.10 L 516.70 237.50 L 524.70 241.10 L 532.70 245.10 L 539.90 249.30 L 546.50 253.60 L 552.30 258.10 L 557.90 263.00 L 562.70 268.00 L 566.80 273.00 L 570.10 278.10 L 572.40 282.50 L 574.10 286.90 L 575.40 291.30 L 576.10 295.80 L 576.40 300.40 Z" fill="none" group-id="2,6" node-id="344" stroke="url(#SVGID_14_)" stroke-linecap="butt" stroke-width="9.9832" target-height="167.79999" target-width="353.00003" target-x="223.4" target-y="216.5"></path><g node-id="410"><path d="M 410.50 294.70 L 445.70 294.70 L 440.90 301.80 L 405.40 301.80 L 377.80 342.70 L 343.00 342.70 L 370.60 301.80 L 335.30 301.80 L 340.10 294.70 L 375.30 294.70 L 367.60 245.20 L 405.30 245.20 L 409.20 270.60 L 447.30 245.20 L 485.00 245.20 L 410.50 294.70 Z" fill="url(#SVGID_15_)" fill-rule="nonzero" group-id="2,6,11" node-id="348" stroke="none" target-height="97.500015" target-width="149.70001" target-x="335.3" target-y="245.2"></path></g></g><g node-id="406"><path d="M 794.80 275.70 L 789.70 270.30 L 784.00 264.90 L 777.60 259.70 L 770.50 254.50 L 763.30 249.80 L 755.40 245.30 L 747.00 241.00 L 737.90 236.80 L 719.20 229.60 L 709.00 226.30 L 687.70 220.70 L 665.10 216.30 L 641.30 213.30 L 629.10 212.40 L 603.70 211.60 L 578.30 212.40 L 554.30 214.60 L 530.80 218.30 L 509.10 223.30 L 498.40 226.30 L 488.20 229.60 L 469.50 236.80 L 460.40 241.00 L 452.00 245.30 L 444.10 249.80 L 436.90 254.50 L 429.80 259.70 L 423.40 264.90 L 417.70 270.30 L 412.60 275.70 L 394.10 275.70 L 394.10 325.00 L 394.60 325.00 L 395.40 330.70 L 396.70 336.30 L 398.60 341.80 L 401.00 347.20 L 404.00 352.70 L 407.40 357.80 L 411.20 362.80 L 415.60 367.70 L 420.50 372.60 L 426.00 377.50 L 433.10 382.90 L 440.80 388.30 L 449.40 393.40 L 458.80 398.40 L 468.20 402.80 L 478.30 407.00 L 489.10 410.90 L 500.50 414.50 L 511.90 417.70 L 523.90 420.40 L 536.40 422.90 L 549.40 424.90 L 562.40 426.50 L 575.70 427.60 L 589.40 428.30 L 603.60 428.60 L 617.80 428.30 L 631.50 427.60 L 644.80 426.50 L 657.80 424.90 L 670.80 422.90 L 683.30 420.40 L 695.30 417.70 L 706.70 414.50 L 718.10 410.90 L 728.90 407.00 L 739.00 402.80 L 748.40 398.40 L 757.80 393.40 L 766.40 388.30 L 774.10 382.90 L 781.20 377.50 L 786.70 372.60 L 791.60 367.70 L 796.00 362.80 L 799.80 357.80 L 803.20 352.70 L 806.20 347.20 L 808.60 341.80 L 810.50 336.30 L 811.80 330.70 L 812.60 325.00 L 813.10 325.00 L 813.10 275.70 L 794.80 275.70 Z" fill="url(#SVGID_16_)" fill-rule="nonzero" group-id="2,7" node-id="354" stroke="none" target-height="217" target-width="418.99997" target-x="394.1" target-y="211.6"></path><path d="M 813.30 270.80 L 813.00 276.70 L 812.10 282.60 L 810.60 288.30 L 808.50 294.00 L 805.80 299.60 L 802.70 304.90 L 799.10 310.20 L 794.90 315.40 L 790.10 320.50 L 784.70 325.60 L 777.70 331.30 L 770.00 336.90 L 761.40 342.30 L 751.90 347.50 L 742.40 352.20 L 732.20 356.60 L 721.20 360.70 L 709.50 364.50 L 697.90 367.80 L 685.70 370.70 L 672.90 373.30 L 659.50 375.40 L 646.20 377.10 L 632.50 378.30 L 618.40 379.00 L 603.80 379.30 L 589.20 379.00 L 575.10 378.30 L 561.40 377.10 L 548.10 375.40 L 534.70 373.30 L 521.90 370.70 L 509.70 367.80 L 498.10 364.50 L 486.40 360.70 L 475.40 356.60 L 465.20 352.20 L 455.70 347.50 L 446.20 342.30 L 437.60 336.90 L 429.90 331.30 L 422.90 325.60 L 417.50 320.50 L 412.70 315.40 L 408.50 310.20 L 404.90 304.90 L 401.80 299.60 L 399.10 294.00 L 397.00 288.30 L 395.50 282.60 L 394.60 276.70 L 394.30 270.80 L 394.60 264.90 L 395.50 259.00 L 397.00 253.30 L 399.10 247.60 L 401.80 242.00 L 404.90 236.70 L 408.50 231.40 L 412.70 226.20 L 417.50 221.10 L 422.90 216.00 L 429.90 210.30 L 437.60 204.70 L 446.20 199.30 L 455.70 194.10 L 465.20 189.40 L 475.40 185.00 L 486.40 180.90 L 498.10 177.10 L 509.70 173.80 L 521.90 170.90 L 534.70 168.30 L 548.10 166.20 L 561.40 164.50 L 575.10 163.30 L 589.20 162.60 L 603.80 162.30 L 618.40 162.60 L 632.50 163.30 L 646.20 164.50 L 659.50 166.20 L 672.90 168.30 L 685.70 170.90 L 697.90 173.80 L 709.50 177.10 L 721.20 180.90 L 732.20 185.00 L 742.40 189.40 L 751.90 194.10 L 761.40 199.30 L 770.00 204.70 L 777.70 210.30 L 784.70 216.00 L 790.10 221.10 L 794.90 226.20 L 799.10 231.40 L 802.70 236.70 L 805.80 242.00 L 808.50 247.60 L 810.60 253.30 L 812.10 259.00 L 813.00 264.90 L 813.30 270.80 Z" fill="url(#SVGID_17_)" fill-rule="nonzero" group-id="2,7" node-id="356" stroke="none" target-height="216.99998" target-width="419" target-x="394.3" target-y="162.3"></path><path d="M 780.30 270.80 L 780.00 275.40 L 779.30 279.90 L 778.00 284.30 L 776.30 288.70 L 774.00 293.10 L 770.70 298.20 L 766.60 303.20 L 761.80 308.20 L 756.20 313.10 L 750.40 317.60 L 743.80 321.90 L 736.60 326.10 L 728.60 330.10 L 720.60 333.70 L 712.00 337.10 L 702.80 340.30 L 692.90 343.20 L 672.80 348.10 L 650.70 351.70 L 639.50 353.00 L 616.10 354.50 L 603.80 354.70 L 591.50 354.50 L 568.10 353.00 L 556.90 351.70 L 534.80 348.00 L 514.70 343.20 L 504.80 340.30 L 495.60 337.10 L 487.00 333.70 L 479.00 330.10 L 471.00 326.10 L 463.80 321.90 L 457.20 317.60 L 451.40 313.10 L 445.80 308.20 L 441.00 303.20 L 436.90 298.20 L 433.60 293.10 L 431.30 288.70 L 429.60 284.30 L 428.30 279.90 L 427.60 275.40 L 427.30 270.80 L 427.60 266.20 L 428.30 261.70 L 429.60 257.30 L 431.30 252.90 L 433.60 248.50 L 436.90 243.40 L 441.00 238.40 L 445.80 233.40 L 451.40 228.50 L 457.20 224.00 L 463.80 219.70 L 471.00 215.50 L 479.00 211.50 L 487.00 207.90 L 495.60 204.50 L 504.80 201.30 L 514.70 198.40 L 534.80 193.60 L 556.90 189.90 L 568.10 188.60 L 591.50 187.10 L 603.80 186.90 L 616.10 187.10 L 639.50 188.60 L 650.70 189.90 L 672.80 193.60 L 692.90 198.40 L 702.80 201.30 L 712.00 204.50 L 720.60 207.90 L 728.60 211.50 L 736.60 215.50 L 743.80 219.70 L 750.40 224.00 L 756.20 228.50 L 761.80 233.40 L 766.60 238.40 L 770.70 243.40 L 774.00 248.50 L 776.30 252.90 L 778.00 257.30 L 779.30 261.70 L 780.00 266.20 L 780.30 270.80 Z" fill="none" group-id="2,7" node-id="358" stroke="url(#SVGID_18_)" stroke-linecap="butt" stroke-width="9.9832" target-height="167.80002" target-width="353" target-x="427.3" target-y="186.9"></path><g node-id="411"><path d="M 614.30 265.10 L 649.50 265.10 L 644.70 272.20 L 609.20 272.20 L 581.60 313.10 L 546.80 313.10 L 574.40 272.20 L 539.10 272.20 L 543.90 265.10 L 579.00 265.10 L 571.30 215.60 L 609.00 215.60 L 612.90 241.00 L 651.00 215.60 L 688.70 215.60 L 614.30 265.10 Z" fill="url(#SVGID_19_)" fill-rule="nonzero" group-id="2,7,12" node-id="362" stroke="none" target-height="97.5" target-width="149.60004" target-x="539.1" target-y="215.6"></path></g></g></g><g node-id="402"><path d="M 892.60 593.90 L 507.50 771.60 L 122.40 593.90 L 132.60 589.70 L 289.60 461.70 L 306.50 454.90 L 507.50 547.80 L 708.50 454.90 L 725.40 461.70 L 882.40 589.70 L 887.80 591.90 Z" fill="url(#SVGID_20_)" fill-rule="nonzero" group-id="3" node-id="369" stroke="none" target-height="316.69998" target-width="770.19995" target-x="122.4" target-y="454.9"></path><path d="M 122.40 593.90 L 122.40 734.80 L 507.50 912.60 L 507.50 771.60 Z" fill="url(#SVGID_21_)" fill-rule="nonzero" group-id="3" node-id="371" stroke="none" target-height="318.69995" target-width="385.1" target-x="122.4" target-y="593.9"></path><path d="M 892.60 593.90 L 892.60 734.80 L 507.50 912.60 L 507.50 771.60 Z" fill="url(#SVGID_22_)" fill-rule="nonzero" group-id="3" node-id="373" stroke="none" target-height="318.69995" target-width="385.09998" target-x="507.5" target-y="593.9"></path><path d="M 745.30 698.30 L 745.30 719.00 L 688.70 745.20 L 688.70 724.50 Z" fill="#c2bdfc" fill-rule="nonzero" group-id="3" node-id="375" stroke="none" target-height="46.900024" target-width="56.599976" target-x="688.7" target-y="698.3"></path><path d="M 745.30 742.40 L 745.30 763.10 L 688.70 789.20 L 688.70 768.50 Z" fill="#c2bdfc" fill-rule="nonzero" group-id="3" node-id="377" stroke="none" target-height="46.799988" target-width="56.599976" target-x="688.7" target-y="742.4"></path><g node-id="407"><path d="M 122.40 384.50 L 122.40 589.70 L 507.50 767.50 L 507.50 562.30 Z" fill="#5747db" fill-rule="nonzero" group-id="3,8" node-id="381" stroke="none" target-height="383" target-width="385.1" target-x="122.4" target-y="384.5"></path><path d="M 892.60 384.50 L 892.60 589.70 L 507.50 767.50 L 507.50 562.30 Z" fill="#5747db" fill-rule="nonzero" group-id="3,8" node-id="383" stroke="none" target-height="383" target-width="385.09998" target-x="507.5" target-y="384.5"></path></g><path d="M 892.60 379.90 L 507.50 557.60 L 122.40 379.90 L 145.10 380.50 L 507.50 547.80 L 869.90 380.50 Z" fill="url(#SVGID_23_)" fill-rule="nonzero" group-id="3" node-id="386" stroke="none" target-height="177.69998" target-width="770.19995" target-x="122.4" target-y="379.9"></path><path d="M 306.50 454.90 L 466.20 528.80 L 145.10 380.50 Z" fill="#ffffff" fill-rule="nonzero" group-id="3" node-id="388" stroke="none" target-height="148.29999" target-width="321.1" target-x="145.1" target-y="380.5"></path><path d="M 869.90 380.50 L 549.40 528.50 L 708.50 454.90 Z" fill="#ffffff" fill-rule="nonzero" group-id="3" node-id="390" stroke="none" target-height="148" target-width="320.5" target-x="549.4" target-y="380.5"></path><path d="M 122.40 379.90 L 122.40 585.00 L 507.50 762.80 L 507.50 557.60 Z" fill="url(#SVGID_24_)" fill-rule="nonzero" group-id="3" node-id="392" stroke="none" target-height="382.9" target-width="385.1" target-x="122.4" target-y="379.9"></path><path d="M 869.90 380.50 L 549.40 528.50 L 708.50 454.90 Z" fill="url(#SVGID_25_)" fill-rule="nonzero" group-id="3" node-id="394" stroke="none" target-height="148" target-width="320.5" target-x="549.4" target-y="380.5"></path><path d="M 892.60 379.90 L 892.60 585.00 L 507.50 762.80 L 507.50 557.60 Z" fill="url(#SVGID_26_)" fill-rule="nonzero" group-id="3" node-id="396" stroke="none" target-height="382.9" target-width="385.09998" target-x="507.5" target-y="379.9"></path><path d="M 466.20 528.80 L 145.10 380.50 L 306.50 454.90 Z" fill="url(#SVGID_27_)" fill-rule="nonzero" group-id="3" node-id="398" stroke="none" target-height="148.29999" target-width="321.1" target-x="145.1" target-y="380.5"></path></g></svg>