<?xml version="1.0" standalone="no"?><!DOCTYPE svg PUBLIC "-//W3C//DTD SVG 1.1//EN" "http://www.w3.org/Graphics/SVG/1.1/DTD/svg11.dtd"><svg height="1024" node-id="1" sillyvg="true" template-height="1024" template-width="1024" version="1.1" viewBox="0 0 1024 1024" width="1024" xmlns="http://www.w3.org/2000/svg" xmlns:xlink="http://www.w3.org/1999/xlink"><defs node-id="166"><linearGradient gradientUnits="objectBoundingBox" id="SVGID_1_" node-id="6" spreadMethod="pad" x1="525.9351" x2="917.5143" y1="708.4842" y2="708.4842"><stop offset="0.005154639" stop-color="#c5bafe"></stop><stop offset="1" stop-color="#7d6ff8"></stop></linearGradient><linearGradient gradientUnits="objectBoundingBox" id="SVGID_2_" node-id="10" spreadMethod="pad" x1="133.654" x2="525.9351" y1="708.2159" y2="708.2159"><stop offset="0.005154639" stop-color="#c5bafe"></stop><stop offset="1" stop-color="#7d6ff8"></stop></linearGradient><linearGradient gradientUnits="objectBoundingBox" id="SVGID_3_" node-id="16" spreadMethod="pad" x1="7699.956" x2="7775.6606" y1="412.2263" y2="412.2263"><stop offset="0.005154639" stop-color="#8bdfff"></stop><stop offset="1" stop-color="#77c9ff"></stop></linearGradient><linearGradient gradientUnits="objectBoundingBox" id="SVGID_4_" node-id="20" spreadMethod="pad" x1="405.7065" x2="381.7969" y1="597.6459" y2="653.6103"><stop offset="0.005154639" stop-color="#b3ffff"></stop><stop offset="1" stop-color="#83daff"></stop></linearGradient><linearGradient gradientUnits="objectBoundingBox" id="SVGID_5_" node-id="24" spreadMethod="pad" x1="365.8579" x2="412.7965" y1="624.0764" y2="637.2421"><stop offset="0.005154639" stop-color="#8bdfff"></stop><stop offset="1" stop-color="#77c9ff"></stop></linearGradient><linearGradient gradientUnits="objectBoundingBox" id="SVGID_6_" node-id="30" spreadMethod="pad" x1="7765.908" x2="7841.613" y1="260.3793" y2="260.3793"><stop offset="0.005154639" stop-color="#8bdfff"></stop><stop offset="1" stop-color="#77c9ff"></stop></linearGradient><linearGradient gradientUnits="objectBoundingBox" id="SVGID_7_" node-id="34" spreadMethod="pad" x1="256.3664" x2="232.4567" y1="517.4352" y2="573.3995"><stop offset="0.005154639" stop-color="#b3ffff"></stop><stop offset="1" stop-color="#83daff"></stop></linearGradient><linearGradient gradientUnits="objectBoundingBox" id="SVGID_8_" node-id="38" spreadMethod="pad" x1="216.5177" x2="263.4563" y1="543.8657" y2="557.0314"><stop offset="0.005154639" stop-color="#8bdfff"></stop><stop offset="1" stop-color="#77c9ff"></stop></linearGradient><linearGradient gradientUnits="objectBoundingBox" id="SVGID_9_" node-id="45" spreadMethod="pad" x1="525.9628" x2="525.9628" y1="718.8923" y2="285.1832"><stop offset="0.005154639" stop-color="#c1b7fe"></stop><stop offset="1" stop-color="#ffffff"></stop></linearGradient><linearGradient gradientUnits="objectBoundingBox" id="SVGID_10_" node-id="50" spreadMethod="pad" x1="134.441" x2="917.4847" y1="478.4642" y2="478.4642"><stop offset="0" stop-color="#7d6ff8"></stop><stop offset="0.9948" stop-color="#5747db"></stop></linearGradient><linearGradient gradientUnits="objectBoundingBox" id="SVGID_11_" node-id="56" spreadMethod="pad" x1="223.1584" x2="828.7028" y1="478.3571" y2="478.3571"><stop offset="0" stop-color="#7d6ff8"></stop><stop offset="0.9948" stop-color="#5747db"></stop></linearGradient><linearGradient gradientUnits="objectBoundingBox" id="SVGID_12_" node-id="60" spreadMethod="pad" x1="525.8431" x2="814.7188" y1="497.779" y2="497.779"><stop offset="0.005154639" stop-color="#8574fd"></stop><stop offset="1" stop-color="#715ef5"></stop></linearGradient><linearGradient gradientUnits="objectBoundingBox" id="SVGID_13_" node-id="64" spreadMethod="pad" x1="236.4494" x2="525.8431" y1="497.5811" y2="497.5811"><stop offset="0.005154639" stop-color="#8574fd"></stop><stop offset="1" stop-color="#715ef5"></stop></linearGradient><linearGradient gradientUnits="objectBoundingBox" id="SVGID_14_" node-id="71" spreadMethod="pad" x1="525.8635" x2="525.8635" y1="546.305" y2="226.3491"><stop offset="0.005154639" stop-color="#c1b7fe"></stop><stop offset="1" stop-color="#ffffff"></stop></linearGradient><linearGradient gradientUnits="objectBoundingBox" id="SVGID_15_" node-id="76" spreadMethod="pad" x1="237.03" x2="814.697" y1="368.9363" y2="368.9363"><stop offset="0.005154639" stop-color="#6052e9"></stop><stop offset="1" stop-color="#8071fe"></stop></linearGradient><linearGradient gradientUnits="objectBoundingBox" id="SVGID_16_" node-id="81" spreadMethod="pad" x1="525.8998" x2="878.0894" y1="455.5811" y2="455.5811"><stop offset="0.005154639" stop-color="#c5bafe"></stop><stop offset="1" stop-color="#7d6ff8"></stop></linearGradient><linearGradient gradientUnits="objectBoundingBox" id="SVGID_17_" node-id="85" spreadMethod="pad" x1="173.0788" x2="525.8998" y1="455.3398" y2="455.3398"><stop offset="0.005154639" stop-color="#c5bafe"></stop><stop offset="1" stop-color="#7d6ff8"></stop></linearGradient><linearGradient gradientUnits="objectBoundingBox" id="SVGID_18_" node-id="92" spreadMethod="pad" x1="525.9247" x2="525.9247" y1="514.7426" y2="124.6609"><stop offset="0.005154639" stop-color="#c1b7fe"></stop><stop offset="1" stop-color="#ffffff"></stop></linearGradient><linearGradient gradientUnits="objectBoundingBox" id="SVGID_19_" node-id="97" spreadMethod="pad" x1="173.7604" x2="878.1008" y1="298.4828" y2="298.4828"><stop offset="0.005154639" stop-color="#c1b7fe"></stop><stop offset="1" stop-color="#7d6ff8"></stop></linearGradient><linearGradient gradientUnits="objectBoundingBox" id="SVGID_20_" node-id="104" spreadMethod="pad" x1="352.7926" x2="650.7717" y1="286.0983" y2="286.0983"><stop offset="0" stop-color="#7d6ff8"></stop><stop offset="0.9948" stop-color="#5747db"></stop></linearGradient><linearGradient gradientUnits="objectBoundingBox" id="SVGID_21_" node-id="108" spreadMethod="pad" x1="400.6802" x2="698.6594" y1="310.659" y2="310.659"><stop offset="0" stop-color="#7d6ff8"></stop><stop offset="0.9948" stop-color="#5747db"></stop></linearGradient><linearGradient gradientUnits="objectBoundingBox" id="SVGID_22_" node-id="113" spreadMethod="pad" x1="688.1973" x2="709.1214" y1="503.2314" y2="503.2314"><stop offset="0.005154639" stop-color="#d79fff"></stop><stop offset="1" stop-color="#c389ff"></stop></linearGradient><linearGradient gradientUnits="objectBoundingBox" id="SVGID_23_" node-id="117" spreadMethod="pad" x1="614.313" x2="868.8907" y1="725.2833" y2="725.2833"><stop offset="0" stop-color="#7d6ff8"></stop><stop offset="0.9948" stop-color="#5747db"></stop></linearGradient><linearGradient gradientUnits="objectBoundingBox" id="SVGID_24_" node-id="123" spreadMethod="pad" x1="850.6396" x2="850.6396" y1="620.0846" y2="740.1956"><stop offset="0.005154639" stop-color="#c5bafe"></stop><stop offset="1" stop-color="#7d6ff8"></stop></linearGradient><linearGradient gradientUnits="objectBoundingBox" id="SVGID_25_" node-id="128" spreadMethod="pad" x1="242.1288" x2="576.8452" y1="233.1768" y2="233.1768"><stop offset="0.005154639" stop-color="#c5bafe"></stop><stop offset="1" stop-color="#7d6ff8"></stop></linearGradient><linearGradient gradientUnits="objectBoundingBox" id="SVGID_26_" node-id="133" spreadMethod="pad" x1="516.7239" x2="788.8356" y1="310.9108" y2="310.9108"><stop offset="0.005154639" stop-color="#c5bafe"></stop><stop offset="1" stop-color="#7d6ff8"></stop></linearGradient><linearGradient gradientUnits="objectBoundingBox" id="SVGID_27_" node-id="139" spreadMethod="pad" x1="8.4705" x2="84.1362" y1="3135.6768" y2="3135.6768"><stop offset="0.005154639" stop-color="#d79fff"></stop><stop offset="1" stop-color="#c389ff"></stop></linearGradient><linearGradient gradientUnits="objectBoundingBox" id="SVGID_28_" node-id="143" spreadMethod="pad" x1="3120.3208" x2="3096.5898" y1="8407.837" y2="8463.383"><stop offset="0.005154639" stop-color="#ffe5ff"></stop><stop offset="1" stop-color="#cf9aff"></stop></linearGradient><linearGradient gradientUnits="objectBoundingBox" id="SVGID_29_" node-id="147" spreadMethod="pad" x1="3084.1787" x2="3124.735" y1="8434.944" y2="8446.319"><stop offset="0.005154639" stop-color="#d79fff"></stop><stop offset="1" stop-color="#c389ff"></stop></linearGradient><linearGradient gradientUnits="objectBoundingBox" id="SVGID_30_" node-id="153" spreadMethod="pad" x1="-186.1703" x2="-110.5046" y1="3041.833" y2="3041.833"><stop offset="0.005154639" stop-color="#d79fff"></stop><stop offset="1" stop-color="#c389ff"></stop></linearGradient><linearGradient gradientUnits="objectBoundingBox" id="SVGID_31_" node-id="157" spreadMethod="pad" x1="3029.2146" x2="3005.4836" y1="8588.691" y2="8644.237"><stop offset="0.005154639" stop-color="#ffe5ff"></stop><stop offset="1" stop-color="#cf9aff"></stop></linearGradient><linearGradient gradientUnits="objectBoundingBox" id="SVGID_32_" node-id="161" spreadMethod="pad" x1="2993.0725" x2="3033.629" y1="8615.798" y2="8627.174"><stop offset="0.005154639" stop-color="#d79fff"></stop><stop offset="1" stop-color="#c389ff"></stop></linearGradient></defs><g node-id="524"><path d="M 917.50 478.80 L 916.70 735.90 L 915.90 741.70 L 914.40 746.70 L 911.30 753.00 L 906.90 758.90 L 900.00 765.60 L 892.80 770.70 L 884.70 775.60 L 604.60 921.60 L 594.20 926.30 L 586.70 929.10 L 580.40 931.20 L 569.10 934.00 L 558.80 935.90 L 545.40 937.60 L 533.10 938.30 L 526.10 938.30 L 526.10 681.90 L 535.70 681.70 L 547.10 681.00 L 559.60 679.40 L 569.90 677.50 L 579.90 675.00 L 587.50 672.60 L 595.00 669.80 L 605.40 665.10 L 889.70 516.70 L 893.70 514.30 L 902.70 507.50 L 904.90 505.50 L 909.90 499.70 L 912.60 495.70 L 915.30 490.20 L 917.00 484.70 L 917.50 478.80 Z" fill="url(#SVGID_1_)" fill-rule="nonzero" group-id="1" node-id="365" stroke="none" target-height="459.5" target-width="391.40002" target-x="526.1" target-y="478.8"></path><path d="M 525.90 681.90 L 525.90 938.20 L 508.20 937.60 L 501.40 936.90 L 489.10 935.00 L 477.60 932.50 L 470.60 930.50 L 464.20 928.40 L 456.30 925.30 L 448.20 921.50 L 166.30 775.50 L 160.90 772.50 L 151.80 766.30 L 144.60 759.70 L 141.70 756.20 L 139.20 752.70 L 137.30 749.30 L 135.70 745.60 L 134.50 741.90 L 133.90 738.30 L 133.70 734.60 L 134.40 478.20 L 134.90 483.70 L 136.40 489.20 L 137.90 492.70 L 139.90 496.30 L 142.50 499.90 L 145.90 503.80 L 149.90 507.70 L 154.70 511.50 L 160.40 515.30 L 167.00 519.10 L 452.90 667.10 L 465.50 672.10 L 471.40 674.00 L 477.30 675.70 L 488.00 678.10 L 498.50 679.80 L 508.90 681.00 L 525.90 681.80 Z" fill="url(#SVGID_2_)" fill-rule="nonzero" group-id="1" node-id="367" stroke="none" target-height="460" target-width="392.2" target-x="133.7" target-y="478.2"></path><g node-id="530"><g node-id="542"><path d="M 419.00 763.40 L 419.20 769.70 L 418.90 775.60 L 418.00 781.20 L 416.60 786.80 L 414.80 791.70 L 412.70 796.20 L 408.50 802.20 L 403.80 806.70 L 401.10 808.50 L 398.30 809.80 L 395.30 810.70 L 392.20 811.20 L 389.10 811.20 L 386.10 810.80 L 383.10 809.90 L 377.40 806.90 L 372.20 802.50 L 369.70 799.70 L 366.80 795.60 L 364.20 791.00 L 362.00 785.80 L 360.30 780.40 L 359.00 774.60 L 358.20 768.30 L 358.00 762.00 L 358.30 756.10 L 359.10 750.50 L 360.50 745.00 L 362.30 740.00 L 364.50 735.50 L 366.50 732.30 L 370.90 727.10 L 376.10 723.30 L 378.90 721.90 L 381.80 721.00 L 384.90 720.50 L 388.00 720.50 L 391.10 720.90 L 394.10 721.80 L 399.80 724.80 L 405.00 729.20 L 407.50 732.10 L 410.40 736.10 L 412.90 740.70 L 415.20 745.90 L 416.90 751.40 L 418.20 757.20 L 419.00 763.40 Z" fill="#5747db" fill-rule="nonzero" group-id="1,7,19" node-id="373" stroke="none" target-height="90.70001" target-width="61.200012" target-x="358" target-y="720.5"></path></g><path d="M 372.60 802.00 L 391.80 803.10 L 396.60 801.90 L 398.90 800.80 L 401.70 798.90 L 404.30 796.40 L 406.70 793.40 L 408.70 790.00 L 410.40 786.30 L 411.90 782.00 L 412.80 777.60 L 413.40 772.80 L 413.60 767.70 L 413.30 762.60 L 412.60 757.80 L 411.40 753.20 L 409.90 748.70 L 408.00 744.70 L 405.90 741.00 L 403.30 737.70 L 400.60 734.90 L 397.80 732.60 L 394.60 730.70 L 391.40 729.60 L 388.00 729.00 L 371.40 727.90 L 372.60 802.00 Z" fill="url(#SVGID_3_)" fill-rule="nonzero" group-id="1,7" node-id="376" stroke="none" target-height="75.19995" target-width="42.200012" target-x="371.4" target-y="727.9"></path><path d="M 371.40 728.00 L 374.80 728.60 L 378.00 729.70 L 381.20 731.50 L 384.00 733.80 L 386.70 736.60 L 389.30 740.00 L 391.40 743.60 L 393.30 747.60 L 394.80 752.10 L 396.00 756.70 L 396.70 761.50 L 397.00 766.60 L 396.80 771.70 L 396.20 776.50 L 395.30 780.90 L 393.80 785.20 L 392.10 788.90 L 390.10 792.30 L 387.70 795.30 L 385.10 797.80 L 382.30 799.70 L 377.60 801.60 L 372.60 802.00 L 369.20 801.40 L 366.00 800.30 L 362.80 798.50 L 360.00 796.20 L 357.30 793.40 L 354.70 790.00 L 352.60 786.40 L 350.70 782.40 L 349.20 777.90 L 348.00 773.30 L 347.30 768.50 L 347.00 763.40 L 347.20 758.30 L 347.80 753.50 L 348.70 749.10 L 350.20 744.80 L 351.90 741.10 L 353.90 737.70 L 356.30 734.70 L 358.90 732.20 L 361.70 730.30 L 366.40 728.40 L 371.40 728.00 Z" fill="url(#SVGID_4_)" fill-rule="nonzero" group-id="1,7" node-id="378" stroke="none" target-height="74" target-width="50" target-x="347" target-y="728"></path><path d="M 369.10 728.90 L 372.50 729.50 L 375.70 730.60 L 378.90 732.40 L 381.70 734.70 L 384.40 737.50 L 387.00 740.90 L 389.10 744.50 L 391.00 748.50 L 392.50 753.00 L 393.70 757.60 L 394.40 762.40 L 394.70 767.50 L 394.50 772.60 L 393.90 777.40 L 393.00 781.80 L 391.50 786.10 L 389.80 789.80 L 387.80 793.20 L 385.40 796.20 L 382.80 798.70 L 380.00 800.60 L 377.70 801.70 L 372.90 802.90 L 370.30 802.90 L 366.90 802.30 L 363.70 801.20 L 360.50 799.40 L 357.70 797.10 L 355.00 794.30 L 352.40 790.90 L 350.30 787.30 L 348.40 783.30 L 346.90 778.80 L 345.70 774.20 L 345.00 769.40 L 344.70 764.30 L 344.90 759.20 L 345.50 754.40 L 346.40 750.00 L 347.90 745.70 L 349.60 742.00 L 351.60 738.60 L 354.00 735.60 L 356.60 733.10 L 359.40 731.20 L 364.10 729.30 L 369.10 728.90 Z" fill="url(#SVGID_5_)" fill-rule="nonzero" group-id="1,7" node-id="380" stroke="none" target-height="74" target-width="50" target-x="344.7" target-y="728.9"></path></g><g node-id="531"><g node-id="543"><path d="M 269.40 688.20 L 269.60 694.50 L 269.30 700.40 L 268.40 706.10 L 267.00 711.60 L 265.30 716.50 L 263.10 721.00 L 258.90 727.00 L 254.20 731.50 L 251.50 733.30 L 248.70 734.60 L 245.70 735.50 L 242.70 736.00 L 239.50 736.00 L 236.50 735.60 L 233.50 734.70 L 227.80 731.70 L 222.60 727.30 L 220.10 724.50 L 217.20 720.40 L 214.60 715.80 L 212.40 710.60 L 210.70 705.20 L 209.40 699.40 L 208.60 693.10 L 208.40 686.80 L 208.70 680.90 L 209.50 675.30 L 210.90 669.80 L 212.70 664.80 L 214.90 660.30 L 216.90 657.10 L 221.30 651.90 L 226.50 648.10 L 229.30 646.70 L 232.20 645.80 L 235.30 645.30 L 238.50 645.30 L 241.50 645.70 L 244.50 646.60 L 250.20 649.60 L 255.40 654.00 L 257.90 656.90 L 260.80 660.90 L 263.30 665.50 L 265.60 670.70 L 267.30 676.20 L 268.60 682.00 L 269.40 688.20 Z" fill="#5747db" fill-rule="nonzero" group-id="1,8,20" node-id="387" stroke="none" target-height="90.70001" target-width="61.200012" target-x="208.4" target-y="645.3"></path></g><path d="M 223.00 726.90 L 242.20 728.00 L 247.00 726.80 L 249.30 725.70 L 252.10 723.80 L 254.70 721.30 L 257.10 718.30 L 259.10 714.90 L 260.80 711.20 L 262.30 706.90 L 263.20 702.50 L 263.80 697.70 L 264.00 692.60 L 263.70 687.50 L 263.00 682.70 L 261.80 678.10 L 260.30 673.60 L 258.40 669.60 L 256.30 666.00 L 253.70 662.60 L 251.00 659.80 L 248.20 657.50 L 245.00 655.70 L 241.80 654.60 L 238.40 654.00 L 221.80 652.90 L 223.00 726.90 Z" fill="url(#SVGID_6_)" fill-rule="nonzero" group-id="1,8" node-id="390" stroke="none" target-height="75.099976" target-width="42.199997" target-x="221.8" target-y="652.9"></path><path d="M 221.80 652.80 L 225.20 653.40 L 228.40 654.50 L 231.60 656.30 L 234.40 658.60 L 237.10 661.40 L 239.70 664.80 L 241.80 668.40 L 243.70 672.40 L 245.20 676.90 L 246.40 681.50 L 247.10 686.30 L 247.40 691.40 L 247.20 696.50 L 246.60 701.30 L 245.70 705.70 L 244.20 710.00 L 242.50 713.70 L 240.50 717.10 L 238.10 720.10 L 235.50 722.60 L 232.70 724.50 L 228.00 726.40 L 223.00 726.80 L 219.60 726.20 L 216.40 725.10 L 213.20 723.30 L 210.40 721.00 L 207.70 718.20 L 205.10 714.80 L 203.00 711.20 L 201.10 707.20 L 199.60 702.70 L 198.40 698.10 L 197.70 693.30 L 197.40 688.20 L 197.60 683.10 L 198.20 678.30 L 199.10 673.90 L 200.60 669.60 L 202.30 665.90 L 204.30 662.50 L 206.70 659.50 L 209.30 657.00 L 212.10 655.10 L 216.80 653.20 L 221.80 652.80 Z" fill="url(#SVGID_7_)" fill-rule="nonzero" group-id="1,8" node-id="392" stroke="none" target-height="74" target-width="50" target-x="197.4" target-y="652.8"></path><path d="M 219.50 653.70 L 222.90 654.30 L 226.10 655.40 L 229.30 657.20 L 232.10 659.50 L 234.80 662.30 L 237.40 665.70 L 239.50 669.30 L 241.40 673.30 L 242.90 677.80 L 244.10 682.40 L 244.80 687.20 L 245.10 692.30 L 244.90 697.40 L 244.30 702.20 L 243.40 706.60 L 241.90 710.90 L 240.20 714.60 L 238.20 718.00 L 235.80 721.00 L 233.20 723.50 L 230.40 725.40 L 225.70 727.30 L 220.70 727.70 L 217.30 727.10 L 214.10 726.00 L 210.90 724.20 L 208.10 721.90 L 205.40 719.10 L 202.80 715.70 L 200.70 712.10 L 198.80 708.10 L 197.30 703.60 L 196.10 699.00 L 195.40 694.20 L 195.10 689.10 L 195.30 684.00 L 195.90 679.20 L 196.80 674.80 L 198.30 670.50 L 200.00 666.80 L 202.00 663.40 L 204.40 660.40 L 207.00 657.90 L 209.80 656.00 L 214.50 654.10 L 219.50 653.70 Z" fill="url(#SVGID_8_)" fill-rule="nonzero" group-id="1,8" node-id="394" stroke="none" target-height="74" target-width="50" target-x="195.1" target-y="653.7"></path></g><g node-id="532"><path d="M 917.50 482.30 L 917.40 515.80 L 917.10 519.00 L 916.30 522.00 L 915.00 525.00 L 913.30 527.80 L 908.90 533.00 L 905.00 536.60 L 900.80 539.90 L 892.40 545.30 L 605.30 695.20 L 597.80 698.70 L 589.90 701.90 L 581.40 704.70 L 572.70 706.90 L 563.70 708.80 L 554.40 710.30 L 545.00 711.30 L 535.50 711.90 L 525.90 712.00 L 516.60 711.70 L 507.40 711.10 L 498.30 710.00 L 489.20 708.50 L 480.50 706.60 L 472.10 704.40 L 463.90 701.70 L 456.10 698.60 L 448.90 695.20 L 151.70 541.30 L 147.40 538.50 L 140.70 533.10 L 136.80 528.20 L 135.40 525.50 L 134.50 522.70 L 134.20 519.80 L 134.30 481.80 L 134.80 487.30 L 136.30 492.80 L 137.80 496.30 L 139.80 499.90 L 142.40 503.50 L 145.80 507.40 L 149.80 511.30 L 154.60 515.10 L 160.30 518.90 L 166.90 522.70 L 452.80 670.70 L 465.40 675.70 L 471.30 677.60 L 477.20 679.30 L 487.90 681.70 L 498.40 683.40 L 508.80 684.60 L 524.50 685.40 L 535.40 685.20 L 546.80 684.50 L 559.30 682.90 L 569.60 681.00 L 579.60 678.50 L 587.20 676.10 L 594.70 673.30 L 605.10 668.60 L 889.40 520.20 L 893.40 517.80 L 902.40 511.00 L 904.60 509.00 L 909.60 503.20 L 912.30 499.20 L 915.00 493.70 L 916.70 488.20 L 917.50 482.30 Z" fill="#5747db" fill-opacity="0.5" fill-rule="nonzero" group-id="1,9" node-id="399" stroke="none" target-height="230.20001" target-width="783.3" target-x="134.2" target-y="481.8"></path></g><g node-id="533"><path d="M 884.80 446.20 L 891.30 449.90 L 896.90 453.60 L 901.60 457.30 L 905.60 461.10 L 909.30 465.40 L 912.30 469.60 L 914.50 473.80 L 916.10 478.00 L 917.00 481.60 L 917.40 485.10 L 917.40 488.60 L 917.00 492.10 L 916.20 495.60 L 914.70 499.80 L 912.50 504.00 L 909.60 508.20 L 906.00 512.50 L 902.00 516.30 L 897.30 520.00 L 891.70 523.70 L 885.30 527.40 L 605.20 673.40 L 597.90 676.90 L 590.10 680.00 L 581.70 682.70 L 573.20 685.00 L 564.40 686.90 L 555.20 688.30 L 546.00 689.40 L 536.60 690.00 L 527.20 690.20 L 517.70 690.00 L 508.40 689.40 L 499.10 688.30 L 489.90 686.90 L 481.10 685.00 L 472.50 682.70 L 464.10 680.00 L 456.30 676.90 L 448.90 673.40 L 167.00 527.40 L 160.50 523.70 L 154.90 520.00 L 150.20 516.30 L 146.20 512.50 L 142.50 508.20 L 139.50 504.00 L 137.30 499.80 L 135.70 495.60 L 134.90 492.10 L 134.40 488.50 L 134.40 485.00 L 134.80 481.50 L 135.60 478.00 L 137.20 473.80 L 139.30 469.60 L 142.20 465.40 L 145.90 461.10 L 149.80 457.30 L 154.50 453.60 L 160.10 449.90 L 166.50 446.20 L 446.60 300.20 L 453.90 296.70 L 461.70 293.60 L 470.10 290.90 L 478.60 288.60 L 487.40 286.70 L 496.60 285.30 L 505.80 284.20 L 515.20 283.60 L 524.60 283.40 L 534.10 283.60 L 543.40 284.20 L 552.70 285.30 L 561.90 286.70 L 570.70 288.60 L 579.30 290.90 L 587.70 293.60 L 595.50 296.70 L 602.90 300.20 L 884.80 446.20 Z" fill="url(#SVGID_9_)" fill-rule="nonzero" group-id="1,10" node-id="404" stroke="none" target-height="406.80002" target-width="783" target-x="134.4" target-y="283.4"></path></g><g node-id="534"><path d="M 884.80 437.80 L 891.30 441.50 L 896.90 445.20 L 901.60 448.90 L 905.60 452.70 L 909.30 457.00 L 912.30 461.20 L 914.50 465.40 L 916.10 469.60 L 917.00 473.20 L 917.40 476.70 L 917.40 480.20 L 917.00 483.70 L 916.20 487.20 L 914.70 491.40 L 912.50 495.60 L 909.60 499.80 L 906.00 504.10 L 902.00 507.90 L 897.30 511.60 L 891.70 515.30 L 885.30 519.00 L 605.20 665.00 L 597.90 668.50 L 590.10 671.60 L 581.70 674.30 L 573.20 676.60 L 564.40 678.50 L 555.20 679.90 L 546.00 681.00 L 536.60 681.60 L 527.20 681.80 L 517.70 681.60 L 508.40 681.00 L 499.10 679.90 L 489.90 678.50 L 481.10 676.60 L 472.50 674.30 L 464.10 671.60 L 456.30 668.50 L 448.90 665.00 L 167.00 519.00 L 160.50 515.30 L 154.90 511.60 L 150.20 507.90 L 146.20 504.10 L 142.50 499.80 L 139.50 495.60 L 137.30 491.40 L 135.70 487.20 L 134.90 483.70 L 134.40 480.10 L 134.40 476.60 L 134.80 473.10 L 135.60 469.60 L 137.20 465.40 L 139.30 461.20 L 142.20 457.00 L 145.90 452.70 L 149.80 448.90 L 154.50 445.20 L 160.10 441.50 L 166.50 437.80 L 446.60 291.80 L 453.90 288.30 L 461.70 285.20 L 470.10 282.50 L 478.60 280.20 L 487.40 278.30 L 496.60 276.90 L 505.80 275.80 L 515.20 275.20 L 524.60 275.00 L 534.10 275.20 L 543.40 275.80 L 552.70 276.90 L 561.90 278.30 L 570.70 280.20 L 579.30 282.50 L 587.70 285.20 L 595.50 288.30 L 602.90 291.80 L 884.80 437.80 Z" fill="url(#SVGID_10_)" fill-rule="nonzero" group-id="1,11" node-id="409" stroke="none" target-height="406.8" target-width="783" target-x="134.4" target-y="275"></path></g><g node-id="535"><g node-id="544"><path d="M 828.60 476.30 L 827.30 469.60 L 824.40 463.10 L 821.70 459.10 L 818.40 455.20 L 814.30 451.30 L 810.40 448.20 L 805.80 445.20 L 800.60 442.30 L 747.80 414.80 L 597.90 337.10 L 582.10 329.20 L 570.20 324.70 L 557.50 321.40 L 542.20 319.00 L 533.40 318.30 L 524.50 318.10 L 515.60 318.40 L 505.90 319.20 L 496.60 320.60 L 487.50 322.50 L 480.70 324.40 L 468.30 329.00 L 462.50 331.80 L 250.80 442.30 L 245.30 445.40 L 240.60 448.60 L 236.50 451.90 L 232.60 455.80 L 229.40 459.70 L 226.80 463.80 L 224.20 470.20 L 223.50 473.50 L 223.00 478.30 L 223.30 482.40 L 224.20 486.40 L 225.60 490.40 L 227.70 494.30 L 230.30 498.20 L 233.30 501.60 L 236.80 505.00 L 240.90 508.30 L 245.70 511.50 L 251.20 514.60 L 464.10 624.90 L 470.00 627.70 L 476.30 630.20 L 483.00 632.40 L 496.90 635.70 L 511.70 637.60 L 526.70 638.30 L 541.80 637.60 L 556.50 635.60 L 570.40 632.30 L 577.10 630.10 L 583.40 627.70 L 589.20 624.90 L 801.00 514.60 L 806.40 511.50 L 811.10 508.30 L 815.20 505.00 L 818.70 501.70 L 821.60 498.30 L 824.20 494.40 L 826.20 490.50 L 827.60 486.60 L 828.40 482.70 L 828.60 476.30 Z M 801.90 498.80 L 793.90 503.70 L 582.40 614.00 L 577.10 616.50 L 565.40 620.70 L 552.90 623.70 L 539.50 625.40 L 532.80 625.80 L 519.30 625.70 L 506.30 624.40 L 493.70 622.10 L 481.90 618.60 L 471.30 614.00 L 258.40 503.70 L 253.20 500.80 L 248.90 497.80 L 245.40 494.80 L 242.30 491.30 L 240.00 488.00 L 238.40 484.60 L 237.50 481.40 L 237.20 478.30 L 237.50 475.00 L 238.50 471.60 L 240.20 468.30 L 242.60 464.90 L 245.30 462.00 L 248.80 459.00 L 253.00 456.10 L 258.00 453.20 L 472.80 341.10 L 483.50 337.00 L 491.20 334.80 L 499.40 333.00 L 507.80 331.80 L 516.30 331.10 L 525.00 330.80 L 539.10 331.50 L 546.80 332.50 L 554.40 333.80 L 561.90 335.60 L 569.00 337.80 L 580.60 342.70 L 734.00 422.10 L 798.00 455.60 L 804.90 460.60 L 810.00 465.90 L 811.90 468.70 L 813.40 471.50 L 814.80 476.40 L 814.70 481.20 L 814.00 484.00 L 812.70 487.00 L 810.90 489.90 L 808.60 492.90 L 805.60 495.80 L 801.90 498.80 Z" fill="url(#SVGID_11_)" fill-opacity="0.5" fill-rule="nonzero" group-id="1,12,21" node-id="416" stroke="none" target-height="320.19998" target-width="605.6" target-x="223" target-y="318.1"></path></g></g><path d="M 814.70 369.20 L 814.10 477.30 L 813.60 481.10 L 812.10 485.70 L 809.90 489.90 L 806.70 494.30 L 805.10 496.00 L 801.60 499.30 L 798.60 501.60 L 790.30 506.90 L 583.80 614.10 L 573.80 618.50 L 566.00 621.20 L 557.70 623.30 L 550.60 624.60 L 540.10 625.90 L 525.90 626.40 L 525.90 519.00 L 541.40 518.40 L 550.70 517.20 L 558.40 515.80 L 565.80 513.90 L 574.50 511.00 L 584.50 506.60 L 794.10 397.10 L 801.80 391.80 L 805.30 388.80 L 808.00 385.70 L 811.00 381.50 L 813.00 377.40 L 814.20 373.30 L 814.70 369.20 Z" fill="url(#SVGID_12_)" fill-rule="nonzero" group-id="1" node-id="420" stroke="none" target-height="257.2" target-width="288.8" target-x="525.9" target-y="369.2"></path><path d="M 525.80 519.00 L 525.80 626.40 L 514.50 626.00 L 506.60 625.20 L 498.40 623.90 L 489.30 621.90 L 480.20 619.20 L 474.40 617.00 L 468.40 614.20 L 260.50 506.30 L 251.40 500.70 L 247.90 497.90 L 242.40 492.20 L 240.20 488.90 L 238.50 485.70 L 237.40 482.50 L 236.70 479.30 L 236.50 476.10 L 237.10 368.70 L 237.50 372.80 L 238.60 376.90 L 241.20 382.10 L 243.10 384.80 L 247.70 389.70 L 250.60 392.20 L 257.20 396.80 L 261.20 399.00 L 469.10 506.70 L 475.00 509.50 L 485.50 513.30 L 497.80 516.30 L 509.10 518.10 L 517.00 518.80 L 525.80 519.10 Z" fill="url(#SVGID_13_)" fill-rule="nonzero" group-id="1" node-id="422" stroke="none" target-height="257.7" target-width="289.3" target-x="236.5" target-y="368.7"></path><g node-id="536"><path d="M 814.70 371.80 L 814.60 396.50 L 814.30 399.40 L 813.40 402.20 L 811.90 404.80 L 807.90 409.70 L 801.50 414.90 L 797.70 417.40 L 791.00 421.10 L 584.40 528.80 L 578.90 531.40 L 573.00 533.70 L 566.80 535.80 L 553.70 538.80 L 539.90 540.60 L 525.90 541.20 L 512.20 540.50 L 498.80 538.60 L 486.20 535.60 L 474.40 531.30 L 469.10 528.80 L 249.90 415.20 L 243.60 410.90 L 240.90 408.30 L 238.80 405.60 L 237.80 403.60 L 237.10 401.60 L 236.90 399.40 L 237.00 371.40 L 237.40 375.50 L 238.50 379.60 L 241.10 384.80 L 243.00 387.50 L 247.60 392.40 L 250.50 394.90 L 257.10 399.50 L 261.10 401.70 L 469.00 509.40 L 474.90 512.20 L 485.40 516.00 L 497.70 519.00 L 509.00 520.80 L 524.70 521.80 L 541.10 521.20 L 550.40 520.00 L 558.10 518.60 L 565.50 516.70 L 574.20 513.80 L 584.20 509.40 L 794.10 399.70 L 801.80 394.40 L 805.30 391.40 L 808.00 388.30 L 811.00 384.10 L 813.00 380.00 L 814.20 375.90 L 814.70 371.80 Z" fill="#5747db" fill-opacity="0.5" fill-rule="nonzero" group-id="1,13" node-id="426" stroke="none" target-height="169.80002" target-width="577.80005" target-x="236.9" target-y="371.4"></path></g><g node-id="537"><path d="M 790.60 345.10 L 799.60 350.70 L 806.20 356.30 L 808.60 359.10 L 810.90 362.40 L 812.60 365.60 L 813.70 368.80 L 814.40 371.90 L 814.70 375.10 L 814.50 378.30 L 813.80 381.40 L 812.70 384.60 L 811.00 387.80 L 808.80 391.00 L 803.40 396.70 L 795.80 402.20 L 791.00 405.00 L 584.40 512.80 L 577.90 515.80 L 570.90 518.50 L 563.30 520.70 L 555.60 522.50 L 547.60 523.80 L 539.30 524.70 L 531.00 525.20 L 522.70 525.20 L 514.30 524.70 L 506.00 523.80 L 498.00 522.50 L 490.30 520.80 L 482.70 518.50 L 475.60 515.90 L 469.10 512.80 L 261.10 405.10 L 256.20 402.30 L 248.50 396.70 L 243.10 391.10 L 240.80 387.80 L 239.10 384.60 L 238.00 381.40 L 237.30 378.30 L 237.00 375.10 L 237.20 371.90 L 237.90 368.80 L 239.00 365.60 L 240.70 362.40 L 242.90 359.20 L 245.30 356.30 L 251.80 350.70 L 260.70 345.20 L 467.30 237.50 L 473.80 234.40 L 480.90 231.80 L 488.40 229.50 L 496.20 227.80 L 504.20 226.40 L 512.40 225.50 L 520.80 225.10 L 529.10 225.10 L 537.40 225.50 L 545.70 226.40 L 553.70 227.80 L 561.40 229.50 L 569.00 231.80 L 576.10 234.40 L 582.60 237.50 L 790.60 345.10 Z" fill="url(#SVGID_14_)" fill-rule="nonzero" group-id="1,14" node-id="431" stroke="none" target-height="300.1" target-width="577.7" target-x="237" target-y="225.1"></path></g><g node-id="538"><path d="M 790.60 339.00 L 799.60 344.60 L 803.20 347.40 L 808.60 353.00 L 810.90 356.30 L 812.60 359.50 L 813.70 362.70 L 814.40 365.80 L 814.70 369.00 L 814.50 372.20 L 813.80 375.30 L 812.70 378.50 L 811.00 381.70 L 808.80 384.90 L 803.40 390.60 L 799.90 393.40 L 791.00 398.90 L 584.40 506.60 L 577.90 509.60 L 570.90 512.30 L 563.30 514.50 L 555.60 516.30 L 547.60 517.60 L 539.30 518.50 L 531.00 519.00 L 522.70 519.00 L 514.30 518.50 L 506.00 517.60 L 498.00 516.30 L 490.30 514.60 L 482.70 512.30 L 475.60 509.70 L 469.10 506.60 L 261.10 398.90 L 256.20 396.10 L 248.50 390.50 L 243.10 384.90 L 240.80 381.60 L 239.10 378.40 L 238.00 375.20 L 237.30 372.10 L 237.00 368.90 L 237.20 365.70 L 237.90 362.60 L 239.00 359.40 L 240.70 356.20 L 242.90 353.00 L 245.30 350.10 L 251.80 344.50 L 260.70 339.00 L 467.30 231.30 L 473.80 228.20 L 480.90 225.60 L 488.40 223.30 L 496.20 221.60 L 504.20 220.20 L 512.40 219.30 L 520.80 218.90 L 529.10 218.90 L 537.40 219.30 L 545.70 220.20 L 553.70 221.60 L 561.40 223.30 L 569.00 225.60 L 576.10 228.20 L 582.60 231.30 L 790.60 339.00 Z" fill="url(#SVGID_15_)" fill-rule="nonzero" group-id="1,15" node-id="436" stroke="none" target-height="300.1" target-width="577.7" target-x="237" target-y="218.9"></path></g><g node-id="539"><path d="M 878.10 298.80 L 877.40 430.40 L 876.60 435.60 L 875.00 440.70 L 872.30 445.80 L 868.40 451.10 L 861.60 457.60 L 855.70 461.80 L 848.40 466.10 L 596.50 597.40 L 587.10 601.60 L 580.50 604.10 L 574.70 606.00 L 564.60 608.60 L 555.30 610.30 L 543.20 611.80 L 532.20 612.50 L 525.90 612.50 L 525.90 481.50 L 534.50 481.30 L 544.70 480.60 L 556.00 479.20 L 565.30 477.50 L 574.30 475.20 L 581.00 473.00 L 587.70 470.50 L 597.10 466.30 L 849.20 335.00 L 856.60 330.70 L 862.40 326.40 L 866.60 322.70 L 872.10 315.90 L 875.90 309.00 L 877.40 304.00 L 878.10 298.80 Z" fill="url(#SVGID_16_)" fill-rule="nonzero" group-id="1,16" node-id="441" stroke="none" target-height="313.7" target-width="352.19995" target-x="525.9" target-y="298.8"></path><path d="M 525.90 481.50 L 525.90 612.40 L 512.20 612.00 L 500.50 610.80 L 488.10 608.60 L 476.20 605.50 L 468.10 602.70 L 456.00 597.40 L 202.40 466.00 L 196.00 462.40 L 190.60 458.70 L 186.10 454.90 L 180.20 448.60 L 176.30 442.40 L 174.90 439.10 L 173.90 435.80 L 173.30 432.50 L 173.10 429.20 L 173.80 298.20 L 174.20 303.20 L 175.60 308.20 L 177.00 311.40 L 178.80 314.60 L 181.10 317.80 L 186.70 323.90 L 190.30 326.90 L 198.30 332.40 L 203.20 335.10 L 460.30 468.20 L 471.50 472.70 L 476.80 474.40 L 491.80 478.10 L 510.60 480.70 L 525.90 481.40 Z" fill="url(#SVGID_17_)" fill-rule="nonzero" group-id="1,16" node-id="443" stroke="none" target-height="314.2" target-width="352.80002" target-x="173.1" target-y="298.2"></path><g node-id="545"><path d="M 878.10 302.00 L 878.00 332.10 L 877.70 334.90 L 877.00 337.70 L 874.30 342.80 L 870.30 347.60 L 863.10 353.70 L 855.50 358.60 L 597.30 493.50 L 590.60 496.70 L 583.40 499.50 L 575.80 502.00 L 568.00 504.00 L 559.90 505.70 L 551.50 507.00 L 543.10 507.90 L 525.90 508.60 L 509.20 507.80 L 492.90 505.50 L 477.60 501.80 L 470.10 499.30 L 463.20 496.60 L 456.70 493.50 L 189.50 355.00 L 185.60 352.40 L 179.60 347.60 L 176.00 343.20 L 174.80 340.80 L 174.00 338.30 L 173.70 335.60 L 173.80 301.40 L 174.20 306.40 L 175.60 311.40 L 177.00 314.60 L 178.80 317.80 L 181.10 321.00 L 186.70 327.10 L 190.30 330.10 L 198.30 335.60 L 203.20 338.30 L 460.30 471.40 L 471.50 475.90 L 476.80 477.60 L 491.80 481.30 L 505.60 483.40 L 524.70 484.60 L 534.40 484.40 L 544.60 483.70 L 555.90 482.30 L 565.20 480.60 L 574.20 478.30 L 580.90 476.10 L 587.60 473.60 L 597.00 469.40 L 848.90 338.00 L 856.30 333.70 L 864.30 327.60 L 866.30 325.70 L 870.70 320.50 L 873.10 316.90 L 875.60 312.00 L 877.10 307.00 L 878.10 302.00 Z" fill="#5747db" fill-opacity="0.5" fill-rule="nonzero" group-id="1,16,22" node-id="447" stroke="none" target-height="207.20001" target-width="704.39996" target-x="173.7" target-y="301.4"></path></g><g node-id="546"><path d="M 848.70 269.50 L 854.60 272.90 L 859.70 276.30 L 864.00 279.70 L 867.70 283.10 L 870.70 286.60 L 873.40 290.60 L 875.50 294.50 L 876.90 298.30 L 877.80 302.20 L 878.10 306.10 L 877.80 309.90 L 877.00 313.80 L 875.60 317.60 L 873.60 321.50 L 870.90 325.50 L 868.00 329.00 L 864.40 332.40 L 860.10 335.80 L 855.10 339.20 L 849.20 342.60 L 597.20 473.90 L 585.10 479.30 L 578.50 481.60 L 571.50 483.60 L 562.10 485.70 L 552.30 487.40 L 542.20 488.40 L 532.10 489.00 L 521.90 489.00 L 511.80 488.40 L 501.70 487.40 L 491.90 485.70 L 482.50 483.60 L 475.50 481.60 L 462.50 476.70 L 456.60 473.90 L 203.10 342.60 L 197.20 339.20 L 192.10 335.80 L 187.80 332.40 L 184.10 329.00 L 181.10 325.50 L 178.40 321.50 L 176.30 317.60 L 174.90 313.80 L 174.00 309.90 L 173.80 306.10 L 174.00 302.20 L 174.80 298.30 L 176.20 294.50 L 178.20 290.60 L 180.90 286.60 L 183.90 283.10 L 187.40 279.70 L 191.70 276.30 L 196.70 272.90 L 202.60 269.50 L 454.50 138.10 L 466.60 132.70 L 473.20 130.40 L 480.20 128.40 L 489.60 126.30 L 499.40 124.60 L 509.50 123.60 L 519.60 123.00 L 529.80 123.00 L 539.90 123.60 L 550.00 124.60 L 559.80 126.30 L 569.20 128.40 L 576.20 130.40 L 589.20 135.30 L 595.10 138.10 L 848.70 269.50 Z" fill="url(#SVGID_18_)" fill-rule="nonzero" group-id="1,16,23" node-id="452" stroke="none" target-height="366" target-width="704.3" target-x="173.8" target-y="123"></path></g><g node-id="547"><path d="M 878.10 298.90 L 877.50 304.30 L 875.50 310.50 L 873.50 314.40 L 870.80 318.30 L 867.30 322.20 L 863.80 325.50 L 860.50 328.10 L 853.10 332.90 L 807.00 357.20 L 597.20 466.40 L 586.20 471.40 L 581.10 473.20 L 575.10 475.20 L 564.30 477.90 L 555.30 479.50 L 545.90 480.70 L 537.90 481.30 L 525.90 481.60 L 517.80 481.40 L 507.80 480.60 L 491.70 478.20 L 483.60 476.40 L 471.60 472.80 L 460.40 468.30 L 241.50 355.00 L 203.10 335.00 L 196.70 331.40 L 191.30 327.70 L 186.70 323.90 L 181.00 317.80 L 179.30 315.50 L 176.60 310.70 L 174.60 305.00 L 173.70 298.30 L 174.00 294.50 L 174.80 290.60 L 176.20 286.80 L 178.20 282.90 L 180.90 279.00 L 183.90 275.50 L 187.40 272.10 L 191.70 268.70 L 196.70 265.30 L 202.60 262.00 L 454.50 130.70 L 466.60 125.30 L 473.20 123.00 L 480.20 121.00 L 489.60 118.80 L 499.40 117.20 L 509.50 116.10 L 519.60 115.50 L 529.80 115.50 L 539.90 116.10 L 550.00 117.20 L 559.80 118.80 L 569.20 121.00 L 576.20 123.00 L 589.20 127.90 L 848.70 262.00 L 854.70 265.40 L 859.80 268.80 L 864.10 272.20 L 867.80 275.70 L 870.80 279.20 L 873.50 283.20 L 875.60 287.20 L 877.00 291.10 L 877.80 295.00 L 878.10 298.90 Z" fill="url(#SVGID_19_)" fill-rule="nonzero" group-id="1,16,24" node-id="457" stroke="none" target-height="366.1" target-width="704.39996" target-x="173.7" target-y="115.5"></path></g><path d="M 772.90 266.00 L 581.30 166.80 L 574.80 163.80 L 567.90 161.10 L 560.40 158.90 L 552.90 157.20 L 545.10 155.90 L 537.00 155.00 L 529.00 154.60 L 520.90 154.60 L 512.80 155.00 L 504.80 155.90 L 497.00 157.20 L 489.50 158.90 L 482.10 161.10 L 475.20 163.80 L 468.70 166.80 L 292.80 258.60 L 278.40 266.20 L 273.50 269.00 L 269.30 271.80 L 265.60 274.80 L 262.50 277.80 L 259.90 280.90 L 257.50 284.30 L 255.70 287.80 L 254.40 291.30 L 253.70 294.90 L 253.40 298.60 L 253.70 302.20 L 254.40 305.70 L 255.60 309.10 L 257.40 312.50 L 259.60 315.90 L 262.80 319.70 L 266.80 323.30 L 271.60 326.90 L 277.30 330.40 L 475.60 432.90 L 487.30 437.10 L 499.80 440.10 L 506.40 441.20 L 519.80 442.40 L 526.60 442.50 L 533.40 442.30 L 546.80 441.10 L 553.40 440.10 L 565.90 437.10 L 571.90 435.10 L 582.80 430.40 L 773.20 331.20 L 779.90 327.20 L 784.70 323.60 L 788.70 320.00 L 792.00 316.20 L 794.20 312.80 L 796.00 309.40 L 797.20 305.90 L 797.90 302.40 L 798.20 298.80 L 797.90 295.10 L 797.20 291.40 L 795.90 287.80 L 794.10 284.30 L 791.70 280.80 L 789.00 277.70 L 785.80 274.60 L 782.10 271.70 L 777.80 268.80 L 772.90 266.00 Z M 767.00 321.20 L 576.60 420.50 L 571.00 423.10 L 564.90 425.40 L 558.30 427.30 L 551.70 428.80 L 544.80 430.00 L 530.40 431.10 L 516.00 430.70 L 508.80 429.90 L 501.80 428.80 L 495.10 427.30 L 488.60 425.30 L 482.50 423.00 L 476.80 420.40 L 290.10 323.70 L 280.70 318.60 L 276.90 315.90 L 273.70 313.30 L 271.20 310.60 L 269.00 307.50 L 267.50 304.50 L 266.60 301.50 L 266.30 298.40 L 266.60 295.40 L 267.50 292.40 L 268.90 289.40 L 271.10 286.40 L 273.60 283.70 L 276.70 281.10 L 280.50 278.40 L 305.60 265.00 L 457.40 185.80 L 480.00 174.30 L 490.30 170.60 L 501.40 167.90 L 507.30 167.00 L 516.20 166.10 L 525.20 165.80 L 534.30 166.10 L 543.20 167.00 L 554.70 169.10 L 565.50 172.40 L 570.50 174.40 L 766.70 275.80 L 771.30 278.40 L 775.10 281.10 L 778.30 283.70 L 780.80 286.40 L 783.10 289.50 L 784.60 292.50 L 785.50 295.50 L 785.80 298.60 L 785.40 301.60 L 784.50 304.60 L 783.00 307.60 L 780.80 310.70 L 778.30 313.30 L 775.20 316.00 L 771.50 318.60 L 767.00 321.20 Z" fill="#ffffff" fill-opacity="0.5" fill-rule="nonzero" group-id="1,16,25,26" node-id="464" stroke="none" target-height="287.9" target-width="544.80005" target-x="253.4" target-y="154.6"></path></g><path d="M 372.80 366.20 L 650.80 216.00 L 631.50 206.00 L 352.80 355.90 Z" fill="url(#SVGID_20_)" fill-rule="nonzero" group-id="1" node-id="469" stroke="none" target-height="160.20001" target-width="298" target-x="352.8" target-y="206"></path><path d="M 420.70 390.80 L 698.70 240.50 L 679.40 230.50 L 400.70 380.40 Z" fill="url(#SVGID_21_)" fill-rule="nonzero" group-id="1" node-id="471" stroke="none" target-height="160.29999" target-width="298" target-x="400.7" target-y="230.5"></path></g><path d="M 609.80 560.90 L 676.80 525.30 L 676.80 498.40 L 609.80 534.00 Z" fill="#ffffff" fill-rule="nonzero" node-id="474" stroke="none" target-height="62.50003" target-width="67" target-x="609.8" target-y="498.4"></path><path d="M 688.20 522.30 L 709.10 511.00 L 709.10 484.10 L 688.20 495.40 Z" fill="url(#SVGID_22_)" fill-rule="nonzero" node-id="476" stroke="none" target-height="38.19998" target-width="20.899963" target-x="688.2" target-y="484.1"></path><path d="M 868.90 620.20 L 868.90 695.40 L 614.30 830.40 L 614.30 755.20 L 832.40 639.60 Z" fill="url(#SVGID_23_)" fill-rule="nonzero" node-id="478" stroke="none" target-height="210.20001" target-width="254.60004" target-x="614.3" target-y="620.2"></path><g node-id="525"><path d="M 814.70 363.40 L 814.70 407.40 L 645.90 497.10 L 645.90 529.40 L 640.70 529.90 L 640.70 494.20 L 809.50 404.50 L 809.50 366.20 Z" fill="#ffffff" fill-opacity="0.5" fill-rule="nonzero" group-id="2" node-id="482" stroke="none" target-height="166.50003" target-width="174" target-x="640.7" target-y="363.4"></path></g><path d="M 868.90 620.20 L 868.90 695.40 L 832.40 639.60 Z" fill="url(#SVGID_24_)" fill-rule="nonzero" node-id="485" stroke="none" target-height="75.20001" target-width="36.5" target-x="832.4" target-y="620.2"></path><g node-id="526"><path d="M 576.80 206.00 L 372.00 308.10 L 242.10 241.40 L 250.80 236.90 L 372.00 299.10 L 559.00 206.00 L 526.00 189.30 L 486.80 210.60 L 444.90 188.30 L 392.70 162.90 L 401.60 158.30 L 448.60 181.20 L 486.70 201.40 L 525.90 180.30 Z" fill="url(#SVGID_25_)" fill-rule="nonzero" group-id="3" node-id="489" stroke="none" target-height="149.8" target-width="334.69998" target-x="242.1" target-y="158.3"></path></g><g node-id="527"><path d="M 780.30 226.60 L 516.70 373.30 L 568.20 395.30 L 650.80 348.30 L 735.00 394.50 L 743.50 390.10 L 650.70 339.20 L 567.70 386.30 L 534.90 372.40 L 788.80 231.00 Z" fill="url(#SVGID_26_)" fill-rule="nonzero" group-id="4" node-id="494" stroke="none" target-height="168.69998" target-width="272.09998" target-x="516.7" target-y="226.6"></path></g><g node-id="528"><g node-id="540"><path d="M 589.10 380.50 L 589.00 383.10 L 588.50 385.70 L 587.50 388.20 L 586.10 390.70 L 583.70 393.70 L 580.60 396.50 L 576.80 399.30 L 572.70 401.70 L 568.00 403.80 L 562.70 405.60 L 557.20 407.00 L 551.40 408.00 L 545.10 408.60 L 538.80 408.60 L 532.90 408.30 L 527.30 407.50 L 521.80 406.30 L 516.90 404.70 L 512.50 402.80 L 508.40 400.50 L 505.10 397.90 L 502.40 395.20 L 500.70 392.90 L 499.40 390.50 L 498.60 388.00 L 498.30 385.50 L 498.40 382.90 L 498.90 380.30 L 499.80 377.80 L 501.30 375.30 L 503.70 372.30 L 506.70 369.40 L 510.60 366.70 L 514.70 364.30 L 519.40 362.20 L 524.70 360.40 L 530.20 359.00 L 536.00 358.00 L 542.30 357.40 L 548.60 357.30 L 554.50 357.70 L 560.10 358.50 L 565.60 359.70 L 570.50 361.30 L 574.80 363.20 L 578.90 365.50 L 582.30 368.00 L 585.00 370.80 L 586.70 373.10 L 587.90 375.50 L 588.70 377.90 L 589.10 380.50 Z" fill="#5747db" fill-rule="nonzero" group-id="5,17" node-id="501" stroke="none" target-height="51.30002" target-width="90.79999" target-x="498.3" target-y="357.3"></path></g><path d="M 507.50 369.50 L 506.40 385.50 L 507.60 389.60 L 508.70 391.50 L 510.60 393.80 L 513.00 396.00 L 516.10 398.10 L 523.20 401.20 L 531.90 403.20 L 541.80 403.90 L 551.70 403.00 L 560.80 400.70 L 568.40 397.40 L 571.80 395.30 L 574.60 393.00 L 576.90 390.70 L 578.70 388.00 L 579.80 385.30 L 580.40 382.50 L 581.50 368.60 L 507.50 369.50 Z" fill="url(#SVGID_27_)" fill-rule="nonzero" group-id="5" node-id="504" stroke="none" target-height="35.299988" target-width="75.100006" target-x="506.4" target-y="368.6"></path><path d="M 581.60 368.60 L 581.00 371.40 L 579.90 374.10 L 578.10 376.80 L 575.80 379.20 L 573.00 381.40 L 569.60 383.60 L 562.00 386.90 L 557.50 388.20 L 548.10 389.70 L 543.00 390.00 L 537.90 389.90 L 528.70 388.60 L 524.40 387.40 L 520.60 385.90 L 517.30 384.20 L 514.20 382.20 L 511.80 380.00 L 509.90 377.60 L 508.80 375.70 L 507.60 371.60 L 507.60 369.50 L 508.20 366.70 L 509.30 364.00 L 511.10 361.30 L 513.40 358.90 L 516.20 356.70 L 519.60 354.50 L 527.20 351.20 L 531.70 349.90 L 541.10 348.40 L 546.20 348.10 L 551.30 348.30 L 560.50 349.60 L 564.80 350.80 L 571.90 353.90 L 575.00 356.00 L 577.40 358.20 L 579.30 360.50 L 581.20 364.40 L 581.60 368.60 Z" fill="url(#SVGID_28_)" fill-rule="nonzero" group-id="5" node-id="506" stroke="none" target-height="41.899994" target-width="73.99997" target-x="507.6" target-y="348.1"></path><path d="M 580.70 366.70 L 580.10 369.50 L 579.00 372.20 L 577.20 374.90 L 574.90 377.30 L 572.10 379.50 L 568.70 381.70 L 561.10 385.00 L 556.60 386.30 L 547.20 387.80 L 542.10 388.10 L 537.00 388.00 L 527.80 386.70 L 523.50 385.50 L 516.40 382.30 L 513.30 380.30 L 510.90 378.10 L 509.00 375.70 L 507.10 371.80 L 506.70 367.60 L 507.30 364.80 L 508.40 362.10 L 510.20 359.40 L 512.50 357.00 L 515.30 354.80 L 518.70 352.60 L 526.30 349.30 L 530.80 348.00 L 540.20 346.50 L 545.30 346.20 L 550.40 346.30 L 559.60 347.60 L 563.90 348.80 L 567.70 350.30 L 571.00 352.00 L 574.10 354.00 L 576.50 356.20 L 578.40 358.60 L 580.30 362.50 L 580.70 366.70 Z" fill="url(#SVGID_29_)" fill-rule="nonzero" group-id="5" node-id="508" stroke="none" target-height="41.899994" target-width="74" target-x="506.7" target-y="346.2"></path></g><g node-id="529"><g node-id="541"><path d="M 404.90 291.20 L 404.80 293.80 L 404.30 296.40 L 403.30 298.90 L 401.90 301.40 L 399.50 304.40 L 396.40 307.20 L 392.60 310.00 L 388.50 312.40 L 383.80 314.50 L 378.50 316.30 L 373.00 317.70 L 367.20 318.70 L 360.90 319.30 L 354.60 319.40 L 348.70 319.00 L 343.10 318.20 L 337.60 317.00 L 332.70 315.40 L 328.40 313.50 L 324.20 311.20 L 320.90 308.60 L 318.20 305.90 L 316.50 303.60 L 315.20 301.20 L 314.40 298.70 L 314.10 296.20 L 314.20 293.60 L 314.70 291.00 L 315.70 288.50 L 317.10 286.00 L 319.50 283.00 L 322.50 280.10 L 326.40 277.40 L 330.50 275.00 L 335.20 272.90 L 340.50 271.10 L 346.00 269.70 L 351.80 268.70 L 358.10 268.10 L 364.40 268.00 L 370.30 268.40 L 375.90 269.20 L 381.40 270.40 L 386.30 272.00 L 390.60 273.90 L 394.80 276.20 L 398.10 278.70 L 400.80 281.50 L 402.50 283.80 L 403.70 286.20 L 404.50 288.60 L 404.90 291.20 Z" fill="#5747db" fill-rule="nonzero" group-id="6,18" node-id="515" stroke="none" target-height="51.399994" target-width="90.79999" target-x="314.1" target-y="268"></path></g><path d="M 323.40 280.30 L 322.30 296.30 L 323.50 300.40 L 324.60 302.30 L 326.50 304.60 L 328.90 306.80 L 332.00 308.90 L 339.10 312.00 L 347.80 314.00 L 357.70 314.70 L 367.60 313.80 L 376.70 311.50 L 384.30 308.20 L 387.70 306.10 L 390.50 303.80 L 392.80 301.50 L 394.60 298.80 L 395.70 296.10 L 396.30 293.30 L 397.40 279.40 L 323.40 280.30 Z" fill="url(#SVGID_30_)" fill-rule="nonzero" group-id="6" node-id="518" stroke="none" target-height="35.30002" target-width="75.100006" target-x="322.3" target-y="279.4"></path><path d="M 397.40 279.30 L 396.80 282.10 L 395.70 284.80 L 393.90 287.50 L 391.60 289.90 L 388.80 292.10 L 385.40 294.30 L 377.80 297.60 L 373.30 298.90 L 363.90 300.40 L 358.80 300.70 L 353.70 300.60 L 344.50 299.30 L 340.20 298.10 L 336.40 296.60 L 333.10 294.90 L 330.00 292.90 L 327.60 290.70 L 325.70 288.30 L 324.60 286.40 L 323.40 282.30 L 323.40 280.20 L 324.00 277.40 L 325.10 274.70 L 326.90 272.00 L 329.20 269.60 L 332.00 267.40 L 335.40 265.20 L 343.00 261.90 L 347.50 260.60 L 356.90 259.10 L 362.00 258.80 L 367.10 259.00 L 376.30 260.30 L 380.60 261.50 L 387.70 264.70 L 390.80 266.70 L 393.20 268.90 L 395.10 271.20 L 396.50 273.80 L 397.30 276.50 L 397.40 279.30 Z" fill="url(#SVGID_31_)" fill-rule="nonzero" group-id="6" node-id="520" stroke="none" target-height="41.900024" target-width="74" target-x="323.4" target-y="258.8"></path><path d="M 396.50 277.40 L 395.90 280.20 L 394.80 282.90 L 393.00 285.60 L 390.70 288.00 L 387.90 290.20 L 384.50 292.40 L 376.90 295.70 L 372.40 297.00 L 363.00 298.50 L 357.90 298.80 L 352.80 298.70 L 343.60 297.40 L 339.30 296.20 L 335.50 294.70 L 332.20 293.00 L 329.10 291.00 L 326.70 288.80 L 324.80 286.40 L 323.70 284.50 L 322.50 280.40 L 322.50 278.30 L 323.10 275.50 L 324.20 272.80 L 326.00 270.10 L 328.30 267.70 L 331.10 265.50 L 334.50 263.30 L 342.10 260.00 L 346.60 258.70 L 356.00 257.20 L 361.10 256.90 L 366.20 257.00 L 375.40 258.30 L 379.70 259.60 L 383.50 261.00 L 386.80 262.70 L 389.90 264.70 L 392.30 266.90 L 394.20 269.30 L 395.60 271.90 L 396.40 274.60 L 396.50 277.40 Z" fill="url(#SVGID_32_)" fill-rule="nonzero" group-id="6" node-id="522" stroke="none" target-height="41.899994" target-width="74" target-x="322.5" target-y="256.9"></path></g></svg>