<?xml version="1.0" standalone="no"?><!DOCTYPE svg PUBLIC "-//W3C//DTD SVG 1.1//EN" "http://www.w3.org/Graphics/SVG/1.1/DTD/svg11.dtd"><svg t="1728627759669" class="icon" viewBox="0 0 1024 1024" version="1.1" xmlns="http://www.w3.org/2000/svg" p-id="18897" xmlns:xlink="http://www.w3.org/1999/xlink" width="200" height="200"><path d="M510.3616 90.4704c-232.0896 0-420.864 188.8256-420.864 420.864 0 232.0896 188.8256 420.864 420.864 420.864s420.864-188.8256 420.864-420.864-188.7744-420.864-420.864-420.864z m0 800.8192c-209.5104 0-379.904-170.4448-379.904-379.904 0-209.5104 170.4448-379.904 379.904-379.904 209.5104 0 379.904 170.4448 379.904 379.904 0 209.4592-170.4448 379.904-379.904 379.904z" fill="#07ba13" p-id="18898"></path><path d="M259.4816 439.8592l422.5024-103.5776c20.4288-5.0176 37.5296 15.9744 28.4672 34.9696L522.24 766.4128c-9.728 20.3776-39.3728 18.432-46.2848-3.072l-48.0256-149.4016a25.06752 25.06752 0 0 1 5.2224-24.3712l82.1248-91.0336c5.0176-5.5808-1.6896-13.9264-8.192-10.0864l-108.9536 63.488a24.9856 24.9856 0 0 1-24.6272 0.3072L253.3888 485.9392c-19.9168-11.008-15.9744-40.704 6.0928-46.08z" fill="#07ba13" p-id="18899"></path></svg>