<svg xmlns="http://www.w3.org/2000/svg" fill="none" viewBox="0 0 1024 1024" height="1024" width="1024">
<rect fill="#2F3136" height="1024" width="1024"></rect>
<path fill="#FEFEFD" d="M398.496 101.169C459.475 88.6764 522.693 86.6574 584.397 95.1433C620.265 100.885 656.511 110.916 686.543 132.147C702.695 144.45 716.922 159.686 726.67 177.605C732.033 187.51 734.241 198.709 738.626 209.056C763.61 209.813 789.415 222.684 800.172 246.154C811.844 271.801 810.519 302.811 798.942 328.3C790.866 346.786 775.345 360.445 759.951 372.843C764.273 382.055 767.837 391.613 771.402 401.14C782.822 398.174 793.421 391.613 805.598 392.339C814.178 391.266 822.822 395.367 831.119 394.862C847.649 382.244 863.169 366.408 884.368 361.96C901.151 359.499 922.066 359.247 933.17 374.484C946.861 393.537 941.751 419.31 933.391 439.563C945.883 456.913 955.505 478.018 950.773 499.911C944.527 530.857 917.302 549.974 897.933 572.656C881.908 588.713 869.668 608.776 864.81 631.11C859.005 656.41 857.744 682.562 857.744 708.461C868.154 714.392 879.857 719.786 886.198 730.607C898.816 751.395 897.523 780.513 881.435 799.156C872.16 810.197 857.302 814.267 843.422 815.055C788.531 812.973 734.02 831.333 688.499 861.365C669.13 873.542 658.404 894.961 640.139 908.463C623.009 921.302 603.829 934.962 581.306 933.7C560.075 934.867 543.356 919.662 524.176 913.258C490.295 899.378 453.418 897.895 417.392 895.719C399.727 896.003 381.777 893.195 366.319 884.299C344.71 871.933 318.78 871.144 294.678 873.889C273.385 877.864 252.596 893.479 230.451 884.772C206.57 876.002 197.895 846.854 203.037 823.857C205.845 810.039 213.826 798.02 224.11 788.62C188.021 765.181 154.33 731.08 146.822 687.105C127.863 682.941 107.516 679.628 92.3737 666.41C73.3514 650.637 66.916 622.12 76.1906 599.407C81.3957 585.179 92.7207 574.485 104.55 565.558C95.9699 548.586 85.9383 531.93 82.7206 512.844C80.0077 491.551 76.3166 469.405 83.5407 448.554C92.1212 422.118 123.163 406.818 149.661 413.853C170.513 419.784 187.296 435.998 197.895 454.484C208.084 452.749 213.857 442.686 220.514 435.714C219.63 399.91 225.971 363.19 242.785 331.202C231.176 314.136 220.798 295.682 217.359 275.082C214.741 253.851 215.245 231.485 224.646 211.895C234.299 188.015 259 171.232 284.899 172.053C297.707 174.071 299.946 159.434 305.94 151.674C326.54 120.885 364.048 108.74 398.496 101.169ZM433.26 133.472C402.724 137.636 370.673 143.283 345.31 162.052C328.843 174.04 321.272 194.86 321.619 214.766C304.931 212.968 286.571 205.491 270.766 214.167C256.224 225.176 253.29 245.713 255.656 262.716C259.978 286.186 273.385 308.426 293.763 321.265C276.161 345.619 264.016 374.515 261.05 404.515C258.842 423.159 267.423 445.147 252.754 460.415C230.892 486.283 219.378 519.564 217.643 553.129C220.671 560.542 227.391 565.369 232.88 570.858C230.072 582.687 230.64 594.864 229.788 606.915C232.943 610.29 236.571 613.287 240.64 615.653C241.807 621.394 243.479 627.01 245.656 632.562C248.779 634.044 251.87 635.748 255.151 637.199C257.296 647.23 268.432 648.429 276.918 648.745C278.685 685.054 289.095 721.9 313.827 749.471C289.915 735.78 268.306 718.241 248.211 699.502C232.217 685.023 222.28 665.527 213.668 646.095C193.668 603.255 198.841 553.507 178.999 510.636C169.977 491.898 160.545 473.065 147.485 456.787C140.355 447.702 123.699 449.342 120.071 460.825C118.021 490.888 125.466 521.74 140.702 547.766C155.308 574.58 159.44 606.063 175.876 631.899C165.34 626.568 154.898 620.826 145.655 613.413C139.472 608.65 132.595 602.688 124.204 604.896C107.831 606.568 103.289 634.738 119.314 640.164C135.213 645.842 152.406 647.104 168.053 653.792C173.289 656.221 180.892 657.515 182.248 664.265C187.422 682.972 191.081 703.225 204.047 718.461C229.031 749.471 265.593 767.547 301.208 783.478C282.407 797.326 262.091 809.377 245.466 825.97C239.441 831.743 238.684 840.923 242.943 848.053C255.687 843.384 267.801 836.601 281.397 834.614C310.483 828.305 340.073 834.235 369.001 838.368C370.389 845.308 374.143 854.109 382.786 853.51C389.474 854.519 393.544 847.989 397.55 843.825C400.957 850.986 404.837 860.356 414.332 860.261C421.273 862.343 426.73 858.147 430.768 852.911C447.519 854.33 464.301 855.781 480.958 858.242C509.633 862.816 536.668 874.046 562.662 886.602C573.419 891.207 587.457 898.431 597.615 888.747C592.378 888.368 588.467 886.349 585.848 882.627C594.019 884.709 600.486 880.703 601.747 872.438C603.388 872.059 606.669 871.239 608.341 870.86L604.239 872.627C609.034 876.412 614.366 879.472 620.707 878.179L621.022 876.728C631.842 872.879 633.767 860.608 629.476 851.207C663.01 831.333 696.322 810.576 733.105 797.011C766.355 785.024 801.15 774.046 836.986 776.096C844.21 775.812 853.548 778.21 857.964 770.576C858.28 766.664 858.627 762.752 859.1 758.935C848.469 740.481 823.579 743.067 807.806 731.364C815.251 693.004 816.544 653.287 829.51 616.126C837.996 590.038 852.16 565.715 871.403 546.094C885.252 531.551 900.331 517.734 911.056 500.605C915.851 493.633 916.545 481.298 906.703 478.491C890.488 476.977 876.64 487.765 863.485 495.715C878.785 466.819 898.816 439.721 906.829 407.575C909.858 401.518 902.665 393.979 896.703 398.175C876.45 404.578 870.677 427.197 861.15 443.696C843.737 476.156 842.98 513.696 832.475 548.302L829.983 545.842C825.156 517.166 824.81 487.891 818.942 459.342C817.018 452.244 818.027 443.538 812.223 438.143C802.822 434.516 789.888 436.566 785.724 446.882C779.32 463.475 780.424 482.56 786.449 499.122C793.516 519.532 798.626 540.7 799.068 562.372C803.421 589.312 795.693 616.536 785.598 641.3C777.837 671.174 767.711 701.3 748.626 726.033C740.613 737.263 726.039 739.755 714.43 745.686C693.767 753.572 675.565 767.295 653.83 772.216C680.455 750.039 706.417 721.679 710.297 685.717C711.969 677.231 711.244 667.956 716.196 660.48C717.963 661.521 721.528 663.54 723.294 664.581C729.951 661.994 735.534 657.641 740.298 652.404C751.812 652.783 754.304 640.764 754.588 631.71C760.361 626.726 765.976 620.479 765.787 612.309C767.206 603.129 761.055 594.454 762.758 585.495C773.736 573.16 776.733 555.715 774.083 539.785L772.348 540.763C768.594 507.45 737.932 482.655 735.029 448.743C736.133 414.137 728.531 378.963 710.865 348.994C723.074 347.89 735.85 346.029 746.134 338.742C762.506 327.259 769.951 306.849 772.096 287.7C773.736 273.221 767.175 256.028 752.127 251.549C737.364 245.649 721.969 252.59 706.89 252.274C705.755 220.981 695.06 187.826 670.108 167.415C644.051 145.302 609.35 138.456 576.7 132.525C529.128 126.216 480.768 127.289 433.26 133.472Z"></path>
<path fill="#2F1F3B" d="M461.936 422.717C485.091 420.382 510.012 418.174 531.4 429.405C523.861 442.465 517.236 457.544 503.482 465.304C488.719 474.452 466.92 470.509 457.866 455.209C452.472 445.493 445.28 437.102 437.582 429.184C442.882 427.165 451.368 422.875 455.469 428.805L455.879 430.729L447.078 430.099C466.037 447.291 498.245 449.657 519.728 435.682C521.022 434.83 523.545 433.159 524.807 432.307C507.425 425.934 488.561 426.029 470.359 427.228C468.34 427.354 464.333 427.607 462.346 427.733C459.065 427.039 457.866 423.095 461.936 422.717ZM457.93 443.001C461.936 452.78 469.885 461.392 480.643 463.443C495.154 466.029 509.034 456.124 515.627 443.758C497.267 453.064 476.321 450.509 457.93 443.001Z"></path>
<path fill="#EDDEDE" d="M507.046 597.956C516.92 574.075 545.911 563.507 570.138 568.807C552.441 571.583 533.229 576 521.273 590.511C511.715 600.416 511.652 614.77 509.223 627.451C505.879 618.082 502.346 607.514 507.046 597.956Z"></path>
<path fill="#402C2F" d="M598.057 833.32C600.423 837.2 602.915 840.891 605.312 844.866C611.148 853.289 612.221 866.318 622.442 870.766C621.906 872.69 621.432 874.677 621.022 876.728L620.707 878.179C614.366 879.472 609.035 876.412 604.24 872.627L608.341 870.86C609.287 870.45 611.18 869.661 612.126 869.283C608.498 862.784 604.713 856.412 600.454 850.387L599.098 856.033C598.593 854.362 597.584 850.986 597.047 849.314C597.521 843.951 598.088 838.652 598.057 833.32Z"></path>
<path fill="#D26278" d="M540.832 233.44C578.781 237.068 616.573 243.977 653.577 252.841C663.893 266.375 675.155 279.119 686.984 291.359C686.921 292.621 686.795 295.176 686.732 296.438C636.731 288.488 587.993 273.409 537.456 268.677C539.917 257.1 541.526 245.302 540.832 233.44Z"></path>
<path fill="#C4536D" d="M469.254 272.117C484.649 271.139 499.917 276.407 515.375 274.577C568.751 275.177 619.981 291.991 672.442 299.814L672.19 301.265C672.001 302.653 671.591 305.366 671.401 306.754C686.67 314.105 703.074 320.067 720.108 321.392C734.43 322.937 746.544 313.915 759.257 308.963C754.367 323.726 742.916 338.395 726.323 339.688C706.701 343.001 688.752 333.348 670.77 327.354C635.313 316.155 599.256 306.849 562.788 299.72C505.122 289.593 446.383 288.3 388.023 287.827C393.828 285.808 399.822 284.388 405.941 283.347C406.162 282.243 406.572 279.972 406.762 278.868C427.456 275.019 448.686 276.376 469.254 272.117Z"></path>
<path fill="#FCEABD" d="M470.358 427.228C488.56 426.029 507.424 425.935 524.806 432.307C523.544 433.159 521.021 434.831 519.727 435.682C501.084 433.348 482.282 434.231 463.576 433.064C465.279 431.613 468.655 428.679 470.358 427.228Z"></path>
<path fill="#A87458" d="M830.646 767.672C832.097 766.537 834.999 764.265 836.45 763.13C841.056 762.688 845.693 762.499 850.394 762.499C849.731 764.203 848.406 767.578 847.744 769.281C842.002 768.966 836.293 768.335 830.646 767.672Z"></path>
<path fill="#F1C780" d="M650.959 333.441C658.751 336.344 667.237 339.277 675.281 335.208C685.502 338.804 697.931 341.233 704.146 351.076C721.938 379.057 728.657 412.811 728.279 445.651C727.995 455.745 731.149 465.462 734.683 474.799C734.714 479.941 734.777 485.178 734.746 490.383C732.979 491.203 731.276 492.055 729.572 492.938C732.064 501.077 735.313 509.184 735.818 517.796C735.66 528.648 732.632 539.469 734.336 550.352C736.197 561.992 735.881 573.791 734.683 585.494C733.105 579.28 731.307 573.191 729.919 567.008C728.846 561.835 727.932 556.661 727.395 551.488C730.739 535.62 720.518 521.55 714.872 507.544C705.755 490.32 703.893 470.698 701.244 451.739C698.751 435.051 701.875 417.859 697.332 401.455C693.862 388.174 689.288 374.956 681.937 363.315C676.101 354.262 665.818 349.751 656.385 345.555C654.556 341.486 652.758 337.448 650.959 333.441Z"></path>
<path fill="#36272B" d="M261.051 540.385C263.638 536.694 267.518 534.581 271.65 533.066C271.556 539.06 266.13 547.861 273.322 551.584C281.556 555.149 287.076 545.149 293.291 541.615C293.007 552.53 282.786 561.142 271.997 557.641C265.657 553.918 261.619 547.735 261.051 540.385Z"></path>
<path fill="#36272B" d="M692.884 545.873C700.613 550.952 700.518 562.246 708.72 566.946C713.01 569.974 718.342 566.883 723.01 566.283C723.074 563.917 723.231 559.154 723.326 556.788C724.335 555.463 726.386 552.813 727.395 551.488C727.932 556.662 728.846 561.835 729.919 567.009C723.673 570.763 716.67 575.116 709.067 572.782C697.584 569.533 692.821 556.788 692.884 545.873Z"></path>
<path fill="#D86C80" d="M273.164 231.075C274.615 226.028 279.252 220.476 285.057 222.715C301.776 226.533 318.338 231.611 335.625 232.242C381.051 234.955 426.604 231.895 472.062 232.905C469.98 243.567 470.485 254.482 475.469 264.356C413.859 260.949 351.84 264.104 291.177 275.587C285.593 276.596 279.631 278.142 276.823 283.568C272.912 266.501 268.243 248.426 273.164 231.075Z"></path>
<path fill="#FBE9BC" d="M319.947 311.738C340.956 310.981 361.335 304.135 382.502 304.514C406.351 304.735 430.295 303.788 454.144 305.302C482.787 309.088 511.746 310.097 540.169 315.744C580.075 320.318 618.561 332.4 656.385 345.555C665.817 349.751 676.101 354.262 681.937 363.315C689.288 374.956 693.862 388.174 697.332 401.455C701.874 417.859 698.751 435.051 701.243 451.739C703.893 470.698 705.755 490.32 714.871 507.544C720.518 521.55 730.739 535.62 727.395 551.488C726.386 552.813 724.335 555.462 723.326 556.787C723.231 559.153 723.073 563.917 723.01 566.283C718.341 566.882 713.01 569.974 708.72 566.945C700.518 562.245 700.613 550.951 692.884 545.872C692.821 556.787 697.584 569.532 709.067 572.781C716.67 575.116 723.673 570.762 729.919 567.008C731.307 573.191 733.105 579.28 734.682 585.494C734.051 593.57 736.26 603.318 729.761 609.659C721.78 618.712 710.991 626.819 698.31 626.693C687.9 627.356 677.9 621.867 671.969 613.507C661.054 598.491 657.142 578.112 663.01 560.384C666.606 563.885 671.369 563.096 675.817 562.434C664.966 555.841 655.092 539.721 640.738 545.872C624.555 554.642 609.192 565.305 591.274 570.352C564.965 554.169 529.949 560.478 508.371 581.614C493.828 578.964 479.033 579.154 464.364 577.955C455.468 571.204 447.834 562.339 436.919 558.712C418.149 550.541 396.509 553.948 379.316 564.232C365.404 558.207 351.303 551.992 339.694 542.055C334.679 538.081 328.653 531.866 321.808 535.778C313.795 543.507 312.502 555.368 308.937 565.431C309.663 567.355 311.082 571.267 311.808 573.223C302.691 588.05 314.331 607.198 302.502 620.857C293.984 626.693 285.183 620.416 277.927 615.905C271.934 622.214 265.467 628.113 258.463 633.286C258.022 631.425 257.138 627.734 256.697 625.905C257.643 621.141 258.81 616.441 259.946 611.772C256.886 606.157 254.236 600.258 252.974 593.98C252.627 585.336 247.832 574.075 255.75 567.481C260.388 563.097 266.35 560.51 271.997 557.639C282.785 561.141 293.006 552.529 293.29 541.614C287.076 545.147 281.555 555.147 273.322 551.582C266.129 547.86 271.555 539.058 271.65 533.065C267.517 534.579 263.637 536.692 261.05 540.383C251.366 536.787 245.056 528.68 240.135 520.005C249.347 497.859 264.646 479.153 275.814 458.08C282.943 445.619 280.262 430.856 280.735 417.196C280.987 378.805 295.404 341.17 319.947 311.738ZM326.666 369.877C332.912 376.943 339.316 383.915 344.521 391.833C342.565 395.713 340.609 399.593 338.654 403.505C331.524 397.732 323.669 389.089 313.669 394.294C319.852 400.571 328.18 403.757 335.814 407.89C337.265 414.767 337.896 422.78 344.016 427.449C342.691 427.922 340.041 428.868 338.716 429.341C324.3 428.079 309.253 430.067 297.549 439.278C286.035 447.26 289.599 466.818 301.555 472.623C311.745 477.512 323.574 477.354 334.552 475.714C344.679 473.348 356.414 468.269 359.379 457.26C362.061 449.058 357.139 441.266 354.616 433.758C366.887 439.089 382.282 438.553 393.449 430.792C402.629 424.01 405.279 411.644 403.859 400.855C403.07 387.354 389.222 377.669 376.446 377.574C367.203 376.817 358.874 381.328 350.988 385.429C344.679 378.742 339.347 371.202 332.565 365.051C331.082 366.249 328.149 368.678 326.666 369.877ZM629.161 388.899C617.994 383.884 604.587 381.549 593.545 388.142C577.646 396.029 574.523 419.089 584.586 432.717C594.145 444.483 611.59 446.66 625.407 442.433C623.419 448.616 620.99 454.704 619.855 461.171C618.341 471.108 625.218 480.856 634.587 483.947C649.571 489.941 667.71 491.266 682.284 483.38C690.139 478.458 698.846 471.361 699.035 461.266C694.682 450.099 684.713 441.266 673.136 438.269C660.297 433.884 646.953 438.679 633.987 439.688C644.555 433.726 648.152 421.865 646.196 410.414C651.779 405.303 661.685 402.717 661.369 393.631C653.956 393.978 648.656 400.445 641.464 401.171C638.341 399.404 637.173 395.839 635.218 393.126C640.36 384.798 652.158 378.994 651.59 368.331C641.748 372.148 636.006 381.423 629.161 388.899ZM461.935 422.717C457.866 423.095 459.065 427.039 462.345 427.733L464.617 431.139L461.431 433.001L455.027 426.597L455.468 428.805C451.367 422.874 442.882 427.165 437.582 429.184C445.279 437.102 452.472 445.493 457.866 455.209C466.92 470.509 488.718 474.452 503.482 465.304C517.236 457.544 523.86 442.464 531.4 429.404C510.012 418.174 485.09 420.382 461.935 422.717Z"></path>
<path fill="#F9F2E9" d="M395.342 563.823C404.554 560.101 414.617 560.7 424.27 562.056C408.276 563.697 388.592 566.126 380.358 582.057C371.935 595.527 374.301 611.773 377.109 626.537C359.38 606.631 370.705 571.773 395.342 563.823Z"></path>
<path fill="#312C39" d="M291.177 275.586C351.84 264.104 413.86 260.949 475.469 264.356L477.993 264.482C467.929 272.306 454.522 266.974 442.913 267.763C423.576 268.394 403.702 264.987 384.837 270.223C350.389 273.82 315.562 275.208 281.713 283.157C280.514 283.252 278.054 283.473 276.824 283.568C279.631 278.142 285.593 276.596 291.177 275.586Z"></path>
<path fill="#312C39" d="M768.184 726.694C783.8 710.259 782.317 684.738 797.964 668.24C795.314 680.385 787.175 690.511 785.219 702.877C783.674 714.833 773.232 723.729 773.768 736.127C767.017 737.042 760.519 739.061 754.241 741.616C758.973 736.695 763.736 731.805 768.184 726.694Z"></path>
<path fill="#F9E67D" d="M878.848 423.285C883.864 414.925 889.447 404.326 900.646 404.042C900.205 404.988 899.321 406.913 898.88 407.891C886.23 414.515 880.583 428.08 874.684 440.257C868.154 453.191 861.024 465.904 856.829 479.847L855.882 478.491C861.182 459.247 869.384 440.825 878.848 423.285Z"></path>
<path fill="#251D30" d="M433.261 133.472C480.769 127.289 529.129 126.216 576.701 132.526C609.351 138.456 644.051 145.302 670.108 167.415C695.061 187.826 705.755 220.981 706.891 252.274C721.97 252.59 737.364 245.65 752.128 251.549C767.175 256.028 773.737 273.221 772.097 287.7C769.952 306.849 762.507 327.259 746.134 338.742C735.85 346.029 723.074 347.89 710.866 348.994C728.532 378.963 736.134 414.137 735.03 448.743C737.932 482.655 768.595 507.45 772.349 540.763C771.245 541.394 769.005 542.656 767.901 543.286C761.655 518.334 746.544 497.198 734.683 474.8C731.15 465.462 727.995 455.746 728.279 445.651C728.658 412.812 721.939 379.058 704.147 351.076C697.932 341.234 685.503 338.805 675.282 335.209C631.401 320.698 586.511 308.773 540.77 301.77C467.488 291.549 392.503 289.057 319.348 301.739C317.014 302.212 314.837 303.032 312.786 304.199C290.263 333.537 270.609 367.07 267.234 404.642C265.625 422.781 272.439 443.317 260.42 459.153C248.843 475.494 236.382 491.803 230.704 511.33C227.454 527.009 218.685 546.094 230.641 560.164C232.786 557.198 234.962 554.296 237.234 551.457C240.325 547.608 243.858 544.17 247.675 541.078C245.152 547.734 241.555 553.886 238.59 560.353C235.215 566.914 236.35 574.549 235.94 581.71C236.697 582.94 238.212 585.463 238.969 586.694C236.634 592.814 235.499 599.281 234.836 605.811C238.432 607.009 242.123 608.271 245.814 609.533C246.256 614.959 246.698 620.385 247.171 625.874C249.537 625.874 254.3 625.905 256.698 625.905C257.139 627.735 258.022 631.426 258.464 633.287L259.41 634.36C258.338 635.085 256.224 636.473 255.152 637.199C251.871 635.748 248.78 634.044 245.656 632.562C243.48 627.01 241.808 621.394 240.641 615.653C236.571 613.287 232.943 610.29 229.789 606.915C230.641 594.864 230.073 582.687 232.88 570.858C227.391 565.369 220.672 560.542 217.644 553.129C219.379 519.564 230.893 486.283 252.754 460.415C267.423 445.147 258.843 423.159 261.051 404.515C264.016 374.515 276.161 345.619 293.764 321.266C273.385 308.426 259.978 286.186 255.656 262.716C253.291 245.713 256.224 225.176 270.767 214.167C286.572 205.492 304.931 212.968 321.619 214.766C321.272 194.861 328.843 174.04 345.31 162.053C370.673 143.283 402.724 137.636 433.261 133.472ZM410.768 143.63C387.929 147.794 363.796 153.377 345.847 168.961C333.449 180.854 326.54 199.308 329.253 216.28L329.096 216.343C327.298 217.763 323.701 220.634 321.903 222.053C307.55 220.224 293.196 214.955 278.591 217.447C266.792 221.675 262.881 235.586 261.997 246.848C260.357 273.883 275.468 299.057 295.278 316.344C298.181 312.023 300.988 307.606 303.764 303.221C291.272 303.063 283.89 292.212 276.824 283.568C278.054 283.473 280.515 283.252 281.714 283.158C284.521 297.322 301.777 297.764 313.26 296.092C338.086 292.748 363.197 290.981 388.024 287.827C446.384 288.3 505.123 289.593 562.789 299.72C599.256 306.849 635.313 316.155 670.771 327.354C688.752 333.348 706.702 343.001 726.323 339.688C742.917 338.395 754.368 323.726 759.257 308.962L760.582 308.363C765.945 293.379 770.425 272.685 756.008 261.296C737.995 249.656 717.017 264.325 697.711 259.971C683.042 257.385 668.279 255.271 653.578 252.842C616.575 243.978 578.783 237.069 540.833 233.441C541.527 245.303 539.918 257.101 537.457 268.678C587.994 273.41 636.733 288.489 686.733 296.439L686.67 297.795C697.364 298.426 710.014 296.249 714.147 284.767C720.487 291.486 711.023 299.309 704.84 301.423C694.115 303.978 683.011 301.833 672.19 301.265L672.443 299.814C619.982 291.991 568.751 275.177 515.375 274.577C499.917 276.407 484.649 271.139 469.255 272.117C441.368 267.826 412.945 270.413 384.838 270.224C403.702 264.987 423.576 268.394 442.914 267.763C454.523 266.975 467.93 272.306 477.993 264.483L475.469 264.356C470.485 254.482 469.98 243.568 472.062 232.905L473.482 232.937C473.545 232.148 473.703 230.602 473.797 229.813C475.406 229.845 478.624 229.94 480.233 229.971C477.299 236.344 476.826 243.441 475.942 250.35C478.182 255.46 478.782 262.085 483.577 265.65C489.318 267.196 495.343 266.722 501.274 267.101C500.832 262.274 500.359 257.511 499.918 252.747C500.138 244.64 501.589 236.627 504.965 229.246C497.993 228.141 490.832 225.713 483.829 227.605C489.665 223.252 497.93 225.429 503.798 220.918C521.684 221.044 538.53 227.794 556.416 227.479C584.335 228.741 611.748 234.388 639.162 239.498L639.382 240.35C659.288 244.956 679.414 248.71 699.762 251.044C698.594 212.211 678.783 170.822 640.392 156.816C610.928 144.071 578.751 137.92 546.827 136.153C501.4 132.589 455.658 136.28 410.768 143.63ZM511.369 229.719C503.104 240.129 503.798 254.987 507.552 267.069C514.902 267.637 522.315 267.89 529.76 267.921C533.798 257.322 536.385 245.713 534.397 234.419C528.341 229.246 518.908 227.889 511.369 229.719Z"></path>
<path fill="#EED6E3" d="M410.767 143.63C455.657 136.279 501.399 132.588 546.826 136.153C497.109 137.194 449.001 150.917 401.304 163.661C384.553 169.15 366.477 173.535 352.88 185.302C344.931 193.125 340.83 203.756 336.697 213.883C334.836 214.482 331.114 215.681 329.252 216.28C326.539 199.308 333.448 180.854 345.846 168.961C363.795 153.377 387.928 147.794 410.767 143.63Z"></path>
<path fill="#D86B83" d="M546.826 136.153C578.751 137.92 610.927 144.072 640.391 156.816C640.328 160.16 639.193 164.166 642.063 166.879C650.013 178.078 660.676 188.267 663.515 202.242C664.777 209.372 665.092 218.11 659.603 223.694C653.925 229.908 644.997 230.35 637.363 232.116C637.584 233.063 638.025 234.892 638.246 235.807C638.499 236.722 638.94 238.583 639.161 239.498C611.748 234.388 584.334 228.741 556.416 227.479C538.529 227.795 521.684 221.044 503.797 220.918C493.923 218.678 484.112 221.075 474.333 222.306C426.036 218.646 377.518 217.605 329.095 216.343L329.253 216.28C331.114 215.681 334.836 214.482 336.698 213.883C340.83 203.757 344.931 193.126 352.881 185.302C366.477 173.535 384.553 169.151 401.304 163.662C449.002 150.917 497.109 137.194 546.826 136.153Z"></path>
<path fill="#C05971" d="M640.392 156.816C678.783 170.823 698.594 212.211 699.761 251.044C679.414 248.71 659.288 244.956 639.382 240.35L639.161 239.498C638.941 238.584 638.499 236.722 638.247 235.808C638.026 234.893 637.584 233.063 637.363 232.117C644.997 230.35 653.925 229.908 659.603 223.694C665.092 218.11 664.777 209.372 663.515 202.243C660.676 188.268 650.013 178.078 642.064 166.88C639.193 164.167 640.329 160.16 640.392 156.816Z"></path>
<path fill="#F1C8CE" d="M261.997 246.848C262.88 235.586 266.792 221.674 278.59 217.447C293.196 214.955 307.549 220.223 321.902 222.053C350.452 226.217 379.316 225.87 408.086 226.406C430.042 226.564 451.841 229.498 473.797 229.813C473.702 230.602 473.544 232.148 473.481 232.936L472.062 232.905C426.604 231.895 381.051 234.955 335.625 232.242C318.338 231.611 301.776 226.532 285.057 222.715C279.252 220.476 274.615 226.028 273.164 231.075C268.243 248.426 272.912 266.501 276.823 283.568C283.89 292.211 291.271 303.063 303.763 303.221C300.987 307.606 298.18 312.022 295.278 316.344C275.467 299.057 260.356 273.883 261.997 246.848Z"></path>
<path fill="#111D32" d="M321.903 222.053C323.701 220.633 327.297 217.762 329.095 216.343C377.518 217.605 426.036 218.646 474.333 222.305C484.112 221.075 493.923 218.677 503.797 220.917C497.93 225.428 489.664 223.251 483.828 227.605C482.914 228.204 481.147 229.371 480.232 229.971C478.623 229.939 475.406 229.844 473.797 229.813C451.841 229.497 430.042 226.564 408.086 226.406C379.316 225.87 350.452 226.217 321.903 222.053Z"></path>
<path fill="#9AA8C6" d="M480.231 229.972C481.146 229.372 482.913 228.205 483.828 227.606C490.831 225.713 497.992 228.142 504.964 229.246C501.588 236.628 500.137 244.64 499.916 252.748C491.935 251.549 483.954 250.697 475.941 250.35C476.825 243.442 477.298 236.344 480.231 229.972Z"></path>
<path fill="#8996B7" d="M511.368 229.719C518.908 227.889 528.34 229.246 534.397 234.419C536.384 245.713 533.797 257.322 529.759 267.921C522.314 267.89 514.901 267.637 507.551 267.069C503.797 254.987 503.103 240.129 511.368 229.719Z"></path>
<path fill="#858EB1" d="M475.941 250.35C483.954 250.697 491.935 251.549 499.916 252.748C500.358 257.511 500.831 262.274 501.273 267.101C495.342 266.722 489.317 267.196 483.575 265.65C478.78 262.085 478.181 255.461 475.941 250.35Z"></path>
<path fill="#C65571" d="M653.577 252.842C668.278 255.271 683.041 257.384 697.71 259.971C697.332 261.107 696.574 263.41 696.196 264.545C699.193 265.334 702.253 266.154 705.344 267.038C706.385 273.757 710.013 279.467 714.146 284.766C710.013 296.249 697.363 298.426 686.669 297.795L686.732 296.438C686.795 295.177 686.921 292.621 686.985 291.359C675.155 279.12 663.893 266.375 653.577 252.842Z"></path>
<path fill="#D25E76" d="M697.711 259.971C717.017 264.325 737.995 249.656 756.008 261.296C770.425 272.684 765.945 293.379 760.582 308.363L759.257 308.962C746.544 313.915 734.431 322.937 720.109 321.392C703.074 320.067 686.67 314.104 671.402 306.754C671.591 305.366 672.001 302.653 672.19 301.265C683.01 301.833 694.115 303.978 704.84 301.423C711.023 299.309 720.487 291.486 714.146 284.767C710.014 279.467 706.386 273.757 705.345 267.038C702.254 266.154 699.194 265.334 696.197 264.545C696.575 263.41 697.332 261.107 697.711 259.971Z"></path>
<path fill="#C15B72" d="M281.713 283.157C315.561 275.208 350.388 273.82 384.837 270.223C412.944 270.413 441.367 267.826 469.254 272.116C448.686 276.375 427.455 275.019 406.761 278.867C406.572 279.971 406.162 282.243 405.941 283.347C399.821 284.388 393.827 285.807 388.023 287.826C363.196 290.981 338.085 292.747 313.259 296.091C301.776 297.763 284.52 297.322 281.713 283.157Z"></path>
<path fill="#F0CC95" d="M319.347 301.738C392.502 289.056 467.487 291.548 540.768 301.769C586.51 308.772 631.4 320.697 675.281 335.208C667.237 339.278 658.751 336.344 650.959 333.442C652.757 337.448 654.555 341.486 656.385 345.555C618.561 332.4 580.075 320.318 540.169 315.744C511.746 310.097 482.787 309.088 454.143 305.303C430.294 303.788 406.351 304.735 382.502 304.514C361.335 304.135 340.956 310.981 319.946 311.738C318.148 309.845 314.583 306.091 312.785 304.198C314.836 303.031 317.012 302.211 319.347 301.738Z"></path>
<path fill="#FCFCFB" d="M267.234 404.642C270.609 367.071 290.263 333.538 312.787 304.2C314.585 306.092 318.149 309.846 319.947 311.739C295.405 341.172 280.988 378.806 280.736 417.198C280.262 430.857 282.944 445.621 275.814 458.081C264.647 479.154 249.347 497.861 240.136 520.006C239.19 521.804 237.234 525.369 236.256 527.167C234.584 527.798 231.24 529.091 229.568 529.722C229.789 523.539 230.104 517.419 230.704 511.331C236.382 491.804 248.843 475.495 260.42 459.154C272.439 443.318 265.625 422.781 267.234 404.642Z"></path>
<path fill="#332840" d="M326.666 369.878C328.149 368.679 331.082 366.25 332.565 365.051C339.348 371.203 344.679 378.742 350.988 385.43C358.875 381.329 367.203 376.818 376.446 377.575C389.222 377.67 403.071 387.354 403.859 400.856C405.279 411.645 402.629 424.011 393.449 430.793C382.282 438.553 366.887 439.09 354.616 433.758C350.957 431.834 347.423 429.689 344.016 427.449C337.896 422.78 337.266 414.768 335.814 407.891C328.18 403.758 319.852 400.572 313.669 394.294C323.669 389.089 331.524 397.733 338.654 403.506C340.61 399.594 342.565 395.714 344.521 391.834C339.316 383.916 332.912 376.944 326.666 369.878Z"></path>
<path fill="#33243C" d="M629.161 388.9C636.007 381.424 641.748 372.149 651.59 368.332C652.158 378.995 640.36 384.799 635.218 393.127C637.174 395.84 638.341 399.405 641.464 401.171C648.657 400.446 653.956 393.979 661.37 393.632C661.685 402.717 651.78 405.304 646.196 410.414C648.152 421.866 644.556 433.727 633.988 439.689C631.085 440.572 628.246 441.519 625.407 442.434C611.59 446.661 594.145 444.484 584.586 432.717C574.523 419.09 577.646 396.029 593.546 388.143C604.587 381.55 617.994 383.884 629.161 388.9Z"></path>
<path fill="#43352F" d="M861.151 443.695C870.678 427.196 876.451 404.578 896.703 398.174C902.665 393.978 909.858 401.518 906.83 407.575C898.817 439.72 878.785 466.818 863.485 495.714C876.64 487.765 890.489 476.976 906.703 478.49C916.546 481.298 915.852 493.632 911.057 500.604C900.331 517.733 885.252 531.55 871.403 546.093C852.16 565.715 837.996 590.037 829.51 616.125C816.545 653.287 815.251 693.003 807.807 731.363C823.58 743.067 848.469 740.48 859.1 758.934C838.816 748.272 816.671 743.004 794.431 738.177C808.027 711.615 805.125 680.732 813.359 652.656C821.024 624.99 827.87 596.409 843.422 571.898C850.867 559.374 860.962 548.712 869.006 536.566C881.845 523.349 897.303 512.118 906.798 495.998C907.997 492.97 908.849 489.847 909.606 486.692L906.293 483.001C886.892 483.38 869.037 495.651 857.46 510.667C860.141 510.415 865.504 509.973 868.186 509.721C863.391 515.998 858.469 522.213 853.927 528.68C854.053 528.995 854.274 529.658 854.4 529.973L853.927 528.68C856.04 528.144 860.268 527.134 862.381 526.598C854.715 536.409 843.517 542.245 833.864 549.784L832.476 548.301C842.98 513.695 843.737 476.156 861.151 443.695ZM878.848 423.284C869.384 440.824 861.182 459.247 855.883 478.49L854.558 476.566C851.529 487.985 849.227 499.626 847.618 511.33C859.258 492.181 871.246 473.033 879.479 452.118C885.631 437.259 896.104 423.915 898.88 407.89C899.322 406.912 900.205 404.988 900.647 404.041C889.448 404.325 883.864 414.925 878.848 423.284Z"></path>
<path fill="#8E824E" d="M874.684 440.256C880.583 428.08 886.23 414.515 898.88 407.89C896.104 423.916 885.63 437.26 879.479 452.118C877.933 448.111 876.324 444.168 874.684 440.256Z"></path>
<path fill="#F4B2AE" d="M344.017 427.449C347.424 429.688 350.957 431.834 354.617 433.758C357.14 441.266 362.061 449.058 359.38 457.26C356.415 468.269 344.679 473.348 334.553 475.714C323.575 477.355 311.745 477.512 301.556 472.623C289.6 466.818 286.035 447.26 297.55 439.278C309.253 430.067 324.301 428.08 338.717 429.341C340.042 428.868 342.692 427.922 344.017 427.449ZM316.004 458.08C321.682 458.08 327.392 457.985 333.134 457.764C329.979 450.036 316.193 447.449 316.004 458.08Z"></path>
<path fill="#FB9724" d="M462.346 427.734C464.333 427.608 468.339 427.355 470.358 427.229C468.655 428.68 465.279 431.614 463.576 433.065C482.283 434.232 501.084 433.349 519.728 435.683C498.245 449.658 466.037 447.292 447.077 430.1L455.879 430.731L455.469 428.806L455.027 426.598L461.431 433.002L464.617 431.141L462.346 427.734Z"></path>
<path fill="#F8B1A7" d="M633.987 439.689C646.953 438.68 660.297 433.885 673.136 438.27C684.713 441.267 694.682 450.1 699.035 461.267C698.846 471.362 690.139 478.459 682.284 483.381C667.71 491.267 649.571 489.942 634.587 483.948C625.218 480.857 618.34 471.109 619.855 461.172C620.99 454.705 623.419 448.617 625.407 442.434C628.246 441.519 631.085 440.573 633.987 439.689Z"></path>
<path fill="#30232B" d="M785.724 446.882C789.888 436.566 802.822 434.516 812.222 438.144C818.027 443.538 817.017 452.245 818.942 459.342C824.809 487.892 825.156 517.166 829.983 545.842C830.361 547.671 831.15 551.331 831.529 553.16C829.541 553.318 825.535 553.697 823.547 553.886C819.099 526.851 818.563 499.374 813.926 472.371C812.822 462.939 811.465 453.569 809.446 444.326C802.979 439.531 793.137 441.077 790.203 449.09C782.758 467.86 789.004 488.68 795.976 506.661C794.651 487.797 793.642 467.292 804.304 450.667C799.099 477.355 799.099 504.958 803.957 531.709C808.626 556.252 809.005 581.899 803.295 606.284C788.91 650.89 779.509 699.092 749.477 736.474C721.811 750.733 692.663 761.995 665.123 776.569C659.666 777.358 654.24 777.989 648.877 779.156C635.785 782.752 623.451 788.557 610.548 792.626C616.637 806.002 628.372 820.481 622 835.813C621.369 837.642 620.107 841.302 619.508 843.163C621.905 843.447 626.763 844.078 629.192 844.393C644.871 835.844 658.814 824.393 674.966 816.664C705.155 801.806 734.745 784.55 767.995 777.421C786.638 771.522 806.26 770.986 825.345 767.453C826.418 761.617 818.121 762.626 814.841 760.607C802.727 756.191 789.825 758.304 777.774 761.711C761.149 765.055 745.471 771.68 729.162 776.159C731.054 773.099 732.348 768.998 736.354 768.083C755.534 761.396 775.534 755.307 796.102 755.875C811.717 755.938 827.617 753.888 842.948 757.957C840.771 759.661 838.595 761.396 836.45 763.131C834.999 764.266 832.096 766.538 830.645 767.673C836.292 768.336 842.002 768.967 847.743 769.282C848.405 767.579 849.73 764.203 850.393 762.5C855.882 761.617 857.901 765.371 857.964 770.576C853.548 778.21 844.21 775.812 836.986 776.096C801.15 774.046 766.354 785.024 733.105 797.011C696.322 810.576 663.009 831.333 629.476 851.207C633.766 860.608 631.842 872.879 621.022 876.728C621.432 874.677 621.905 872.69 622.441 870.766C629.066 858.715 615.88 849.094 611.495 838.841C612.567 837.737 614.744 835.56 615.817 834.456C618.246 821.933 614.019 808.746 607.362 798.21C601.242 788.904 589.57 793.541 580.769 795.055C578.876 795.465 575.091 796.254 573.198 796.664C572.851 798.557 572.157 802.374 571.81 804.267C567.835 829.693 571.179 861.239 592.977 878.084C596.447 858.494 589.728 839.188 586.92 819.977C586.605 815.781 586.321 811.648 586.132 807.516C590.264 816.002 593.734 824.835 598.056 833.321C598.088 838.652 597.52 843.952 597.047 849.314C597.583 850.986 598.593 854.362 599.097 856.034C600.328 861.933 602.914 867.548 608.34 870.86C606.668 871.239 603.387 872.059 601.747 872.438C600.485 880.703 594.018 884.709 585.848 882.627C588.466 886.349 592.378 888.368 597.615 888.747C587.457 898.432 573.419 891.208 562.661 886.602C536.668 874.047 509.633 862.816 480.957 858.242C464.301 855.781 447.518 854.33 430.768 852.911C426.73 858.147 421.272 862.343 414.332 860.261C404.837 860.356 400.957 850.986 397.55 843.825C393.543 847.99 389.474 854.52 382.786 853.51C374.143 854.109 370.389 845.308 369.001 838.368C340.073 834.236 310.483 828.305 281.397 834.614C267.801 836.601 255.687 843.384 242.942 848.053C238.684 840.923 239.441 831.743 245.466 825.97C262.091 809.377 282.406 797.327 301.208 783.478C265.592 767.547 229.031 749.471 204.046 718.462C191.081 703.225 187.422 682.972 182.248 664.265C180.891 657.515 173.289 656.221 168.052 653.792C152.405 647.104 135.213 645.843 119.314 640.164C103.288 634.738 107.831 606.568 124.203 604.896C132.594 602.688 139.471 608.65 145.654 613.413C154.897 620.827 165.339 626.568 175.876 631.899C159.44 606.063 155.308 574.58 140.702 547.766C125.465 521.741 118.02 490.889 120.071 460.825C123.698 449.342 140.355 447.702 147.484 456.787C160.544 473.065 169.976 491.898 178.999 510.636C198.841 553.507 193.667 603.255 213.668 646.095C222.28 665.527 232.217 685.023 248.211 699.502C268.305 718.241 289.914 735.78 313.826 749.471C289.094 721.9 278.684 685.054 276.918 648.745C268.432 648.429 257.296 647.231 255.151 637.199C256.223 636.473 258.337 635.085 259.409 634.36C261.46 636.537 263.574 638.745 265.782 640.953C268.337 638.934 270.924 636.947 273.542 634.991C276.318 638.902 279.031 642.783 281.997 646.631L283.069 647.609C287.233 648.398 291.429 649.092 295.687 649.691C292.123 651.111 288.558 652.562 285.088 654.108C283.668 714.55 328.622 773.793 388.717 785.308C440.515 792.973 493.323 801.301 545.627 794.14C574.397 788.904 604.839 789.125 631.842 776.632C662.158 761.837 685.218 734.518 699.603 704.487C702.537 696.569 704.146 688.24 705.439 679.944C706.448 673.224 707.552 666.537 708.751 659.881C697.647 655.843 686.795 651.142 676.259 645.748C666.038 637.42 657.994 626.726 651.59 615.306C649.098 610.069 646.89 604.707 644.587 599.47L650.233 600.101C656.227 611.647 661.59 623.95 671.148 633.098C677.647 639.817 686.764 642.751 695.186 646.316C696.48 644.928 699.098 642.152 700.423 640.732C702.537 644.391 704.398 648.24 707.142 651.584C712.821 653.477 718.814 653.981 724.745 655.085C724.619 650.007 724.556 645.085 724.493 640.101C727.143 643.697 729.824 647.42 732.632 651.016C733.546 650.448 735.345 649.376 736.228 648.808C739.666 646.537 743.294 644.423 746.48 641.773C747.868 636.158 747.364 630.322 747.679 624.707C757.206 625.369 761.591 614.675 759.982 606.726C758.689 598.65 757.238 590.606 756.828 582.498C751.938 576.252 746.985 570.132 742.569 563.634C742.916 562.056 743.578 558.933 743.925 557.356C749.54 564.012 754.998 570.794 761.086 577.041C765.25 566.283 768.878 554.959 767.9 543.287C769.004 542.656 771.244 541.394 772.348 540.763L774.083 539.785C776.733 555.716 773.736 573.16 762.758 585.495C761.055 594.454 767.206 603.129 765.786 612.309C765.976 620.479 760.361 626.726 754.588 631.71C754.304 640.764 751.812 652.783 740.297 652.404C735.534 657.641 729.95 661.994 723.294 664.581C721.527 663.54 717.963 661.521 716.196 660.48C711.243 667.956 711.969 677.231 710.297 685.717C706.417 721.679 680.454 750.039 653.83 772.216C675.565 767.295 693.767 753.572 714.43 745.686C726.039 739.755 740.613 737.263 748.625 726.033C767.711 701.301 777.837 671.174 785.597 641.3C795.692 616.536 803.421 589.312 799.068 562.372C798.626 540.7 793.515 519.532 786.449 499.122C780.424 482.56 779.32 463.475 785.724 446.882ZM124.645 464.579C123.572 490.762 129.913 517.513 144.298 539.595C158.715 569.564 166.286 602.782 183.037 631.552C179.188 611.868 171.301 593.413 164.645 574.612C160.576 563.697 161.68 551.362 157.011 540.826C155.528 520.1 149.945 499.816 139.945 481.677C141.238 481.835 143.856 482.119 145.15 482.245C146.033 480.888 147.831 478.112 148.746 476.724C149.409 480.1 150.166 483.475 151.017 486.851C152.879 498.554 165.276 505.274 166.033 517.419C168.399 538.649 170.702 560.195 177.39 580.574C177.831 596.978 184.74 612.151 186.854 628.303C187.137 634.423 190.608 639.533 193.888 644.518C192.217 644.612 188.904 644.833 187.232 644.928C184.078 643.603 180.986 642.183 177.989 640.669C165.371 632.152 151.238 625.937 139.755 615.779C135.875 613.129 132.279 608.271 127.011 609.375C117.168 609.943 110.891 622.088 115.591 630.795C132.027 638.461 150.386 640.858 167.484 646.884C180.828 652.026 195.182 657.862 204.393 669.281C199.882 667.388 195.466 665.433 191.081 663.445C193.825 689.66 205.56 716.411 228.873 730.449L229.409 732.626C248.495 747.105 269.063 759.755 290.293 770.859C308.464 781.522 325.814 794.393 346.792 798.967C331.303 799.503 315.782 799.346 300.293 800.26C306.224 796.759 313.353 796.696 319.915 795.118C317.612 791.522 314.079 789.062 310.672 786.759C293.858 797.106 275.593 805.371 260.861 818.778C254.047 825.182 245.561 831.775 245.277 842.059C259.189 834.835 267.359 820.166 281.366 812.753C285.75 813.352 290.135 813.983 294.583 814.645C304.962 816.286 315.404 817.548 325.751 819.409C315.246 820.103 304.71 819.504 294.394 817.485C285.025 815.466 273.448 819.03 270.198 828.904C286.318 824.519 303.101 826.002 319.631 825.592C337.297 825.087 354.237 830.986 371.682 832.911C370.988 818.273 375.814 803.415 373.606 789.093L369.663 788.683L369.947 788.21C360.231 784.298 351.24 778.967 341.902 774.393C327.549 763.919 312.438 754.519 296.76 746.222L296.855 745.686C275.088 731.301 253.573 715.906 236.349 696.127C224.173 682.278 216.318 665.433 206.191 650.164C198.81 632.309 194.204 613.476 191.176 594.454C189.661 573.918 187.832 553.16 181.175 533.539C172.311 508.554 158.652 485.683 144.424 463.475C141.617 460.793 139.251 457.607 135.844 455.778C130.418 454.106 124.172 458.743 124.645 464.579ZM154.203 503.349C156.79 520.51 160.197 537.545 163.005 554.675C164.551 559.154 163.825 565.779 169.314 567.766C166.727 551.331 165.055 534.737 162.658 518.302C161.175 512.876 160.576 505.179 154.203 503.349C152.437 502.15 152.437 502.15 154.203 503.349ZM380.641 790.386C380.389 795.56 380.199 800.765 380.136 806.065L379.915 808.305C377.676 819.63 377.581 831.27 377.896 842.784C377.013 848.242 385.751 850.892 388.748 846.444C396.887 835.277 397.234 820.986 397.676 807.768C398.654 807.169 400.673 805.939 401.651 805.339C402.092 812.342 402.471 819.44 403.259 826.475C404.711 834.235 406.288 842.091 406.603 850.04C410.389 854.52 416.193 854.141 421.556 854.141C422.66 840.513 425.373 827.075 425.783 813.384C426.446 811.049 427.802 806.317 428.496 803.983C429.664 804.361 432.029 805.119 433.197 805.497C429.727 819.63 427.487 834.109 427.203 848.715C428.749 847.989 431.84 846.507 433.386 845.781C437.739 830.45 437.424 813.699 445.531 799.598C423.796 797.137 402.124 794.298 380.641 790.386ZM497.077 803.1C481.273 801.743 465.405 801.017 449.537 800.45C448.023 806.633 446.825 812.942 446.004 819.314C460.579 822.658 476.068 820.797 490.011 826.854C493.418 830.324 498.371 831.176 502.882 832.627C482.535 830.986 462.03 829.882 441.967 825.907C442.377 827.705 443.197 831.27 443.607 833.068C458.15 835.624 472.629 838.589 487.235 840.702C471.935 841.554 457.014 837.138 441.84 836.002C441.399 839.693 440.988 843.415 440.61 847.169L438.717 847.863C455.626 850.892 472.945 851.491 489.695 855.434C494.491 856.16 499.475 858.21 504.428 857.012C524.68 861.87 545.311 867.99 566.321 866.16C563.482 867.864 560.643 869.504 557.74 871.05C560.106 864.173 545.311 868.778 552.283 872.879C562.031 877.895 573.324 884.236 584.586 881.87C579.917 874.614 574.018 868.116 570.422 860.293C566.889 850.482 565.343 840.198 563.45 830.04C562.977 819.125 563.797 808.147 567.457 797.8C544.523 804.235 520.579 802.91 497.077 803.1Z"></path>
<path fill="#F79546" d="M457.929 443C476.32 450.508 497.266 453.064 515.626 443.758C509.033 456.124 495.153 466.029 480.642 463.442C469.884 461.392 461.935 452.78 457.929 443Z"></path>
<path fill="#B4C477" d="M790.204 449.09C793.137 441.078 802.98 439.532 809.447 444.327L807.365 446.945C806.608 447.86 805.094 449.721 804.305 450.668C793.642 467.293 794.652 487.797 795.977 506.662C789.005 488.681 782.759 467.86 790.204 449.09Z"></path>
<path fill="#746C38" d="M874.684 440.258C876.325 444.17 877.933 448.113 879.479 452.119C871.246 473.034 859.258 492.183 847.618 511.331C849.227 499.628 851.529 487.987 854.558 476.567L855.883 478.492L856.829 479.848C861.025 465.905 868.154 453.192 874.684 440.258Z"></path>
<path fill="#6C4E41" d="M809.447 444.327C811.466 453.57 812.822 462.939 813.926 472.371C809.699 493.759 817.996 515.053 815.251 536.378L811.15 539.406C808.248 521.867 807.68 504.106 804.904 486.598C802.696 473.286 807.775 460.257 807.365 446.945L809.447 444.327Z"></path>
<path fill="#C49162" d="M804.305 450.667C805.093 449.721 806.607 447.86 807.365 446.945C807.775 460.257 802.696 473.286 804.904 486.598C807.68 504.106 808.248 521.867 811.15 539.406C813.264 554.517 818.09 569.249 818.122 584.675L817.933 586.725C814.589 595.306 810.992 603.76 808.027 612.498C806.828 610.953 804.494 607.83 803.295 606.284C809.005 581.899 808.627 556.252 803.958 531.709C799.1 504.958 799.1 477.355 804.305 450.667Z"></path>
<path fill="#F4D8C3" d="M316.004 458.08C316.193 447.449 329.979 450.036 333.134 457.764C327.392 457.985 321.682 458.08 316.004 458.08Z"></path>
<path fill="#A99E57" d="M124.645 464.58C124.172 458.744 130.418 454.107 135.844 455.779C139.251 457.609 141.617 460.795 144.425 463.476C139.535 465.621 132.248 466.946 132.595 473.886C131.207 487.735 134.519 501.678 138.873 514.77C141.144 522.814 147.548 530.953 144.299 539.597C129.914 517.514 123.573 490.764 124.645 464.58Z"></path>
<path fill="#A29555" d="M132.596 473.884C132.249 466.944 139.536 465.619 144.425 463.474C158.653 485.683 172.312 508.553 181.176 533.538C187.833 553.16 189.662 573.917 191.177 594.453C186.508 589.848 181.807 585.336 177.391 580.573C170.703 560.194 168.4 538.648 166.034 517.418C165.277 505.273 152.88 498.553 151.018 486.85C150.167 483.474 149.41 480.099 148.747 476.723C147.832 478.112 146.034 480.888 145.151 482.244C143.857 482.118 141.239 481.834 139.946 481.676C149.946 499.815 155.529 520.099 157.012 540.825C149.883 531.077 147.643 518.964 142.879 508.112C141.87 509.784 139.883 513.128 138.873 514.768C134.52 501.676 131.208 487.733 132.596 473.884Z"></path>
<path fill="#A7724F" d="M815.251 536.379C817.995 515.053 809.699 493.76 813.926 472.372C818.563 499.375 819.099 526.852 823.547 553.887C825.535 553.697 829.541 553.319 831.529 553.161C832.917 553.035 835.661 552.782 837.049 552.656C831.434 562.846 826.607 573.414 821.118 583.666L818.122 584.676C818.09 569.25 813.263 554.517 811.15 539.407L815.251 536.379Z"></path>
<path fill="#F4C772" d="M734.682 474.8C746.543 497.197 761.654 518.333 767.9 543.286C768.878 554.958 765.25 566.283 761.086 577.04C754.998 570.794 749.54 564.012 743.925 557.356C743.578 558.933 742.916 562.056 742.569 563.633C736.67 587.451 747.048 611.489 744.745 635.653C741.528 636.095 738.341 636.536 735.218 637.073C735.471 640.006 735.975 645.874 736.228 648.808C735.345 649.375 733.546 650.448 732.632 651.016C729.824 647.42 727.143 643.697 724.493 640.101C724.556 645.085 724.619 650.006 724.745 655.085C718.814 653.981 712.821 653.476 707.143 651.584C704.398 648.24 702.537 644.391 700.423 640.732C699.098 642.151 696.48 644.928 695.186 646.316C686.764 642.751 677.647 639.817 671.148 633.098C661.59 623.949 656.227 611.646 650.233 600.101C650.013 598.586 649.571 595.59 649.35 594.075C658.152 582.435 656.89 567.766 656.353 554.075C658.498 556.157 660.738 558.271 663.009 560.384C657.142 578.113 661.054 598.492 671.969 613.508C677.899 621.867 687.899 627.356 698.309 626.694C710.991 626.82 721.78 618.713 729.761 609.659C736.259 603.318 734.051 593.571 734.682 585.495C735.881 573.791 736.196 561.993 734.335 550.353C732.632 539.469 735.66 528.649 735.818 517.797C735.313 509.185 732.064 501.078 729.572 492.939C731.275 492.055 732.979 491.204 734.745 490.384C734.777 485.178 734.714 479.942 734.682 474.8Z"></path>
<path fill="#A29953" d="M857.46 510.668C869.037 495.652 886.892 483.381 906.293 483.002L909.605 486.693C898.659 494.044 885.599 498.776 877.113 509.312C871.971 514.896 867.302 520.858 862.381 526.599C860.267 527.135 856.04 528.145 853.926 528.681C858.469 522.214 863.39 516 868.185 509.722C865.504 509.974 860.141 510.416 857.46 510.668Z"></path>
<path fill="#9C8F51" d="M909.605 486.692C908.848 489.846 907.996 492.969 906.797 495.998C897.68 501.771 888.627 510.099 877.112 509.31C885.598 498.774 898.658 494.042 909.605 486.692Z"></path>
<path fill="#FAC773" d="M600.454 850.388C604.713 856.413 608.498 862.786 612.126 869.284C611.18 869.663 609.287 870.451 608.341 870.862C602.915 867.549 600.328 861.934 599.098 856.035L600.454 850.388Z"></path>
<path fill="#8E6142" d="M877.113 509.312C888.627 510.1 897.681 501.772 906.798 495.999C897.302 512.119 881.845 523.35 869.006 536.567C849.762 545.716 839.983 565.337 827.964 581.71C826.261 582.214 822.822 583.192 821.119 583.666C826.608 573.413 831.434 562.845 837.049 552.656C835.661 552.782 832.917 553.034 831.529 553.16C831.15 551.331 830.362 547.672 829.983 545.842L832.475 548.302L833.863 549.785C843.516 542.246 854.715 536.41 862.381 526.599C867.302 520.857 871.971 514.895 877.113 509.312Z"></path>
<path fill="#95824A" d="M154.204 503.349C152.437 502.15 152.437 502.15 154.204 503.349V503.349Z"></path>
<path fill="#8E8143" d="M154.204 503.349C160.576 505.178 161.176 512.876 162.658 518.301C165.056 534.737 166.728 551.33 169.315 567.766C163.826 565.778 164.551 559.154 163.005 554.674C160.198 537.545 156.791 520.51 154.204 503.349Z"></path>
<path fill="#7F6E43" d="M138.873 514.769C139.882 513.129 141.87 509.785 142.879 508.113C147.642 518.965 149.882 531.078 157.012 540.826C161.681 551.362 160.576 563.697 164.646 574.612C171.302 593.413 179.189 611.868 183.037 631.552C166.286 602.782 158.715 569.564 144.299 539.596C147.548 530.952 141.144 522.813 138.873 514.769Z"></path>
<path fill="#E2CA96" d="M230.64 560.165C218.684 546.095 227.454 527.01 230.703 511.332C230.104 517.42 229.788 523.54 229.568 529.723C231.24 529.092 234.583 527.798 236.255 527.168C235.151 529.06 234.079 530.953 233.038 532.909C234.362 539.092 235.751 545.275 237.233 551.458C234.962 554.297 232.785 557.199 230.64 560.165Z"></path>
<path fill="#FBE6A8" d="M236.255 527.166C237.233 525.368 239.189 521.803 240.135 520.005C245.056 528.68 251.365 536.787 261.05 540.383C261.618 547.734 265.656 553.917 271.997 557.639C266.35 560.51 260.388 563.097 255.75 567.482C247.832 574.075 252.627 585.337 252.974 593.98C250.23 590.731 247.517 587.513 244.804 584.327C245.246 581.709 245.75 579.091 246.255 576.535C245.151 576.409 242.88 576.188 241.776 576.062C240.64 570.794 239.504 565.557 238.589 560.352C241.555 553.885 245.151 547.734 247.675 541.078C243.858 544.169 240.324 547.608 237.233 551.456C235.75 545.273 234.362 539.09 233.037 532.907C234.078 530.951 235.151 529.058 236.255 527.166Z"></path>
<path fill="#A49044" d="M854.4 529.974C854.274 529.659 854.053 528.996 853.926 528.681L854.4 529.974Z"></path>
<path fill="#221B28" d="M321.808 535.779C328.653 531.867 334.679 538.082 339.694 542.057C351.303 551.994 365.404 558.208 379.316 564.233C396.509 553.949 418.149 550.542 436.919 558.713C447.834 562.341 455.468 571.205 464.364 577.956C479.033 579.155 493.828 578.965 508.371 581.615C529.949 560.479 564.965 554.17 591.274 570.353C609.192 565.306 624.555 554.643 640.738 545.874C655.092 539.722 664.965 555.842 675.817 562.435C671.369 563.098 666.606 563.886 663.01 560.385C660.738 558.271 658.499 556.158 656.353 554.076C656.89 567.767 658.152 582.436 649.35 594.076C649.571 595.59 650.013 598.587 650.234 600.101L644.587 599.47C643.861 599.407 642.442 599.313 641.716 599.25C632.221 603.918 622.252 607.515 612.315 611.174C613.136 632.499 597.52 651.837 577.772 658.525C543.829 671.553 496.794 647.767 497.582 608.524C488.781 608.587 480.011 608.43 471.273 608.146C464.869 643.193 422.219 663.099 390.452 648.935C374.08 640.89 363.385 623.919 360.767 606.127C354.647 604.455 348.527 602.72 342.534 600.795C340.609 600.133 336.761 598.839 334.836 598.177C325.152 614.739 322.06 637.483 303.259 646.758C301.366 647.515 297.58 648.966 295.688 649.692C291.429 649.092 287.233 648.398 283.069 647.61L281.997 646.632C296.76 644.96 311.776 637.168 316.729 622.278C320.515 613.635 324.679 605.117 329.694 597.105C325.373 593.918 321.114 590.669 317.612 586.663C315.53 582.215 313.606 577.735 311.808 573.224C311.082 571.268 309.663 567.356 308.937 565.432C312.502 555.369 313.795 543.508 321.808 535.779ZM317.36 558.051C313.638 569.218 320.041 581.363 329.063 587.956C339.095 594.108 351.083 595.59 362.092 599.281C363.196 594.171 364.269 589.092 365.373 584.076C368.496 578.966 371.714 573.918 374.931 568.902C357.139 561.868 341.082 551.552 325.562 540.605C322.723 546.347 320.041 552.183 317.36 558.051ZM594.902 574.076C600.265 579.88 605.091 586.253 608.971 593.224C609.381 595.653 610.202 600.574 610.612 603.035C627.3 600.637 649.76 594.455 650.928 574.013C640.36 577.325 632.662 586.726 621.495 588.303C631.527 584.328 639.886 577.388 649.476 572.562C653.388 565.274 651.054 557.293 649.224 549.817C629.855 554.612 614.618 569.596 594.902 574.076ZM395.342 563.823C370.704 571.773 359.379 606.631 377.108 626.537L377.266 627.799C399.411 656.537 451.052 647.673 462.44 613.445C469.917 588.934 447.456 565.432 424.269 562.057C414.616 560.7 404.553 560.101 395.342 563.823ZM507.046 597.956C502.346 607.515 505.879 618.083 509.223 627.452L509.065 628.461C527.267 658.903 578.277 663.793 598.845 633.382C615.975 609.66 598.246 573.035 570.138 568.808C545.911 563.508 516.92 574.076 507.046 597.956ZM466.099 583.319C468.15 589.502 469.948 595.779 471.651 602.12C480.232 602.026 488.813 602.657 497.267 604.36C499.286 598.177 504.806 592.436 504.649 585.906C491.904 583.76 478.939 583.887 466.099 583.319Z"></path>
<path fill="#7A473C" d="M827.964 581.709C839.983 565.336 849.762 545.715 869.005 536.566C860.961 548.712 850.866 559.374 843.421 571.898C827.869 596.409 821.024 624.99 813.358 652.656C805.124 680.732 808.027 711.615 794.43 738.177C816.67 743.004 838.816 748.272 859.1 758.934C858.627 762.751 858.28 766.663 857.964 770.575C857.901 765.37 855.882 761.616 850.393 762.499C845.693 762.499 841.055 762.688 836.45 763.13C838.595 761.395 840.771 759.66 842.948 757.956C827.617 753.887 811.717 755.937 796.102 755.874C775.534 755.306 755.534 761.395 736.354 768.083C732.348 768.997 731.054 773.098 729.162 776.158C745.471 771.679 761.149 765.054 777.774 761.71C789.825 758.303 802.727 756.19 814.841 760.606C818.121 762.625 826.418 761.616 825.345 767.452C806.26 770.985 786.638 771.521 767.995 777.42C734.745 784.55 705.155 801.805 674.966 816.664C658.814 824.392 644.871 835.843 629.192 844.392C629.318 840.071 629.476 835.78 629.697 831.553C656.259 808.745 687.805 793.257 719.162 778.304C717.71 777.957 714.808 777.231 713.325 776.884C717.616 771.521 721.875 766.158 726.259 760.89L726.449 765.622C732.032 761.994 737.521 758.209 742.695 753.982L743.357 757.988C749.667 754.991 755.881 751.773 762.001 748.429C759.383 746.127 756.796 743.855 754.241 741.616C760.518 739.06 767.017 737.041 773.768 736.126C773.231 723.729 783.673 714.833 785.219 702.877C787.175 690.511 795.314 680.385 797.963 668.24C806.576 658.303 805.408 644.265 809.825 632.529C815.188 617.829 816.986 602.245 817.932 586.724L818.121 584.674L821.118 583.665C822.822 583.191 826.26 582.214 827.964 581.709ZM797.932 685.401C794.43 694.17 790.55 703.161 790.392 712.783C791.749 713.066 794.493 713.634 795.881 713.887C799.856 704.959 799.162 694.833 797.932 685.401Z"></path>
<path fill="#A5C2E0" d="M317.36 558.051C320.042 552.183 322.723 546.347 325.562 540.605C341.083 551.552 357.14 561.868 374.932 568.902C371.714 573.918 368.496 578.966 365.373 584.076C355.941 581.647 346.256 580.07 337.36 576.063C330.073 570.795 324.3 563.729 317.36 558.051Z"></path>
<path fill="#A5B5D3" d="M594.902 574.076C614.618 569.597 629.855 554.612 649.224 549.817C651.054 557.294 653.388 565.275 649.477 572.562C639.887 577.389 631.527 584.329 621.495 588.304C617.268 589.818 613.104 591.49 608.971 593.225C605.091 586.253 600.265 579.881 594.902 574.076Z"></path>
<path fill="#7E95C1" d="M329.063 587.955C320.041 581.362 313.637 569.217 317.36 558.05C324.3 563.728 330.073 570.794 337.36 576.062C346.256 580.069 355.94 581.646 365.373 584.075C364.268 589.091 363.196 594.17 362.092 599.28C351.082 595.59 339.095 594.107 329.063 587.955Z"></path>
<path fill="#FCDC8C" d="M235.94 581.71C236.35 574.549 235.215 566.915 238.59 560.353C239.505 565.558 240.641 570.795 241.776 576.063C242.88 576.189 245.152 576.41 246.256 576.536C245.751 579.091 245.246 581.71 244.805 584.328C247.518 587.514 250.23 590.732 252.975 593.981C254.237 600.259 256.887 606.158 259.947 611.773C256.634 612.909 253.385 614.076 250.136 615.306C249.789 611.237 249.505 607.231 249.221 603.224C248.369 604.801 246.666 607.956 245.814 609.533C242.123 608.272 238.432 607.01 234.836 605.811C235.498 599.281 236.634 592.814 238.969 586.694C238.211 585.464 236.697 582.94 235.94 581.71Z"></path>
<path fill="#D16680" d="M424.27 562.056C447.456 565.432 469.917 588.933 462.441 613.445C451.052 647.672 399.412 656.537 377.266 627.798L377.108 626.536C374.301 611.773 371.935 595.527 380.358 582.056C388.591 566.126 408.276 563.697 424.27 562.056Z"></path>
<path fill="#EBB65B" d="M742.569 563.634C746.985 570.133 751.938 576.253 756.828 582.499C757.238 590.606 758.689 598.65 759.983 606.726C761.591 614.676 757.206 625.37 747.679 624.708C747.364 630.323 747.869 636.159 746.481 641.774C743.295 644.424 739.667 646.537 736.228 648.809C735.976 645.875 735.471 640.007 735.219 637.074C738.342 636.537 741.528 636.096 744.746 635.654C747.049 611.49 736.67 587.452 742.569 563.634Z"></path>
<path fill="#CE6580" d="M570.138 568.807C598.245 573.034 615.974 609.659 598.845 633.382C578.277 663.792 527.267 658.903 509.065 628.461L509.222 627.451C511.651 614.77 511.715 600.416 521.273 590.511C533.229 576 552.44 571.583 570.138 568.807Z"></path>
<path fill="#F3D48A" d="M311.808 573.223C313.606 577.734 315.53 582.213 317.612 586.661C315.404 598.018 305.341 613.034 316.729 622.277C311.776 637.166 296.76 644.958 281.997 646.63C279.031 642.782 276.318 638.901 273.542 634.99C270.924 636.946 268.337 638.933 265.782 640.952C263.574 638.744 261.46 636.536 259.409 634.359L258.463 633.286C265.466 628.113 271.933 622.214 277.927 615.904C285.183 620.415 293.984 626.693 302.501 620.857C314.331 607.198 302.691 588.049 311.808 573.223Z"></path>
<path fill="#798CAD" d="M621.496 588.303C632.663 586.726 640.36 577.325 650.928 574.013C649.761 594.455 627.3 600.637 610.612 603.035C610.202 600.574 609.382 595.653 608.972 593.224C613.104 591.489 617.269 589.817 621.496 588.303Z"></path>
<path fill="#8C7745" d="M177.39 580.575C181.806 585.338 186.507 589.849 191.176 594.455C194.204 613.477 198.81 632.31 206.192 650.165C199.819 648.588 193.416 647.042 187.233 644.929C188.904 644.834 192.217 644.613 193.889 644.519C190.608 639.534 187.138 634.424 186.854 628.304C184.74 612.152 177.832 596.979 177.39 580.575Z"></path>
<path fill="#979ABA" d="M466.1 583.317C478.939 583.885 491.904 583.759 504.649 585.904C504.807 592.434 499.286 598.176 497.267 604.359C488.813 602.655 480.232 602.024 471.652 602.119C469.948 595.778 468.15 589.5 466.1 583.317Z"></path>
<path fill="#F2CE7A" d="M317.613 586.663C321.115 590.669 325.373 593.919 329.695 597.105C324.679 605.118 320.515 613.635 316.73 622.278C305.342 613.035 315.405 598.02 317.613 586.663Z"></path>
<path fill="#B07554" d="M808.027 612.498C810.992 603.76 814.589 595.306 817.933 586.725C816.986 602.246 815.188 617.83 809.825 632.53C805.409 644.265 806.576 658.303 797.964 668.24C782.317 684.739 783.8 710.259 768.184 726.695C763.736 731.805 758.973 736.695 754.241 741.616C756.796 743.856 759.383 746.127 762.001 748.43C755.881 751.774 749.667 754.992 743.358 757.989L742.695 753.982L741.907 749.061C736.134 752.216 730.14 755.402 726.26 760.891C721.875 766.159 717.616 771.522 713.326 776.885C714.808 777.232 717.711 777.957 719.162 778.304C687.805 793.257 656.259 808.746 629.697 831.554C629.476 835.781 629.319 840.071 629.193 844.393C626.764 844.078 621.905 843.447 619.508 843.163C620.107 841.302 621.369 837.642 622 835.813C628.372 820.481 616.637 806.002 610.549 792.626C623.451 788.557 635.786 782.752 648.877 779.156C639.855 788.147 627.458 792.09 617.521 799.787C635.029 796.191 650.612 786.632 665.124 776.569C692.663 761.995 721.812 750.733 749.478 736.474C779.509 699.092 788.91 650.89 803.295 606.284C804.494 607.829 806.828 610.952 808.027 612.498ZM679.919 786.853C679.572 793.257 686.859 788.904 690.045 787.863C700.423 782.91 714.966 777.326 714.209 763.351C702.506 770.891 692.821 781.175 679.919 786.853Z"></path>
<path fill="#7EA0BA" d="M303.259 646.757C322.061 637.483 325.152 614.738 334.837 598.176C336.761 598.839 340.61 600.132 342.534 600.795C341.02 601.709 337.96 603.602 336.446 604.517C337.739 605.558 340.326 607.64 341.588 608.65C332.25 622.214 329.158 639.533 316.382 650.732C315.814 658.461 315.215 666.253 314.363 673.981C315.341 673.729 317.297 673.193 318.275 672.909C320.452 679.123 323.039 685.212 326.54 690.827C328.464 685.843 330.042 680.732 330.957 675.496C334.111 683.319 331.02 691.584 329.537 699.471C330.641 699.597 332.881 699.881 333.985 700.007C333.953 704.739 332.912 709.692 334.363 714.392C336.603 720.323 344.174 719.534 349.096 721.837C350.357 727.389 351.619 732.973 352.944 738.588C353.733 732.973 354.49 727.389 355.499 721.837C357.613 728.461 359.853 735.118 362.219 741.711C357.581 744.928 352.976 748.178 348.402 751.427C346.887 745.212 345.405 738.998 343.954 732.815C340.389 733.162 336.919 733.603 333.449 733.919C332.976 732.783 332.029 730.512 331.556 729.408C328.812 722.152 325.499 715.181 321.84 708.398C318.086 701.079 314.426 693.666 311.303 686.032C309.789 681.3 308.527 676.6 307.045 671.931C309.442 667.988 311.966 664.108 313.922 659.943C313.512 653.697 307.045 650.795 303.259 646.757Z"></path>
<path fill="#7B91B7" d="M612.315 611.172C622.252 607.513 632.221 603.917 641.716 599.248C642.441 599.311 643.861 599.406 644.587 599.469C646.89 604.706 649.098 610.068 651.59 615.305C648.498 616.977 645.533 618.807 642.82 621.046C636.479 610.541 622.378 614.295 612.315 611.172Z"></path>
<path fill="#D9B572" d="M245.813 609.534C246.665 607.957 248.368 604.802 249.22 603.225C249.504 607.231 249.788 611.237 250.135 615.307C253.384 614.076 256.634 612.909 259.946 611.773C258.81 616.442 257.643 621.143 256.697 625.906C254.299 625.906 249.536 625.875 247.17 625.875C246.697 620.386 246.255 614.96 245.813 609.534Z"></path>
<path fill="#94B8CC" d="M336.446 604.516C337.96 603.602 341.02 601.709 342.534 600.794C348.528 602.718 354.648 604.453 360.767 606.125C363.386 623.917 374.08 640.889 390.452 648.933C422.219 663.097 464.869 643.192 471.273 608.144C480.012 608.428 488.781 608.586 497.583 608.523C496.794 647.766 543.829 671.552 577.773 658.523C597.521 651.835 613.136 632.498 612.316 611.173C622.379 614.296 636.48 610.542 642.821 621.046C651.18 633.034 658.972 645.526 663.957 659.375C663.42 663.255 662.821 667.167 662.095 671.11C661.054 671.331 658.909 671.773 657.837 671.993C655.25 672.435 650.076 673.318 647.489 673.76C645.376 684.075 652.127 692.277 657.332 700.353C657.868 704.58 658.373 708.902 658.846 713.224C657.679 712.751 655.313 711.804 654.146 711.3C650.991 710.006 647.836 708.713 644.745 707.483C641.117 716.789 643.041 726.726 643.925 736.379C639.729 732.593 636.322 727.988 634.429 722.688C634.429 715.117 633.325 707.672 631.464 700.416C616.511 701.363 610.928 722.246 619.161 733.066C617.395 737.199 615.565 741.332 613.767 745.496C611.905 744.549 608.183 742.656 606.322 741.71C601.401 739.912 596.164 735.211 590.864 738.303C584.271 746.82 592.221 757.041 596.038 764.991C593.42 769.628 590.77 774.234 588.025 778.84C585.722 771.143 583.956 756.757 572.504 760.638C573.009 766.095 574.05 771.49 575.091 776.916C564.839 774.96 554.397 774.802 544.05 775.78C550.044 771.521 560.612 768.083 558.309 758.745C553.608 755.906 547.015 750.764 542.315 756.253C540.895 761.742 540.454 767.452 539.791 773.098C534.712 771.742 529.665 770.228 524.523 769.502C517.709 769.06 514.933 776.474 511.084 780.701C498.876 778.808 483.766 784.423 474.396 773.761C473.482 765.338 469.033 757.893 459.727 758.871C454.396 757.357 449.097 756 443.734 754.865C443.418 758.934 443.134 763.067 442.913 767.199C442.724 769.187 442.346 773.13 442.156 775.117C439.16 772.846 433.513 771.994 433.639 767.294C434.301 756.947 436.415 746.473 433.071 736.347C428.812 736.41 424.585 736.505 420.39 736.631C422.692 742.53 425.184 748.398 427.582 754.328C421.746 753.445 415.815 752.688 410.042 753.981C409.159 749.817 408.276 745.59 407.456 741.521C406.825 729.628 392.44 728.429 384.743 734.612C383.512 740.101 382.156 745.622 380.736 751.111C378.307 742.783 376.383 734.36 374.332 726C370.358 718.839 361.714 714.297 355.499 721.836C354.49 727.388 353.733 732.972 352.944 738.587C351.619 732.972 350.357 727.388 349.096 721.836C349.727 716.126 352.66 710.227 350.799 704.612C346.256 700.542 339.505 701.237 333.985 700.006C332.881 699.88 330.641 699.596 329.537 699.47C331.02 691.583 334.111 683.318 330.957 675.495C329.789 674.328 327.486 672.025 326.319 670.858C324.332 671.362 320.294 672.403 318.275 672.908C317.297 673.192 315.341 673.728 314.363 673.981C315.215 666.252 315.814 658.46 316.382 650.731C329.158 639.533 332.25 622.214 341.588 608.649C340.326 607.639 337.739 605.557 336.446 604.516ZM594.618 707.893C587.773 713.476 593.23 729.596 603.703 726.41C613.577 721.331 605.186 700.322 594.618 707.893ZM523.482 731.047C519.791 735.401 524.586 738.776 527.772 741.3C524.302 743.319 517.078 749.25 524.681 751.363C532.914 756 540.201 746.505 538.183 738.745C540.012 730.006 529.444 728.145 523.482 731.047ZM459.57 736.694C458.529 742.625 460.516 748.461 462.188 754.139C468.97 752.688 480.138 754.518 481.589 745.243C485.564 731.962 466.257 729.691 459.57 736.694ZM555.753 739.029C552.788 745.843 562.189 747.609 566.132 750.511C568.94 746.631 574.24 743.729 574.618 738.587C577.11 726.726 556.889 730.354 555.753 739.029ZM488.182 764.739C487.236 771.963 496.163 777.83 502.346 773.54C511.337 769.755 508.624 758.335 505.28 751.395C498.15 753.224 490.043 756.821 488.182 764.739Z"></path>
<path fill="#AA935B" d="M115.592 630.796C110.891 622.09 117.169 609.944 127.011 609.376C132.279 608.272 135.876 613.13 139.756 615.78C151.239 625.938 165.371 632.153 177.99 640.67C174.456 642.721 170.955 644.771 167.485 646.885C150.387 640.859 132.027 638.462 115.592 630.796Z"></path>
<path fill="#586F92" d="M642.821 621.048C645.534 618.808 648.499 616.978 651.59 615.306C657.994 626.726 666.038 637.42 676.259 645.748L673.326 647.01C672.632 650.858 672.001 654.77 671.465 658.714C670.14 660.291 667.521 663.445 666.196 665.023C665.628 663.603 664.524 660.796 663.957 659.376C658.972 645.527 651.18 633.035 642.821 621.048Z"></path>
<path fill="#BF8E6C" d="M167.485 646.883C170.955 644.769 174.456 642.719 177.99 640.668C180.986 642.183 184.078 643.602 187.233 644.927C193.416 647.041 199.819 648.586 206.192 650.164C216.318 665.432 224.173 682.278 236.35 696.126C253.574 715.906 275.088 731.3 296.855 745.685L296.76 746.221C295.972 750.07 295.215 753.95 294.458 757.862C264.773 743.351 233.448 726.537 216.003 697.262C210.545 689.092 208.779 677.703 199.409 672.877C201.113 689.754 207.832 706.442 220.167 718.398C223.258 722.152 228.211 725.149 228.873 730.448C205.561 716.41 193.826 689.659 191.081 663.445C195.466 665.432 199.882 667.388 204.394 669.281C195.182 657.861 180.829 652.025 167.485 646.883Z"></path>
<path fill="#627FA7" d="M295.688 649.691C297.581 648.965 301.366 647.514 303.259 646.757C307.045 650.795 313.512 653.697 313.922 659.943C311.966 664.107 309.442 667.987 307.045 671.931C303.575 669.407 299.915 667.072 296.319 664.864C295.53 675.274 301.839 682.814 311.303 686.032C314.426 693.666 318.086 701.079 321.84 708.398C318.843 713.887 315.089 719.754 316.666 726.347C317.139 732.404 323.07 735.464 326.824 739.534C328.37 736.127 329.947 732.751 331.556 729.407C332.029 730.512 332.975 732.783 333.449 733.919C336.919 733.603 340.389 733.161 343.954 732.814C345.405 738.997 346.887 745.212 348.401 751.427C352.976 748.177 357.581 744.928 362.219 741.71C359.853 735.117 357.613 728.461 355.499 721.836C361.714 714.297 370.358 718.84 374.332 726C371.746 732.72 368.717 739.281 365.342 745.654C369.033 751.994 375.058 756.032 381.714 758.871C381.556 762.562 381.336 766.316 381.556 770.07C389.916 773.509 398.749 775.591 407.266 778.588C406.099 773.666 404.932 768.714 403.828 763.856C405.847 760.512 407.866 757.199 410.042 753.982C415.815 752.688 421.746 753.445 427.582 754.329C429.853 763.035 424.396 770.417 420.137 777.42C434.838 777.263 449.191 781.238 463.891 780.543C464.996 776.032 466.194 771.616 467.362 767.2C469.664 769.376 471.999 771.553 474.396 773.761C483.766 784.424 498.876 778.808 511.084 780.701C514.933 776.474 517.709 769.061 524.523 769.502C529.665 770.228 534.712 771.742 539.791 773.099C540.454 767.452 540.895 761.742 542.315 756.253C547.015 750.764 553.608 755.906 558.309 758.745C560.612 768.083 550.044 771.521 544.05 775.78C554.397 774.802 564.839 774.96 575.091 776.916C574.05 771.49 573.009 766.095 572.504 760.638C583.956 756.758 585.722 771.143 588.025 778.84C580.927 788.462 567.079 777.578 557.299 780.796C552.252 784.045 549.255 789.503 545.627 794.14C493.324 801.301 440.516 792.973 388.717 785.307C328.622 773.793 283.669 714.549 285.089 654.107C288.559 652.561 292.123 651.11 295.688 649.691Z"></path>
<path fill="#6B85AA" d="M673.325 647.009L676.259 645.747C686.796 651.141 697.647 655.842 708.752 659.88C707.553 666.536 706.449 673.224 705.439 679.943C702.789 680.227 700.14 680.511 697.553 680.795L696.764 680.227C697.49 675.116 698.121 668.302 691.78 666.567C683.862 661.141 675.124 665.684 667.773 669.564C667.363 668.429 666.575 666.157 666.196 665.022C667.521 663.444 670.139 660.29 671.464 658.712C672.001 654.769 672.631 650.857 673.325 647.009Z"></path>
<path fill="#88B3C9" d="M663.957 659.376C664.524 660.796 665.628 663.604 666.196 665.023C666.575 666.159 667.363 668.43 667.773 669.566C675.124 665.686 683.862 661.143 691.78 666.569C698.121 668.304 697.49 675.118 696.764 680.228C692.19 676.537 687.206 673.477 681.717 671.553C680.644 677.642 680.676 683.919 683.073 689.755C684.461 689.881 687.237 690.134 688.625 690.26C692.916 694.235 691.433 699.566 690.361 704.582C687.49 705.181 684.682 705.875 681.906 706.538C681.685 712.185 681.528 717.831 681.433 723.541C678.625 719.819 675.849 716.065 672.821 712.658C665.565 712.973 666.417 721.585 664.051 726.538C660.707 721.427 657.395 716.38 654.146 711.301C655.313 711.806 657.679 712.752 658.846 713.226C658.373 708.904 657.868 704.582 657.332 700.355C659.256 703.005 661.244 705.686 663.294 708.336C665.471 701.869 668.941 695.371 668.026 688.399C667.49 681.522 661.748 677.011 657.837 671.995C658.909 671.774 661.054 671.332 662.095 671.111C662.821 667.168 663.42 663.257 663.957 659.376Z"></path>
<path fill="#3E5076" d="M296.319 664.864C299.915 667.072 303.575 669.407 307.045 671.931C308.527 676.599 309.789 681.3 311.303 686.032C301.84 682.814 295.53 675.274 296.319 664.864Z"></path>
<path fill="#5B7CA3" d="M318.275 672.908C320.294 672.403 324.332 671.362 326.319 670.857C327.486 672.025 329.789 674.328 330.957 675.495C330.042 680.731 328.464 685.842 326.54 690.826C323.039 685.211 320.452 679.123 318.275 672.908Z"></path>
<path fill="#658AA8" d="M647.489 673.761C650.076 673.319 655.25 672.436 657.837 671.994C661.748 677.01 667.49 681.521 668.026 688.398C668.941 695.37 665.471 701.868 663.294 708.335C661.243 705.685 659.256 703.004 657.332 700.354C652.127 692.278 645.376 684.076 647.489 673.761Z"></path>
<path fill="#4A5E74" d="M681.716 671.553C687.205 673.477 692.189 676.537 696.764 680.228L697.552 680.796C700.139 680.512 702.789 680.228 705.439 679.944C704.145 688.241 702.537 696.569 699.603 704.487C697.773 699.439 695.975 694.392 694.177 689.408C692.789 689.629 690.013 690.039 688.625 690.26C687.237 690.133 684.461 689.881 683.073 689.755C680.675 683.919 680.644 677.641 681.716 671.553Z"></path>
<path fill="#935C47" d="M199.409 672.877C208.778 677.703 210.545 689.092 216.002 697.262C233.447 726.537 264.772 743.351 294.457 757.862C310.577 765.37 326.445 773.761 343.732 778.398L341.902 774.392C351.24 778.966 360.231 784.298 369.947 788.209L369.663 788.683C368.748 790.228 366.855 793.351 365.941 794.929C359.568 796.38 353.227 797.957 346.792 798.967C325.814 794.392 308.464 781.521 290.293 770.859C269.063 759.755 248.495 747.105 229.409 732.625L228.873 730.448C228.21 725.149 223.258 722.152 220.166 718.398C207.832 706.442 201.113 689.754 199.409 672.877Z"></path>
<path fill="#523534" d="M797.932 685.402C799.162 694.835 799.856 704.961 795.881 713.888C794.493 713.636 791.749 713.068 790.392 712.784C790.55 703.163 794.43 694.172 797.932 685.402Z"></path>
<path fill="#617DA1" d="M688.625 690.26C690.013 690.04 692.789 689.63 694.177 689.409C695.975 694.393 697.774 699.44 699.603 704.488C685.218 734.52 662.158 761.838 631.842 776.634C604.839 789.126 574.397 788.905 545.627 794.142C549.255 789.504 552.252 784.047 557.299 780.798C567.079 777.58 580.927 788.463 588.025 778.842C590.77 774.236 593.419 769.63 596.038 764.993C592.221 757.043 584.271 746.822 590.864 738.305C596.164 735.214 601.401 739.914 606.322 741.712C608.151 747.864 610.107 753.952 612.158 760.103C615.155 756.444 618.246 752.879 621.306 749.283C624.555 752.406 627.868 755.561 631.212 758.715C632.253 752.438 633.262 746.192 634.208 739.914C634.618 745.119 635.092 750.356 635.628 755.655C640.549 753.668 645.534 751.744 650.139 749.031C654.997 745.466 659.571 741.554 664.177 737.643C658.341 734.299 648.499 734.078 647.3 725.971C644.555 719.819 651.18 715.623 654.145 711.302C657.395 716.381 660.707 721.428 664.051 726.538C666.417 721.586 665.565 712.974 672.821 712.658C675.849 716.065 678.625 719.819 681.433 723.542C681.527 717.832 681.685 712.185 681.906 706.538C684.682 705.876 687.49 705.182 690.36 704.582C691.433 699.567 692.915 694.235 688.625 690.26Z"></path>
<path fill="#6282AA" d="M333.985 700.007C339.505 701.237 346.256 700.543 350.799 704.612C352.66 710.228 349.726 716.127 349.095 721.837C344.174 719.534 336.603 720.322 334.363 714.392C332.912 709.691 333.953 704.739 333.985 700.007Z"></path>
<path fill="#678EB0" d="M619.161 733.068C610.928 722.248 616.511 701.364 631.464 700.418C633.325 707.674 634.43 715.118 634.43 722.689C633.672 727.453 632.695 732.153 631.874 736.98C627.616 735.592 623.389 734.267 619.161 733.068Z"></path>
<path fill="#7198B7" d="M594.618 707.894C605.186 700.323 613.577 721.333 603.703 726.412C593.23 729.598 587.772 713.478 594.618 707.894Z"></path>
<path fill="#79ABBF" d="M644.745 707.483C647.836 708.714 650.991 710.007 654.145 711.3C651.18 715.622 644.555 719.818 647.3 725.969C648.499 734.077 658.341 734.298 664.177 737.641C659.571 741.553 654.997 745.465 650.139 749.029C647.048 742.058 641.906 737.957 634.208 739.913C633.262 746.19 632.253 752.436 631.212 758.714C627.868 755.56 624.555 752.405 621.306 749.282C618.246 752.878 615.155 756.443 612.158 760.102C610.107 753.951 608.151 747.862 606.322 741.711C608.183 742.657 611.905 744.55 613.767 745.496C615.565 741.332 617.394 737.2 619.161 733.067C623.388 734.266 627.615 735.591 631.874 736.979C632.694 732.152 633.672 727.452 634.429 722.689C636.322 727.988 639.729 732.594 643.925 736.379C643.041 726.726 641.117 716.789 644.745 707.483Z"></path>
<path fill="#4B5D8C" d="M316.665 726.348C315.088 719.755 318.842 713.887 321.839 708.398C325.498 715.181 328.811 722.153 331.555 729.408C329.946 732.752 328.369 736.127 326.823 739.534C323.069 735.465 317.139 732.405 316.665 726.348Z"></path>
<path fill="#82A8BE" d="M374.332 726.002C376.382 734.362 378.307 742.785 380.736 751.113C382.155 745.624 383.512 740.103 384.742 734.614C386.477 742.28 387.013 751.113 392.881 757.107C402.944 760.356 405.279 748.463 407.455 741.523C408.275 745.592 409.159 749.82 410.042 753.984C407.865 757.201 405.846 760.514 403.827 763.858C404.931 768.716 406.099 773.668 407.266 778.59C398.748 775.593 389.916 773.511 381.556 770.072C381.335 766.318 381.556 762.564 381.714 758.873C375.057 756.034 369.032 751.996 365.341 745.656C368.717 739.283 371.745 732.722 374.332 726.002Z"></path>
<path fill="#6485B0" d="M384.742 734.614C392.44 728.431 406.825 729.63 407.456 741.523C405.279 748.463 402.944 760.356 392.881 757.107C387.014 751.113 386.477 742.28 384.742 734.614Z"></path>
<path fill="#6A8FB2" d="M523.482 731.049C529.444 728.147 540.012 730.008 538.182 738.746C540.201 746.507 532.914 756.002 524.68 751.365C517.078 749.251 524.302 743.321 527.772 741.302C524.586 738.778 519.791 735.402 523.482 731.049Z"></path>
<path fill="#6E8FB4" d="M459.57 736.696C466.258 729.693 485.564 731.964 481.589 745.245C480.138 754.519 468.971 752.689 462.188 754.141C460.516 748.462 458.529 742.626 459.57 736.696Z"></path>
<path fill="#6B90B2" d="M555.753 739.029C556.889 730.353 577.11 726.726 574.618 738.587C574.24 743.729 568.94 746.631 566.132 750.511C562.189 747.609 552.788 745.843 555.753 739.029Z"></path>
<path fill="#6E91B0" d="M420.389 736.633C424.585 736.506 428.812 736.412 433.071 736.349C436.415 746.475 434.301 756.948 433.639 767.295C433.513 771.996 439.159 772.848 442.156 775.119C442.346 773.131 442.724 769.188 442.913 767.201C445.658 770.387 448.402 773.825 452.219 775.939C459.349 774.046 457.046 764.141 459.727 758.873C469.033 757.895 473.481 765.34 474.396 773.762C471.999 771.554 469.664 769.377 467.361 767.201C466.194 771.617 464.995 776.034 463.891 780.545C449.191 781.239 434.837 777.264 420.137 777.422C424.396 770.418 429.853 763.037 427.582 754.33C425.184 748.399 422.692 742.532 420.389 736.633Z"></path>
<path fill="#516183" d="M634.208 739.912C641.906 737.956 647.048 742.057 650.139 749.029C645.533 751.742 640.549 753.666 635.628 755.653C635.092 750.354 634.618 745.117 634.208 739.912Z"></path>
<path fill="#D4A27D" d="M294.457 757.862C295.214 753.95 295.971 750.07 296.76 746.221C312.438 754.518 327.549 763.918 341.902 774.392L343.732 778.398C326.445 773.761 310.577 765.37 294.457 757.862Z"></path>
<path fill="#678AB4" d="M488.181 764.738C490.043 756.82 498.15 753.224 505.279 751.395C508.623 758.335 511.336 769.754 502.346 773.54C496.162 777.83 487.235 771.962 488.181 764.738Z"></path>
<path fill="#503B3D" d="M726.26 760.891C730.14 755.402 736.134 752.216 741.906 749.061L742.695 753.982C737.522 758.209 732.033 761.995 726.449 765.623L726.26 760.891Z"></path>
<path fill="#5E7EAB" d="M443.733 754.865C449.096 756 454.395 757.357 459.727 758.871C457.045 764.139 459.348 774.045 452.219 775.938C448.402 773.824 445.657 770.386 442.913 767.199C443.134 763.067 443.417 758.934 443.733 754.865Z"></path>
<path fill="#5E4042" d="M679.918 786.853C692.821 781.175 702.505 770.891 714.209 763.352C714.966 777.326 700.423 782.91 690.045 787.863C686.858 788.904 679.571 793.257 679.918 786.853Z"></path>
<path fill="#634445" d="M648.877 779.157C654.24 777.989 659.666 777.358 665.124 776.57C650.613 786.633 635.029 796.192 617.521 799.788C627.458 792.091 639.855 788.147 648.877 779.157Z"></path>
<path fill="#C5825A" d="M260.861 818.778C275.593 805.371 293.858 797.106 310.672 786.759C314.079 789.062 317.612 791.523 319.915 795.119C313.354 796.696 306.224 796.759 300.293 800.261C297.675 801.807 295.12 803.51 292.628 805.277C293.259 808.368 293.921 811.491 294.584 814.646C290.136 813.983 285.751 813.353 281.366 812.753C267.359 820.166 259.189 834.835 245.277 842.059C245.561 831.775 254.047 825.182 260.861 818.778Z"></path>
<path fill="#9E604A" d="M365.94 794.93C366.855 793.352 368.748 790.229 369.663 788.684L373.606 789.094C375.814 803.416 370.988 818.274 371.682 832.911C354.237 830.987 337.297 825.088 319.631 825.592C303.101 826.003 286.318 824.52 270.198 828.905C273.447 819.031 285.025 815.466 294.394 817.485C304.709 819.504 315.246 820.103 325.751 819.409C315.404 817.548 304.962 816.286 294.583 814.646C293.921 811.491 293.258 808.368 292.627 805.277C295.12 803.51 297.675 801.807 300.293 800.261C315.782 799.346 331.303 799.504 346.792 798.968C353.227 797.958 359.568 796.381 365.94 794.93Z"></path>
<path fill="#D1702D" d="M380.641 790.387C402.124 794.298 423.796 797.138 445.531 799.598C437.424 813.699 437.739 830.45 433.386 845.782C431.84 846.507 428.749 847.99 427.203 848.715C427.487 834.109 429.727 819.63 433.197 805.497C432.03 805.119 429.664 804.362 428.497 803.983C413.796 799.188 398.338 797.737 383.449 793.794C382.25 797.832 381.114 801.901 380.136 806.065C380.2 800.765 380.389 795.56 380.641 790.387Z"></path>
<path fill="#F8C83C" d="M383.449 793.794C398.339 797.738 413.796 799.189 428.497 803.984C427.803 806.318 426.446 811.05 425.784 813.385C424.143 819 422.692 824.71 421.557 830.482C420.295 829.158 417.803 826.508 416.541 825.183C412.124 825.624 407.613 825.971 403.26 826.476C402.471 819.441 402.093 812.343 401.651 805.34C400.673 805.94 398.654 807.17 397.676 807.769C395.216 814.773 394.869 822.501 391.525 829.189C388.118 831.997 384.269 834.205 380.578 836.571C380.421 827.139 380.074 817.706 379.916 808.306L380.137 806.066C381.115 801.902 382.25 797.832 383.449 793.794Z"></path>
<path fill="#D78933" d="M580.77 795.055C589.571 793.541 601.243 788.903 607.363 798.209C614.019 808.746 618.247 821.932 615.817 834.456C610.328 827.326 605.439 819.598 603.609 810.702C606.259 806.695 607.899 801.995 603.704 798.43C597.899 792.31 588.215 795.339 580.77 795.055Z"></path>
<path fill="#F8D244" d="M573.199 796.664C575.092 796.254 578.877 795.465 580.77 795.055C588.215 795.339 597.899 792.31 603.704 798.43C607.9 801.995 606.259 806.695 603.609 810.702C600.77 807.389 597.931 804.33 594.903 801.333C597.3 815.181 605.376 826.98 610.36 839.945C609.098 841.175 606.575 843.636 605.313 844.866C602.915 840.891 600.423 837.2 598.057 833.32C593.735 824.834 590.265 816.002 586.133 807.516C586.322 811.648 586.606 815.781 586.921 819.976C585.218 824.803 583.388 829.629 581.464 834.424C574.871 825.686 572.189 815.024 571.811 804.266C572.158 802.374 572.852 798.557 573.199 796.664Z"></path>
<path fill="#D8946B" d="M497.077 803.1C520.579 802.911 544.522 804.236 567.456 797.801C563.797 808.148 562.977 819.126 563.45 830.041C553.324 824.079 542.819 817.675 530.705 817.485C515.468 817.138 500.926 812.47 487.046 806.539C490.358 805.34 493.67 804.11 497.077 803.1Z"></path>
<path fill="#B47158" d="M449.537 800.449C465.405 801.017 481.273 801.742 497.077 803.099C493.67 804.108 490.358 805.338 487.046 806.537C500.926 812.468 515.469 817.137 530.705 817.484C542.819 817.673 553.324 824.077 563.45 830.039C565.343 840.197 566.889 850.481 570.422 860.292C574.018 868.115 579.917 874.613 584.586 881.869C573.324 884.235 562.031 877.894 552.283 872.878C553.639 872.437 556.384 871.49 557.74 871.049C560.643 869.503 563.482 867.863 566.321 866.159C545.311 867.989 524.68 861.869 504.428 857.011C522.377 851.9 541.021 851.112 559.507 849.598C561.147 848.588 564.397 846.632 566.037 845.654C555.627 839.881 543.545 837.168 531.715 838.588C530.106 837.295 528.529 836.096 527.015 834.96C517.014 845.938 500.264 838.493 487.235 840.701C472.629 838.588 458.15 835.623 443.607 833.067C443.197 831.269 442.377 827.705 441.967 825.906C462.03 829.881 482.535 830.985 502.882 832.626C498.371 831.175 493.418 830.323 490.011 826.853C476.068 820.796 460.579 822.657 446.004 819.313C446.825 812.941 448.023 806.632 449.537 800.449Z"></path>
<path fill="#B15734" d="M594.902 801.334C597.93 804.331 600.77 807.391 603.609 810.703C605.438 819.599 610.328 827.328 615.817 834.457C614.745 835.561 612.568 837.738 611.495 838.842L610.359 839.946C605.375 826.981 597.3 815.183 594.902 801.334Z"></path>
<path fill="#FB9D22" d="M592.978 878.083C571.179 861.238 567.835 829.692 571.81 804.266C572.189 815.023 574.87 825.685 581.463 834.424C583.388 829.629 585.217 824.802 586.921 819.975C589.728 839.187 596.448 858.493 592.978 878.083Z"></path>
<path fill="#E79231" d="M377.896 842.785C377.581 831.27 377.675 819.63 379.915 808.305C380.073 817.706 380.42 827.138 380.578 836.57C384.269 834.204 388.117 831.996 391.524 829.188C394.868 822.5 395.215 814.772 397.676 807.769C397.234 820.986 396.887 835.277 388.748 846.444C385.751 850.892 377.013 848.242 377.896 842.785Z"></path>
<path fill="#DC7036" d="M421.556 830.481C422.692 824.708 424.143 818.998 425.783 813.383C425.373 827.074 422.66 840.512 421.556 854.14C416.193 854.14 410.389 854.519 406.603 850.039C410.483 845.97 414.837 842.437 419.726 839.692C420.294 836.569 420.894 833.509 421.556 830.481Z"></path>
<path fill="#F2A23C" d="M403.26 826.476C407.613 825.971 412.124 825.624 416.541 825.183C417.802 826.508 420.295 829.157 421.557 830.482C420.894 833.511 420.295 836.571 419.727 839.694C414.837 842.438 410.484 845.971 406.604 850.041C406.288 842.091 404.711 834.236 403.26 826.476Z"></path>
<path fill="#88574A" d="M527.015 834.961C528.529 836.097 530.106 837.295 531.715 838.589C533.482 840.45 537.015 844.204 538.782 846.065C525.627 844.835 512.472 843.51 499.254 843.889C507.236 844.583 515.185 845.655 523.04 847.516C505.816 851.302 488.056 850.482 470.831 847.39C460.831 846.097 450.2 842.185 440.61 847.169C440.989 843.415 441.399 839.693 441.841 836.002C457.014 837.138 471.936 841.554 487.235 840.702C500.264 838.494 517.015 845.939 527.015 834.961Z"></path>
<path fill="#513632" d="M531.716 838.59C543.545 837.171 555.628 839.883 566.038 845.656C564.397 846.634 561.148 848.59 559.508 849.6C541.022 851.114 522.378 851.902 504.428 857.013C499.476 858.212 494.491 856.161 489.696 855.436C472.945 851.492 455.627 850.893 438.718 847.865L440.611 847.171C450.201 842.186 460.832 846.098 470.832 847.391C488.056 850.483 505.816 851.303 523.041 847.517C515.186 845.656 507.236 844.584 499.255 843.89C512.473 843.511 525.627 844.836 538.782 846.067C537.015 844.205 533.482 840.451 531.716 838.59Z"></path>
<path fill="#EA8329" d="M610.359 839.945L611.495 838.84C615.88 849.093 629.066 858.715 622.441 870.765C612.221 866.317 611.148 853.289 605.312 844.866C606.574 843.635 609.097 841.175 610.359 839.945Z"></path>
<path fill="#38252E" d="M552.284 872.879C545.312 868.778 560.107 864.173 557.741 871.05C556.385 871.491 553.64 872.438 552.284 872.879Z"></path>
</svg>
