<svg xmlns="http://www.w3.org/2000/svg" fill="none" viewBox="0 0 1024 1024" height="1024" width="1024">
<rect fill="#2F3136" height="1024" width="1024"></rect>
<path fill="#FEFEFD" d="M455.746 106.421C469.304 99.0889 483.652 91.1879 499.865 93.3685C510.263 92.3572 517.311 103.608 527.898 100.985C542.025 99.5945 557.479 102.787 567.94 112.963C582.541 126.332 583.458 149.371 576.663 166.848C599.07 175.855 622.078 183.851 642.557 196.998C669.484 214.222 696.41 232.869 716.258 258.341C736.611 283.783 752.097 313.427 759.46 345.284C763.253 359.348 764.233 374.359 771.185 387.412C785.154 381.281 799.566 373.032 815.463 376.319C824.059 376.888 834.962 383.714 841.852 375.56C857.812 360.233 878.449 349.14 900.888 348.097C916.09 348.729 931.702 356.25 937.549 371.073C946.619 390.477 937.422 411.052 933.978 430.457C949.59 446.1 956.48 470.372 948.926 491.515C942.416 512.216 927.246 528.302 912.234 543.219C896.369 560.222 879.966 577.921 872.034 600.233C862.458 630.257 860.277 662.019 860.814 693.402C868.494 700.955 880.251 704.273 886.255 713.944C897.57 731.611 898.233 755.093 889.416 773.928C882.558 788.877 866.598 798.832 850.353 799.654C794.446 799.307 738.222 816.341 692.713 849.051C673.75 862.546 662.942 884.195 644.359 898.101C625.997 911.374 608.52 928.662 584.785 930.842C556.752 934.477 535.23 912.923 510.389 904.39C482.452 895.225 452.997 891.369 423.731 889.883C405.559 888.303 386.597 888.967 369.783 880.813C347.313 869.088 321.271 869.688 296.683 871.111C276.868 872.28 259.485 887.229 239.132 883.215C221.497 880.371 207.529 865.485 204.337 848.166C201.745 830.816 202.093 810.779 214.956 797.284C217.452 793.017 224.247 790.141 223.267 784.674C189.104 764.289 158.953 733.95 147.513 694.982C147.355 692.422 147.039 687.302 146.88 684.742C130.826 680.096 113.475 678.769 99.3166 669.003C82.7877 659.87 74.9182 641.571 72.0107 623.778C71.8211 610.346 74.1281 596.441 81.3023 584.873C86.1693 576.846 93.6911 571.063 99.7907 564.047C103.394 559.18 98.5582 553.997 96.4723 549.667C87.1491 534.75 81.3655 517.747 79.5641 500.27C75.74 475.935 76.214 447.965 93.375 428.402C108.735 409.535 136.957 405.489 158.542 415.223C176.399 423.156 188.25 439.527 199.722 454.634C207.086 448.376 213.755 441.392 220.455 434.407C211.732 394.807 219.633 353.122 236.067 316.587C259.264 267.696 299.749 229.645 343.363 198.831C358.311 188.781 372.754 177.972 386.691 166.595C387.861 153.258 390.8 139.542 399.934 129.207C413.144 112.647 434.824 104.43 455.746 106.421ZM468.325 153.827C460.044 145.863 446.075 140.49 436.278 149.023C424.711 156.513 424.837 171.525 429.768 182.934C413.334 191.372 401.956 206.384 387.229 216.972C353.634 235.523 323.673 260.554 299.18 290.103C276.172 318.61 259.169 352.964 255.598 389.782C253.986 405.932 259.296 421.607 261.003 437.536C262.551 447.839 254.05 455.392 249.277 463.483L247.887 463.641C227.85 489.619 216.947 521.666 216.062 554.407C218.874 561.107 228.324 560.633 231.548 566.859C232.433 580.038 231.168 593.375 233.159 606.491C234.392 610.378 238.69 611.389 241.819 613.412C242.23 620.396 244 628.455 251.458 631.142C259.58 633.67 262.804 641.887 268.587 647.386C271.147 646.312 273.739 645.269 276.362 644.257C273.486 680.728 288.972 716.188 312.233 743.589C308.946 741.851 305.691 740.049 302.467 738.279C268.145 714.987 232.622 688.44 216.473 648.745C194.16 607.565 198.142 558.579 180.981 515.756C169.667 494.581 161.703 470.72 144.415 453.464C136.514 444.647 117.679 449.577 118.153 462.282C117.489 480.359 119.733 498.563 124.537 516.008C128.708 531.178 138.158 544.01 144.858 558.073C156.457 581.492 161.45 607.85 176.019 629.814C162.019 622.64 150.009 612.401 136.957 603.804C132.216 600.138 125.706 599.285 120.428 602.224C106.965 606.775 104.626 629.119 118.374 634.871C137.431 644.573 162.398 641.634 178.706 656.931C185.343 671.848 186.417 688.882 194.919 703.136C208.129 725.417 229.209 741.914 251.269 754.903C267.165 764.289 285.021 769.662 300.95 778.985C291.058 786.444 280.123 792.638 271.369 801.519C261.793 808.187 252.596 815.519 244.442 823.831C239.891 828.509 241.724 835.651 241.503 841.529C244.568 841.087 247.602 840.328 250.573 839.285C287.613 820.671 330.91 826.233 370.131 833.628C370.637 836.757 371.206 839.886 371.774 843.046C380.687 850.284 392.285 846.049 396.489 835.999C398.796 843.015 401.166 850.853 408.435 854.392C416.778 858.311 425.628 854.076 430.495 846.934C446.328 849.525 462.288 851.927 478.312 853.033C494.651 857.774 511.685 860.492 527.329 867.666C548.251 875.409 567.34 890.01 590.442 890.326C589.589 888.335 587.819 884.353 586.934 882.362L584.438 876.61C586.776 877.084 591.485 878.064 593.824 878.538C597.49 874.05 600.24 868.962 602.009 863.463C606.718 869.499 613.64 878.791 622.11 872.596C634.182 867.255 634.751 853.539 633.076 842.193C657.221 825.664 681.462 808.946 707.851 796.083C750.358 776.078 796.374 759.549 844.064 761.634C854.399 763.815 866.187 750.921 858.539 741.692C847.288 725.164 821.151 731.706 810.596 715.714C818.56 674.534 819.919 631.711 835.5 592.269C845.771 565.153 862.584 540.944 882.558 520.085C892.576 508.202 905.281 498.026 911.886 483.646C913.877 477.388 915.11 465.948 906.956 464.02C890.554 461.397 877.312 473.059 864.322 480.991C877.944 455.36 895.042 431.373 904.965 403.909C906.956 398.916 906.419 393.543 905.439 388.423C893.303 384.726 882.463 393.606 876.743 403.498C863.437 425.052 853.261 448.755 847.604 473.47C844.001 493.001 840.272 512.532 834.804 531.652C834.931 532.506 835.215 534.244 835.373 535.097C834.235 535.729 831.992 536.962 830.854 537.594C825.702 501.249 826.303 463.83 818.275 427.802C812.523 414.686 793.593 419.964 788.726 431.057C780.635 449.293 782.911 470.183 789.895 488.418C798.333 510.415 799.376 534.118 803.105 557.157C804.117 563.509 804.085 570.051 803.137 576.435C798.713 606.838 787.461 635.693 777.791 664.705C770.174 682.53 764.77 702.567 749.6 715.777C732.439 732.654 706.776 734.866 687.34 748.171C675.362 756.515 662.12 763.278 647.456 765.079C677.954 743.873 706.555 714.987 714.836 677.505C717.111 669.857 719.102 662.114 720.366 654.244C722.926 653.707 728.015 652.696 730.543 652.158L727.572 651.4C731.586 650.515 735.694 649.82 739.834 649.346C744.733 643.531 748.778 636.894 755.352 632.754C761.831 628.93 759.144 620.807 759.366 614.739C760.977 613.696 764.169 611.642 765.75 610.631C773.556 595.777 765.37 580.386 765.497 565.121C769.1 562.277 772.513 559.18 775.736 555.924C776.906 544.895 777.601 533.612 775.326 522.677C768.878 494.676 749.758 472.269 738.507 446.417C733.197 402.55 729.974 356.788 708.641 317.03C683.073 264.473 632.476 228.57 578.78 208.786C558.87 202.497 542.752 187.675 521.893 183.819C534.25 173.959 547.745 159.042 542.057 141.912C531.406 138.973 520.819 142.291 512.001 148.359C507.924 139.763 500.308 130.914 489.657 132.652C479.26 135.434 472.781 144.662 468.325 153.827Z"></path>
<path fill="#3F2A2A" d="M801.462 653.675C797.922 678.99 788.725 704.051 771.027 722.951C769.731 722.919 767.108 722.856 765.781 722.824C773.619 712.458 783.669 702.945 787.019 689.988C790.4 677.346 794.13 664.641 801.462 653.675Z"></path>
<path fill="#3F2A2A" d="M379.454 783.915C401.229 784.452 422.688 788.497 444.211 791.468C443.104 795.924 442.03 800.444 440.829 804.932C441.113 801.803 441.714 795.545 442.03 792.385C438.869 792.258 432.549 792.006 429.388 791.879C429.451 800.981 429.262 810.083 428.756 819.217C428.092 827.592 426.386 836.346 429.736 844.437C429.925 845.069 430.305 846.301 430.495 846.933C425.628 854.076 416.778 858.311 408.435 854.392C408.024 852.717 407.265 849.398 406.855 847.723C411.216 847.344 415.577 846.965 420.002 846.617C420.318 844.753 420.918 840.96 421.234 839.064C422.688 829.14 423.289 819.122 424.395 809.198C424.932 804.3 425.343 799.433 425.754 794.566L426.07 790.678C410.932 789.161 395.92 786.917 380.845 785.179C380.339 787.581 379.328 792.416 378.79 794.818C378.98 792.1 379.296 786.633 379.454 783.915Z"></path>
<path fill="#322940" d="M290.806 563.509C293.619 558.515 295.483 550.772 301.614 549.097C309.326 555.45 297.506 563.414 290.806 563.509Z"></path>
<path fill="#FCE988" d="M882.59 405.553C887.267 399.643 893.019 391.299 901.678 394.396C884.865 404.099 875.858 422.808 867.862 439.748C864.449 448.629 860.846 457.51 855.916 465.663C862.521 444.773 870.232 423.82 882.59 405.553Z"></path>
<path fill="#A87458" d="M867.862 439.748C875.858 422.808 884.865 404.098 901.679 394.396C898.013 408.839 888.974 421.259 880.03 432.89C875.985 435.26 871.939 437.504 867.862 439.748Z"></path>
<path fill="#A87458" d="M807.404 475.113C809.711 492.685 810.438 510.447 813.946 527.892C817.075 541.355 824.438 553.744 825.102 567.808C824.691 571.158 824.186 574.508 823.585 577.858C819.603 587.181 818.307 597.294 816.095 607.123C809.869 622.198 806.898 638.316 801.462 653.676C794.13 664.642 790.401 677.347 787.019 689.989C783.669 702.946 773.619 712.459 765.781 722.825C763.443 725.606 761.294 728.577 759.176 731.548C760.567 733.097 761.989 734.708 763.443 736.32C761.704 736.668 758.196 737.426 756.458 737.774C756.079 740.018 755.384 744.537 755.004 746.781C747.23 749.151 739.74 752.343 732.25 755.441C732.123 752.786 731.839 747.508 731.681 744.853C723.084 752.881 717.143 764.416 705.576 768.651C697.359 772.096 688.984 775.604 682.6 782.051C686.013 782.335 692.839 782.936 696.253 783.22C671.696 796.873 647.361 811.158 627.008 830.784C624.796 813.434 621.762 795.925 612.597 780.724C622.773 777.026 632.981 773.36 642.873 768.967C657.19 774.308 670.559 765.459 682.537 758.569C703.838 744.853 727.54 734.898 751.939 728.166C757.943 718.179 764.264 708.414 770.459 698.553C780.035 683.257 783.511 665.274 789.516 648.461C796.848 628.045 803.453 607.313 808.036 586.106C812.745 565.153 807.657 543.852 805.571 522.93C805.16 506.97 805.918 490.978 807.404 475.113Z"></path>
<path fill="#E69566" d="M273.865 805.216C285.717 796.778 298.39 788.718 312.991 786.127C310.684 790.457 307.334 793.649 302.972 795.671C299.18 797.125 295.451 798.611 291.785 800.222C297.6 800.475 303.51 800.728 309.42 800.981L309.293 802.877C301.582 803.162 293.523 802.719 286.475 806.354C270.768 812.232 260.844 826.327 247.855 836.093C247.823 833.881 247.792 829.456 247.792 827.244C255.946 819.311 264.605 811.884 273.865 805.216Z"></path>
<path fill="#2F2539" d="M711.738 532.285C719.544 533.455 725.328 542.872 719.007 549.32C709.905 562.878 686.36 554.503 686.202 538.701C695.557 536.836 695.904 551.721 704.88 550.742C710.695 551.753 713.698 546.222 716.068 542.019C714.519 538.795 713.097 535.54 711.738 532.285Z"></path>
<path fill="#2F2539" d="M741.161 539.491C742.678 539.459 745.712 539.333 747.229 539.301C747.071 541.482 746.692 545.843 746.502 548.024C751.843 552.038 756.584 557.79 763.379 559.37C765.401 556.525 767.298 553.618 769.068 550.616C770.711 551.943 774.061 554.598 775.736 555.925C772.512 559.18 769.099 562.277 765.496 565.122C765.37 580.386 773.555 595.778 765.749 610.631C764.169 611.643 760.977 613.697 759.365 614.74C759.144 620.808 761.83 628.93 755.351 632.754C748.778 636.894 744.733 643.531 739.834 649.346C735.694 649.82 731.585 650.516 727.572 651.401C724.79 651.875 722.072 652.412 719.418 652.981C719.576 657.563 718.122 660.218 715.025 660.945C714.329 659.017 712.939 655.161 712.244 653.234C700.55 645.807 687.877 640.213 674.856 635.693C655.072 619.101 648.846 591.321 647.076 566.67C649.478 569.293 652.386 571.79 652.67 575.677C656.21 592.459 660.318 609.778 670.495 623.968C677.732 632.47 690.374 638.38 701.245 633.323C705.923 645.396 718.722 646.85 730.1 645.838C728.899 642.646 727.824 639.486 726.845 636.294L727.73 630.542C731.427 634.714 735.22 638.854 739.044 642.994C740.782 639.612 742.552 636.231 744.353 632.881C742.994 628.677 741.667 624.474 740.434 620.302C742.046 623.779 743.595 627.255 745.27 630.795C747.45 629.91 751.843 628.14 754.024 627.255C753.55 622.262 753.107 617.331 752.728 612.37C757.848 608.925 764.169 605.069 764.011 597.99C764.264 586.486 758.164 575.899 757.311 564.458C751.496 559.054 745.744 553.618 739.992 548.214C740.276 546.033 740.877 541.672 741.161 539.491Z"></path>
<path fill="#2B1F36" d="M468.324 153.827C472.78 144.662 479.259 135.433 489.657 132.652C500.307 130.914 507.924 139.763 512.001 148.359C520.818 142.291 531.406 138.973 542.056 141.912C547.745 159.041 534.25 173.958 521.893 183.819C542.752 187.675 558.87 202.497 578.78 208.786C632.475 228.57 683.073 264.472 708.641 317.03C729.973 356.787 733.197 402.55 738.507 446.416C749.758 472.268 768.878 494.676 775.325 522.677C777.601 533.612 776.905 544.894 775.736 555.924C774.061 554.597 770.711 551.942 769.068 550.615C773.239 519.896 756.331 492.495 740.687 467.686C733.513 456.656 729.405 443.888 729.12 430.709C725.549 393.606 720.524 355.586 703.426 321.928C687.34 289.313 661.835 261.786 631.021 242.571C610.763 229.36 588.767 219.057 566.423 209.892C571.954 220.321 577.105 232.457 572.112 244.151C563.168 256.35 547.65 251.42 536.368 245.826C528.972 256.792 523.189 271.077 510.042 276.166C499.201 278.662 490.984 268.865 486.244 260.49C484.347 263.65 482.483 266.779 480.65 269.94C476.194 271.393 471.738 272.879 467.408 274.459C450.31 266.084 443.199 247.501 440.987 229.708C440.418 243.234 441.903 256.792 440.449 270.256C437.795 276.608 431.253 282.834 423.857 280.559C410.299 278.378 406.38 263.429 402.778 252.273C398.732 251.23 394.719 250.219 390.8 249.049C389.251 247.69 386.091 244.973 384.51 243.614C384.953 236.471 386.375 229.455 388.493 222.66C347.565 247.216 309.325 279.042 285.116 320.822C268.935 349.013 256.451 382.481 263.752 415.318C265.174 424.578 268.082 433.901 266.723 443.382C264.984 450.525 260.781 456.782 256.514 462.661C254.681 462.882 251.079 463.293 249.277 463.482C254.049 455.392 262.551 447.838 261.002 437.535C259.296 421.607 253.986 405.932 255.598 389.782C259.169 352.963 276.172 318.61 299.18 290.103C323.673 260.553 353.633 235.523 387.229 216.971C401.956 206.384 413.333 191.372 429.767 182.934C424.837 171.525 424.711 156.513 436.278 149.023C446.075 140.49 460.044 145.862 468.324 153.827ZM476.288 150.982C470.505 161.096 473.697 173.168 473.697 184.198L474.898 181.543C488.772 182.333 502.867 180.911 516.647 179.426C528.403 172.726 539.149 159.768 537.695 145.452L534.155 147.19C525.338 146.431 517.405 150.793 510.926 156.292C509.315 163.245 508.398 170.292 508.082 177.435C507.513 176.708 506.375 175.223 505.838 174.464C508.461 163.497 506.091 151.52 499.296 142.481C498.632 141.47 497.305 139.479 496.641 138.467C487.824 137.266 480.081 143.524 476.288 150.982ZM437.099 153.985C435.235 158.883 431.727 163.434 431.98 168.902C434.224 174.559 438.553 178.952 442.061 183.85C450.594 187.517 459.949 185.81 468.893 184.893C469.715 172.22 467.566 156.481 454.482 150.761C448.509 146.747 442.156 150.635 437.099 153.985ZM459.286 190.076L459.064 187.801C454.861 196.302 449.52 204.488 446.96 213.685C445.19 231.256 449.046 250.598 461.277 263.903C466.049 269.971 476.478 270.161 479.575 262.323C486.433 252.178 480.176 240.674 475.751 231.035C475.593 218.552 475.783 206.068 476.636 193.616C479.228 206.163 476.857 219.089 478.406 231.762C479.07 242.097 486.117 250.314 491.142 258.878C493.323 263.872 498.222 268.043 503.057 270.825C514.087 275.028 517.216 259.637 525.591 255.465L526.665 251.609C536.21 239.789 526.286 224.493 523.126 211.978C518.606 202.971 519.712 187.264 507.039 186.031C496.736 187.896 486.244 188.56 476.131 191.214C473.507 189.35 470.853 187.548 468.198 185.842C465.986 186.884 461.529 189.002 459.286 190.076ZM428.44 189.918L428.314 191.246C413.46 201.675 396.71 213.432 391.274 231.667C389.03 238.241 393.518 244.246 399.396 246.711C402.209 245.921 407.834 244.34 410.647 243.582C409.193 251.199 411.342 259.321 414.503 266.337C417.316 272.658 425.027 278.726 432.043 274.554C437.921 269.529 437.226 260.711 437.668 253.695C437.289 240.39 439.438 226.863 436.309 213.779L439.881 219.373C441.967 209.45 447.908 201.169 454.418 193.679C445.759 192.447 437.289 188.212 428.44 189.918ZM519.997 189.508C524.674 206.194 533.144 221.649 536.589 238.747C538.485 239.758 542.278 241.781 544.174 242.792C545.722 240.074 547.303 237.388 548.914 234.733C549.009 237.261 549.167 242.318 549.23 244.815C553.845 245.352 559.091 248.575 563.484 245.383C570.753 237.862 568.351 226.579 564.969 217.888C558.174 208.249 548.756 200.885 538.106 195.955C532.417 192.921 526.223 190.961 519.997 189.508Z"></path>
<path fill="#FBFFF7" d="M476.289 150.983C480.082 143.524 487.825 137.267 496.642 138.468C497.306 139.479 498.633 141.47 499.297 142.481C490.068 148.865 484.348 158.663 480.429 168.934C478.628 173.169 476.763 177.341 474.899 181.544L473.698 184.199C473.698 173.169 470.506 161.096 476.289 150.983Z"></path>
<path fill="#B1C1D7" d="M480.43 168.933C484.349 158.662 490.069 148.865 499.297 142.481C506.092 151.52 508.462 163.498 505.839 174.464C501.699 169.218 497.243 164.288 492.692 159.421C490.669 163.466 488.741 167.543 486.814 171.62C485.233 170.956 482.041 169.629 480.43 168.933Z"></path>
<path fill="#FFFFFA" d="M510.926 156.293C517.405 150.794 525.338 146.432 534.155 147.191C528.719 156.546 522.841 165.869 513.486 171.842C512.57 166.659 511.622 161.476 510.926 156.293Z"></path>
<path fill="#828EB5" d="M534.156 147.19L537.696 145.452C539.149 159.769 528.404 172.726 516.647 179.426C502.868 180.912 488.773 182.334 474.898 181.544C476.763 177.341 478.628 173.169 480.429 168.934C482.041 169.629 485.233 170.957 486.813 171.62C488.741 167.543 490.669 163.466 492.691 159.421C497.242 164.288 501.699 169.218 505.839 174.465C506.376 175.223 507.514 176.708 508.083 177.435C508.399 170.293 509.315 163.245 510.927 156.292C511.622 161.475 512.57 166.658 513.487 171.841C522.842 165.868 528.72 156.545 534.156 147.19Z"></path>
<path fill="#9DAAC5" d="M437.1 153.984C442.156 150.634 448.509 146.747 454.482 150.761C467.566 156.481 469.715 172.22 468.893 184.893C459.95 185.81 450.595 187.516 442.062 183.85C446.139 178.477 450.374 173.263 454.672 168.111C447.624 164.951 444.558 156.702 437.1 153.984Z"></path>
<path fill="#FEFCF8" d="M437.1 153.985C444.558 156.703 447.624 164.952 454.672 168.112C450.373 173.264 446.139 178.478 442.062 183.851C438.554 178.952 434.224 174.559 431.98 168.902C431.727 163.435 435.235 158.884 437.1 153.985Z"></path>
<path fill="#EEF1EF" d="M459.286 190.077C461.53 189.003 465.986 186.885 468.198 185.842C470.853 187.549 473.508 189.35 476.131 191.215L476.637 193.617C475.783 206.069 475.594 218.552 475.752 231.036C475.467 239.853 474.74 248.639 473.855 257.425C470.094 256.224 464.817 256.698 463.679 251.926C459.95 243.551 458.243 234.354 457.327 225.316C457.011 213.496 461.656 201.929 459.286 190.077Z"></path>
<path fill="#A4B0C6" d="M476.131 191.215C486.244 188.56 496.737 187.896 507.04 186.032C505.744 187.454 503.216 190.235 501.92 191.657C499.518 194.186 497.4 196.904 495.567 199.874C494.746 220.006 503.563 238.558 507.482 257.931C503.058 254.834 498.696 251.768 494.335 248.671C493.197 252.052 492.123 255.466 491.143 258.879C486.118 250.314 479.07 242.097 478.406 231.763C476.858 219.09 479.228 206.163 476.637 193.617L476.131 191.215Z"></path>
<path fill="#8A8DAC" d="M507.04 186.032C519.713 187.264 518.607 202.971 523.126 211.979C526.286 224.494 536.21 239.79 526.666 251.61C515.225 232.932 511.496 211.094 501.92 191.657C503.215 190.235 505.744 187.454 507.04 186.032Z"></path>
<path fill="#9AA6C9" d="M428.44 189.919C437.289 188.212 445.759 192.447 454.419 193.68C447.908 201.17 441.967 209.45 439.881 219.374L436.31 213.78C437.447 208.755 438.522 203.73 439.565 198.673C428.82 207.111 421.93 219.121 416.304 231.32C414.313 235.365 412.354 239.41 410.647 243.582C407.834 244.341 402.209 245.921 399.396 246.711C399.491 225.979 416.905 211.378 427.777 195.449C427.903 194.375 428.156 192.289 428.314 191.246L428.44 189.919Z"></path>
<path fill="#A1A2C9" d="M446.961 213.685C449.521 204.488 454.862 196.303 459.065 187.801L459.287 190.077C461.657 201.928 457.011 213.495 457.327 225.315C458.244 234.354 459.95 243.551 463.68 251.926C464.817 256.698 470.095 256.224 473.856 257.425C474.741 248.639 475.468 239.853 475.752 231.035C480.177 240.675 486.434 252.179 479.576 262.323C476.479 270.161 466.05 269.972 461.278 263.904C449.047 250.598 445.191 231.257 446.961 213.685Z"></path>
<path fill="#A2A6C1" d="M519.997 189.509C526.223 190.963 532.417 192.922 538.106 195.956C536.304 196.177 532.67 196.651 530.837 196.904C538.928 210.715 546.607 224.779 554.793 238.558C555.709 233.501 556.689 228.476 557.637 223.483C559.47 222.092 563.136 219.28 564.969 217.889C568.351 226.58 570.753 237.863 563.484 245.385C559.091 248.577 553.844 245.353 549.23 244.816C549.167 242.319 549.009 237.262 548.914 234.734C547.302 237.389 545.722 240.075 544.174 242.793C542.277 241.782 538.485 239.759 536.589 238.748C533.144 221.65 524.674 206.196 519.997 189.509Z"></path>
<path fill="#F9FAFA" d="M391.274 231.669C396.71 213.433 413.46 201.676 428.314 191.247C428.156 192.29 427.903 194.376 427.777 195.45C416.905 211.379 399.491 225.98 399.397 246.712C393.518 244.247 389.03 238.242 391.274 231.669Z"></path>
<path fill="#E2E8E8" d="M495.567 199.874C497.4 196.903 499.518 194.185 501.92 191.657C511.496 211.093 515.225 232.932 526.666 251.609L525.591 255.465C520.945 252.621 516.394 249.745 511.844 246.837C511.559 251.357 511.306 255.908 511.053 260.459C510.169 259.826 508.367 258.562 507.482 257.93C503.563 238.557 494.746 220.006 495.567 199.874Z"></path>
<path fill="#E7EDE9" d="M530.838 196.903C532.671 196.65 536.305 196.176 538.107 195.955C548.757 200.885 558.175 208.249 564.97 217.888C563.137 219.279 559.471 222.092 557.638 223.482C556.69 228.476 555.71 233.501 554.794 238.557C546.608 224.778 538.929 210.714 530.838 196.903Z"></path>
<path fill="#DEE3E8" d="M416.304 231.32C421.93 219.121 428.819 207.111 439.565 198.673C438.522 203.729 437.447 208.755 436.31 213.78C425.754 226.137 423.889 242.476 423.32 258.088C421.551 257.045 417.979 254.991 416.178 253.948C416.083 246.395 415.988 238.841 416.304 231.32Z"></path>
<path fill="#A6B1CC" d="M423.321 258.089C423.89 242.476 425.755 226.137 436.31 213.78C439.439 226.864 437.29 240.39 437.669 253.696C437.227 260.712 437.922 269.529 432.044 274.554C425.028 278.726 417.317 272.658 414.504 266.337C411.343 259.321 409.194 251.199 410.648 243.582C412.355 239.411 414.314 235.365 416.305 231.32C415.989 238.842 416.084 246.395 416.179 253.948C417.98 254.991 421.551 257.046 423.321 258.089Z"></path>
<path fill="#A1BFC8" d="M566.424 209.892C588.768 219.057 610.764 229.36 631.022 242.571C661.836 261.786 687.34 289.313 703.427 321.928C720.525 355.586 725.55 393.606 729.121 430.709C729.405 443.888 733.514 456.656 740.688 467.686C756.332 492.495 773.24 519.896 769.068 550.615C767.299 553.617 765.402 556.524 763.38 559.369C756.585 557.789 751.844 552.037 746.503 548.023C746.693 545.842 747.072 541.481 747.23 539.3C745.713 539.332 742.679 539.458 741.162 539.49C740.878 541.671 740.277 546.032 739.993 548.213C736.232 540.944 732.629 533.58 730.101 525.837C722.01 501.249 707.409 479.316 700.235 454.38C692.713 428.086 696.98 400.116 689.616 373.759C675.773 314.406 630.011 263.524 572.112 244.151C577.106 232.457 571.954 220.321 566.424 209.892Z"></path>
<path fill="#D5E4ED" d="M285.116 320.822C309.325 279.042 347.565 247.216 388.493 222.66C386.375 229.455 384.953 236.471 384.51 243.614C357.837 257.456 332.775 275.597 314.855 300.058C303.857 313.174 296.968 329.798 283.062 340.385C284.389 333.969 286.949 327.396 285.116 320.822Z"></path>
<path fill="#CCE2E3" d="M440.45 270.257C441.904 256.794 440.418 243.235 440.987 229.709C443.2 247.502 450.311 266.085 467.408 274.46C471.738 272.88 476.194 271.395 480.65 269.941C482.483 266.78 484.348 263.652 486.244 260.491C490.985 268.866 499.202 278.663 510.042 276.167C523.189 271.079 528.973 256.794 536.368 245.827C547.651 251.421 563.168 256.351 572.112 244.152C630.011 263.525 675.773 314.408 689.616 373.76C696.98 400.118 692.713 428.087 700.235 454.382C707.409 479.317 722.01 501.25 730.101 525.838C732.629 533.581 736.232 540.945 739.993 548.214C741.13 561.551 734.778 576.12 744.607 587.498C742.616 587.75 738.665 588.288 736.674 588.541C734.494 595.873 732.313 603.236 730.29 610.632C713.034 620.461 688.383 618.817 675.141 603.11C663.953 590.5 665.628 572.012 657.19 558.011C651.565 548.751 636.9 552.702 634.024 562.214C629.537 574.445 634.688 587.498 637.216 599.634C640.883 617.995 654.662 633.418 652.639 653.013C656.558 655.952 661.078 657.753 665.723 659.523C665.913 660.218 666.324 661.609 666.513 662.336C652.165 665.243 659.371 681.709 663.637 690.337C662.247 691.98 660.951 693.655 659.782 695.457C654.599 691.601 648.215 684.459 641.578 689.831C638.228 694.603 640.061 700.893 639.808 706.36C635.636 709.204 631.496 712.112 627.514 715.178C626.85 715.683 625.491 716.726 624.828 717.232C623.153 714.229 621.509 711.29 619.834 708.383C616.389 708.225 612.123 705.128 609.215 707.94C603.685 711.069 605.676 718.085 604.949 723.363C597.617 726.997 592.686 733.35 590.221 741.061C588.704 740.461 585.67 739.228 584.153 738.596C583.111 733.129 582.32 727.598 580.614 722.352C577.453 718.243 571.227 721.214 567.561 723.015C564.433 728.862 565.444 735.941 564.622 742.357C554.762 743.842 544.964 742.041 535.831 738.312C534.567 741.757 533.334 745.201 532.133 748.678C524.959 749.12 517.753 749.563 510.611 750.005C510.832 743.495 515.794 735.215 509.694 730.284C501.667 725.133 491.933 728.673 483.526 730.695C483.653 736.289 483.779 741.915 484 747.572C481.978 749.31 479.987 751.048 478.027 752.818C476.668 753.892 473.982 756.105 472.655 757.179C468.451 757.843 463.869 757.148 461.467 753.26C453.787 743.526 443.705 736.226 433.213 729.873C427.113 732.022 424.616 739.197 420.476 743.811C418.643 741.725 416.842 739.671 415.072 737.648C412.734 735.088 410.332 732.623 407.866 730.316C399.713 726.523 392.886 720.772 385.459 715.905C378.317 715.462 375.694 723.9 371.301 728.041C366.181 720.74 364.316 711.259 358.406 704.748C350.063 699.376 345.859 711.006 341.498 715.936C335.557 703.8 325.823 694.129 319.059 682.531C313.718 675.293 314.224 666.033 314.003 657.564C322.662 652.096 328.193 643.279 335.588 636.389C339.254 632.628 344.153 629.373 344.911 623.716C348.293 610.158 348.767 596.031 348.451 582.125C347.282 574.856 348.04 565.501 341.087 560.95C335.62 557.252 327.687 560.002 325.19 565.88C320.197 577.574 318.269 591.164 308.63 600.329C301.045 607.914 292.765 620.081 280.376 615.752C270.832 612.022 259.138 606.017 257.179 594.956C253.671 579.154 248.108 563.889 244.126 548.214C243.652 546.444 242.704 542.841 242.23 541.071C240.239 543.821 238.343 546.665 236.478 549.51C235.878 544.548 235.309 539.523 234.835 534.593C232.654 533.929 230.537 533.297 228.419 532.665C227.629 529.599 226.87 526.534 226.144 523.531C238.564 520.845 241.882 507.634 247.887 498.28C255.851 483.584 267.924 471.574 275.699 456.784C284.642 439.654 276.267 420.471 277.69 402.393C279.523 373.76 291.469 345.632 311.19 324.742C329.678 304.01 350.063 284.51 374.24 270.478C382.804 266.18 386.471 256.983 390.8 249.051C394.719 250.22 398.733 251.231 402.778 252.274C406.381 263.43 410.3 278.379 423.858 280.56C431.253 282.835 437.795 276.609 440.45 270.257ZM320.165 356.662C327.466 366.175 336.157 374.487 344.026 383.557C342.193 387.666 340.392 391.774 338.622 395.883C332.112 389.941 324.874 384.474 316.31 381.977C313.244 382.293 311.854 385.232 310.147 387.318C319.439 390.7 328.351 395.156 336.284 401.066C337.232 408.398 338.907 416.141 344.374 421.545C355.467 433.175 374.303 433.586 388.082 426.791C405.622 417.658 408.688 389.119 392.222 377.394C379.265 367.471 361.187 371.453 347.977 378.817C339.633 370.663 334.356 352.743 320.165 356.662ZM635.225 380.713C622.363 374.266 605.897 371.326 592.971 378.911C577.959 388.045 576.726 411.621 589.526 423.157C608.678 441.93 650.459 430.331 649.732 400.876C655.8 397.874 664.996 396.325 663.385 387.476C657.664 388.898 652.323 391.426 647.393 394.618C644.738 391.869 642.115 389.119 639.523 386.37C644.232 378.88 655.136 373.381 654.915 364.121C645.465 362.066 641.009 374.929 635.225 380.713ZM469.463 417.595C457.358 418.985 444.748 419.933 433.94 426.128C442.473 432.986 449.015 441.74 454.482 451.126C464.627 468.382 490.827 473.123 505.617 459.091C515.383 449.388 523.885 437.632 528.499 424.579C509.947 416.71 489.278 415.951 469.463 417.595ZM314.097 432.164C303.731 435.072 292.512 441.835 290.11 453.117C290.363 468.414 306.197 479.38 320.482 480.044C336.41 480.961 356.32 473.218 360.713 456.436C361.377 433.365 332.017 425.97 314.097 432.164ZM636.079 431.374C627.23 435.261 617.022 442.119 616.863 452.865C615.568 464.716 626.408 473.186 636.142 477.358C654.504 482.699 678.807 481.34 689.869 463.326C696.853 453.591 689.268 441.424 680.356 436.209C667.051 428.972 650.585 427.265 636.079 431.374ZM258.348 546.033C261.603 553.018 270.547 554.914 277.437 552.891C280.66 550.3 281.703 545.938 283.758 542.462C277.658 545.875 270.99 548.277 264.005 546.128C263.594 540.281 263.626 534.466 263.815 528.651C256.483 530.958 256.736 539.87 258.348 546.033ZM711.739 532.286C713.098 535.541 714.52 538.796 716.068 542.019C713.698 546.223 710.696 551.753 704.88 550.742C695.905 551.722 695.557 536.836 686.203 538.701C686.361 554.503 709.906 562.878 719.008 549.32C725.328 542.873 719.545 533.455 711.739 532.286ZM290.805 563.51C297.505 563.415 309.325 555.451 301.614 549.099C295.483 550.774 293.618 558.517 290.805 563.51ZM359.259 637.369C361.725 646.471 372.565 642.615 379.296 642.204C379.834 631.964 381.73 620.334 375.915 611.232C360.46 604.469 355.657 626.687 359.259 637.369ZM595.31 612.149C581.277 613.95 583.679 632.249 588.894 641.288C594.456 643.437 602.073 644.29 605.834 638.569C611.27 629.341 608.33 612.307 595.31 612.149ZM386.06 636.041C385.902 643.689 391.053 649.663 395.857 655.035C401.451 652.791 407.93 649.852 408.056 642.805C408.656 634.998 412.101 622.831 402.652 619.196C393.455 616.858 384.322 626.939 386.06 636.041ZM440.229 618.406C425.912 622.61 431.822 653.329 448.193 648.462C459.16 640.592 457.516 613.919 440.229 618.406ZM487.761 621.345C479.987 629.278 482.799 649.947 496.516 648.872C507.798 649.03 508.019 634.935 505.775 627.034C503.942 619.228 493.829 617.964 487.761 621.345ZM544.585 621.503C539.023 629.594 542.594 640.055 544.174 648.872C545.312 659.239 563.484 663.189 566.392 652.128C567.909 643.342 567.277 633.861 563.737 625.675C559.945 619.038 550.874 618.817 544.585 621.503ZM415.42 646.881C410.174 655.004 406.792 665.559 409.952 675.104C412.986 684.427 429.578 686.639 431.348 675.072C434.477 664.39 432.043 639.138 415.42 646.881ZM516.015 649.821C508.778 656.995 511.022 669.857 514.182 678.675C517.469 688.82 535.547 685.375 533.966 674.251C536.4 663.126 531.027 643.784 516.015 649.821ZM336.347 653.265C323.958 659.397 323.989 679.117 335.556 686.007C345.796 689.547 355.309 677.727 350.79 668.214C348.198 662.241 344.532 651.432 336.347 653.265ZM476.984 687.113C471.864 691.759 464.153 696.753 465.923 704.811C467.345 714.135 478.407 715.178 485.928 714.103C493.071 707.782 489.942 695.741 485.138 688.63C492.439 677.759 494.777 657.722 480.271 651.812C464.027 655.478 464.596 678.738 476.984 687.113ZM623.69 653.392C608.931 662.589 618.128 689.736 635.826 688.251C641.862 683.763 642.779 674.946 643.126 667.93C644.296 657.69 632.666 650.895 623.69 653.392ZM584.248 697.132C589.558 700.513 599.07 700.355 600.998 693.181C606.529 682.183 602.642 669.542 593.793 661.672C577.991 665.686 575.525 685.407 584.248 697.132ZM377.4 672.101C361.535 675.483 366.686 701.936 382.457 700.039C399.807 699.786 394.277 666.413 377.4 672.101ZM535.136 687.935C528.625 692.771 527.551 702.094 530.679 709.173C533.113 717.864 547.177 716.537 550.242 709.078C556.595 699.502 546.513 684.743 535.136 687.935Z"></path>
<path fill="#F8F8F7" d="M314.856 300.058C332.775 275.596 357.837 257.456 384.511 243.613C386.091 244.972 389.252 247.69 390.8 249.049C386.471 256.982 382.804 266.179 374.24 270.477C350.063 284.509 329.678 304.009 311.19 324.741C291.469 345.631 279.523 373.758 277.69 402.392C276.267 420.469 284.642 439.653 275.699 456.782C267.924 471.573 255.851 483.582 247.887 498.278C241.882 507.633 238.564 520.843 226.144 523.53C230.031 500.648 242.514 480.675 256.515 462.66C260.781 456.782 264.985 450.524 266.723 443.382C268.082 433.901 265.175 424.578 263.752 415.318C256.452 382.481 268.935 349.013 285.117 320.822C286.95 327.395 284.39 333.969 283.062 340.385C296.968 329.797 303.858 313.174 314.856 300.058Z"></path>
<path fill="#9291B6" d="M494.334 248.671C498.696 251.768 503.057 254.834 507.482 257.931C508.366 258.563 510.168 259.827 511.053 260.459C511.306 255.908 511.558 251.357 511.843 246.838C516.394 249.745 520.945 252.621 525.591 255.466C517.215 259.638 514.087 275.029 503.057 270.825C498.221 268.044 493.323 263.872 491.142 258.879C492.122 255.466 493.196 252.053 494.334 248.671Z"></path>
<path fill="#36273F" d="M320.165 356.661C334.355 352.742 339.633 370.661 347.977 378.815C361.187 371.451 379.265 367.469 392.222 377.393C408.688 389.118 405.622 417.656 388.082 426.79C374.303 433.585 355.467 433.174 344.374 421.544C338.906 416.139 337.231 408.396 336.283 401.064C328.351 395.154 319.438 390.698 310.147 387.317C311.853 385.231 313.244 382.292 316.31 381.976C324.874 384.472 332.112 389.94 338.622 395.881C340.392 391.773 342.193 387.664 344.026 383.556C336.157 374.485 327.466 366.174 320.165 356.661Z"></path>
<path fill="#32243E" d="M635.225 380.711C641.008 374.927 645.465 362.065 654.914 364.119C655.135 373.379 644.232 378.878 639.523 386.368C642.114 389.118 644.738 391.867 647.393 394.617C652.323 391.425 657.664 388.896 663.384 387.474C664.996 396.323 655.799 397.872 649.731 400.874C650.458 430.329 608.677 441.928 589.525 423.155C576.726 411.62 577.958 388.043 592.97 378.91C605.896 371.325 622.362 374.264 635.225 380.711Z"></path>
<path fill="#322125" d="M876.743 403.499C882.463 393.607 893.304 384.726 905.44 388.424C906.419 393.544 906.957 398.916 904.966 403.91C895.042 431.373 877.944 455.361 864.323 480.992C877.312 473.059 890.554 461.397 906.956 464.02C915.11 465.948 913.878 477.389 911.887 483.646C905.281 498.026 892.577 508.203 882.558 520.086C862.585 540.944 845.771 565.153 835.5 592.269C819.919 631.711 818.56 674.534 810.596 715.714C821.152 731.706 847.288 725.164 858.539 741.693C866.188 750.921 854.399 763.816 844.065 761.635C796.374 759.549 750.359 776.078 707.851 796.083C681.462 808.946 657.222 825.665 633.077 842.194C634.752 853.539 634.183 867.256 622.11 872.597C613.64 878.791 606.719 869.499 602.01 863.463C600.24 868.962 597.49 874.05 593.824 878.538C576.853 874.809 571.164 857.332 566.455 842.826C562.031 843.11 557.606 843.489 553.245 843.963C530.048 847.313 506.692 850.505 483.242 849.115C507.546 854.962 531.596 866.213 557.132 860.777C560.861 862.357 564.433 864.664 565.697 868.804C557.669 867.224 549.674 865.549 541.488 865.517C551.886 872.47 563.643 877.78 575.778 880.782C577.359 879.802 580.519 877.843 582.099 876.863C583.3 878.254 585.734 880.972 586.935 882.362C587.82 884.353 589.589 888.335 590.443 890.326C567.34 890.01 548.251 875.409 527.33 867.666C511.686 860.492 494.651 857.774 478.312 853.034C470.79 850.031 463.237 847.029 455.62 844.437C473.476 841.467 491.206 847.029 509.157 845.702C527.646 845.828 545.059 836.947 563.737 839.223L567.024 839.57C566.36 822.789 562.663 803.7 572.681 788.972C572.776 792.07 572.934 798.232 572.997 801.329C572.334 811.948 572.112 822.599 573.029 833.25C575.399 847.187 578.56 864.127 592.623 871.048C596.795 851.39 590.822 831.859 589.242 812.328C588.863 808.03 588.578 803.763 588.452 799.497C591.454 803.194 594.425 807.082 595.942 811.727C596.416 815.551 596.89 819.439 597.364 823.358C599.892 839.096 600.335 859.354 616.295 867.919C617.97 867.255 621.351 865.96 623.058 865.328C612.376 852.433 606.624 836.505 601.788 820.734C601.883 819.344 602.073 816.531 602.168 815.109C611.364 831.164 618.286 848.325 624.449 865.707C630.137 856.637 624.101 847.124 621.288 838.243C617.654 828.161 618.539 817.321 617.18 806.892C615.599 798.675 611.207 791.406 606.466 784.706C608.425 783.315 610.48 781.988 612.597 780.724C621.762 795.925 624.796 813.434 627.009 830.784C627.514 833.566 628.051 836.347 628.684 839.16C647.014 827.687 663.669 813.592 682.948 803.573C702.163 793.681 719.418 779.776 740.277 773.328C766.888 764.764 794.067 757.495 821.847 754.145C826.461 754.334 829.59 751.174 832.497 748.014C826.714 746.939 820.994 746.023 815.273 745.074C819.761 743.937 824.344 742.799 828.958 741.914C833.698 741.566 838.471 741.219 843.306 740.84C839.672 745.138 836.448 749.784 834.773 755.251C842.453 754.903 852.408 755.535 856.58 747.476C851.27 738.785 841.062 734.961 831.581 733.097C821.247 730.853 808.257 728.956 803.453 718.085C808.384 684.458 813.188 650.61 822.163 617.742C826.556 603.457 831.328 589.298 836.258 575.203C844.728 554.566 857.402 535.856 872.919 519.896C883.917 508.14 897.286 498.311 905.345 484.057C907.715 479.095 907.841 473.596 907.968 468.224C890.238 466.169 875.89 478.463 867.388 492.717C862.616 498.722 858.476 505.169 854.81 511.9C854.209 512.943 853.009 515.061 852.408 516.135C854.273 516.515 858.002 517.336 859.867 517.716C852.882 520.908 846.435 525.174 841.126 530.736C839.703 531.842 836.796 534.023 835.374 535.098C835.216 534.244 834.931 532.506 834.805 531.653C840.272 512.533 844.001 493.001 847.604 473.47C853.261 448.756 863.438 425.053 876.743 403.499ZM882.59 405.553C870.233 423.82 862.521 444.774 855.916 465.664C851.018 474.766 850.701 485.353 849.753 495.403C860.025 481.055 866.693 464.621 875.479 449.388C878.513 444.363 880.694 438.864 880.03 432.891C888.974 421.26 898.013 408.84 901.679 394.397C893.019 391.3 887.267 399.643 882.59 405.553ZM857.275 496.067C861.036 497.9 864.86 491.484 862.869 488.355C858.982 486.68 854.873 492.843 857.275 496.067ZM844.254 519.896C849.248 512.343 855 504.979 857.275 496.067C848.078 500.175 845.076 510.699 844.254 519.896Z"></path>
<path fill="#30181B" d="M469.462 417.595C489.278 415.951 509.947 416.71 528.498 424.579C523.884 437.632 515.383 449.388 505.617 459.091C490.826 473.123 464.627 468.382 454.482 451.126C449.014 441.74 442.472 432.986 433.939 426.128C444.748 419.933 457.358 418.985 469.462 417.595ZM443.578 427.36L448.129 431.153C464.405 441.076 484.948 445.596 503.626 440.634L506.123 439.496C507.197 440.665 509.346 443.036 510.421 444.205C492.343 451.253 473.191 447.524 455.43 441.677C461.877 453.908 475.783 463.705 490.068 460.418C500.402 456.91 511.179 449.135 512.254 437.379L511.717 439.622L515.983 433.46L518.701 434.06C519.586 432.322 521.324 428.877 522.209 427.139C517.5 426.033 512.76 425.053 508.051 424.231C491.237 420.945 474.171 422.714 457.231 423.441C452.554 424.389 448.003 425.685 443.578 427.36Z"></path>
<path fill="#271C1F" d="M788.726 431.058C793.593 419.965 812.524 414.687 818.276 427.803C826.303 463.831 825.703 501.25 830.854 537.595C828.389 538.922 825.924 540.25 823.491 541.577C820.299 510.637 817.486 479.665 815.495 448.661C815.115 442.372 814.199 436.114 812.777 430.047C808.194 422.683 797.007 423.979 793.53 431.69C785.345 449.009 788.347 468.951 794.731 486.333C798.366 498.501 802.79 510.479 805.571 522.931C807.657 543.852 812.745 565.154 808.036 586.107C803.454 607.313 796.848 628.045 789.516 648.462C783.512 665.275 780.035 683.258 770.459 698.554C764.265 708.414 757.944 718.18 751.939 728.167C727.541 734.898 703.838 744.854 682.537 758.57C670.559 765.46 657.19 774.309 642.874 768.967C632.982 773.36 622.774 777.027 612.597 780.724C610.48 781.988 608.426 783.316 606.466 784.706C596.985 781.04 587.44 785.149 578.339 787.709L575.715 788.309C534.188 797.727 491.143 797.379 449.015 792.892C448.446 799.908 447.877 806.956 447.34 814.035C461.941 817.511 476.985 818.112 491.838 819.85C476.163 822.758 459.95 822.41 444.654 817.701C443.358 821.841 442.125 825.981 440.925 830.153C467.124 833.566 493.577 837.801 520.092 836.316L522.083 835.178C522.621 836.442 523.632 839.034 524.169 840.298C495.252 841.909 466.871 835.209 438.112 833.945C439.091 840.898 444.843 840.708 450.248 840.266C450.248 841.214 450.279 843.174 450.279 844.122C451.607 844.185 454.261 844.343 455.62 844.438C463.237 847.029 470.79 850.032 478.312 853.034C462.289 851.928 446.329 849.526 430.495 846.935C430.306 846.303 429.926 845.07 429.737 844.438C434.066 834.293 436.216 823.421 438.554 812.676C439.123 810.748 440.261 806.892 440.83 804.933C442.031 800.445 443.105 795.926 444.211 791.47C422.689 788.499 401.23 784.454 379.455 783.916C379.297 786.634 378.981 792.102 378.791 794.82C377.242 809.926 376.832 825.159 377.464 840.329C379.55 840.614 383.753 841.151 385.839 841.404C395.067 828.857 392.507 812.202 399.839 799.181C400.503 807.777 400.503 816.437 401.767 825.033C403.316 832.618 405.149 840.14 406.855 847.725C407.266 849.4 408.025 852.718 408.436 854.393C401.167 850.853 398.796 843.016 396.489 836C392.286 846.05 380.687 850.285 371.775 843.047C371.206 839.887 370.637 836.758 370.132 833.629C330.911 826.234 287.614 820.672 250.574 839.286C247.603 840.329 244.569 841.088 241.503 841.53C241.725 835.652 239.892 828.51 244.443 823.832C252.596 815.52 261.793 808.188 271.369 801.52L273.866 805.217C264.606 811.886 255.946 819.313 247.793 827.245C247.793 829.458 247.824 833.882 247.856 836.094C260.845 826.329 270.769 812.233 286.476 806.355C288.467 806.387 292.481 806.418 294.503 806.45C285.18 809.358 272.412 812.518 272.286 824.685C276.71 823.358 281.324 822.125 285.812 820.798C314.319 819.976 342.826 821.841 370.764 827.783C371.712 815.204 372.439 802.626 373.861 790.111C374.177 788.625 374.777 785.623 375.093 784.138C363.811 779.681 352.433 775.352 341.656 769.789C330.532 762.584 319.786 754.809 308.314 748.204C311.98 746.497 315.678 744.822 319.439 743.179C334.704 762.046 357.585 772.318 380.845 777.343C423.068 784.706 465.923 788.973 508.747 789.889C533.05 789.004 557.259 786.034 581.056 780.851C599.197 776.932 618.096 774.151 634.531 764.891C666.672 746.276 696.19 719.223 707.441 682.752C705.387 681.772 701.31 679.781 699.255 678.77C698.054 675.325 696.948 671.88 695.779 668.499L694.23 663.884C699.477 668.625 703.712 674.282 705.608 681.298C708.421 676.21 710.791 670.869 712.687 665.401C718.123 666.381 713.983 673.84 714.836 677.506C706.556 714.988 677.954 743.874 647.456 765.08C662.121 763.279 675.363 756.516 687.341 748.172C706.777 734.867 732.44 732.655 749.6 715.778C764.77 702.568 770.175 682.531 777.791 664.706C787.462 635.694 798.713 606.839 803.138 576.436C804.086 570.052 804.117 563.51 803.106 557.158C799.377 534.119 798.334 510.415 789.896 488.419C782.911 470.184 780.636 449.293 788.726 431.058Z"></path>
<path fill="#F4E386" d="M443.579 427.36C448.003 425.685 452.554 424.39 457.232 423.441C460.866 425.97 464.564 428.53 468.262 431.026C461.562 431.5 454.83 431.564 448.13 431.153L443.579 427.36Z"></path>
<path fill="#F5F8C3" d="M457.231 423.441C474.171 422.714 491.237 420.944 508.05 424.231C499.77 429.825 489.562 429.161 480.081 430.078C476.099 430.362 472.18 430.678 468.261 431.026C464.563 428.529 460.866 425.969 457.231 423.441Z"></path>
<path fill="#F1CE7C" d="M508.051 424.23C512.76 425.052 517.5 426.032 522.209 427.138C521.324 428.876 519.586 432.321 518.701 434.059L515.983 433.459C504.195 430.804 492.154 429.003 480.081 430.077C489.562 429.161 499.77 429.824 508.051 424.23Z"></path>
<path fill="#C4B576" d="M793.53 431.689C797.006 423.978 808.194 422.682 812.776 430.046C794.762 442.308 796.406 467.054 794.731 486.333C788.347 468.951 785.344 449.008 793.53 431.689Z"></path>
<path fill="#DFB2B8" d="M314.098 432.163C332.017 425.969 361.377 433.364 360.714 456.435C356.321 473.216 336.41 480.959 320.482 480.043C306.197 479.379 290.363 468.413 290.11 453.116C292.512 441.834 303.732 435.07 314.098 432.163ZM328.193 444.994C323.579 452.358 312.296 452.832 309.989 461.681C318.491 461.997 326.929 460.859 335.114 458.521C334.103 454.159 334.04 444.394 328.193 444.994Z"></path>
<path fill="#FFA930" d="M448.13 431.152C454.83 431.563 461.561 431.5 468.261 431.026C472.18 430.678 476.099 430.362 480.081 430.078C492.154 429.003 504.195 430.804 515.983 433.459L511.717 439.622L512.254 437.378L512.823 435.039L506.534 438.231L506.123 439.496L503.626 440.633C484.948 445.595 464.406 441.076 448.13 431.152Z"></path>
<path fill="#E3B4B8" d="M636.079 431.374C650.585 427.265 667.051 428.972 680.356 436.209C689.268 441.424 696.853 453.591 689.869 463.325C678.807 481.34 654.504 482.699 636.142 477.358C626.408 473.186 615.568 464.716 616.863 452.865C617.021 442.119 627.23 435.261 636.079 431.374ZM649.005 448.282C642.747 449.262 641.483 461.208 648.183 462.567C654.757 461.05 662.436 460.481 667.746 455.993C668.504 449.104 661.362 451.6 657.38 451.758C654.535 450.589 651.975 448.693 649.005 448.282Z"></path>
<path fill="#6A5240" d="M794.73 486.332C796.405 467.054 794.762 442.308 812.776 430.045C814.198 436.113 815.115 442.371 815.494 448.66C803.611 474.259 823.585 501.786 813.945 527.891C810.437 510.446 809.71 492.685 807.403 475.113C805.918 490.978 805.16 506.97 805.57 522.93C802.789 510.478 798.365 498.5 794.73 486.332ZM800.956 484.562C804.338 468.413 807.435 452.2 812.776 436.587C798.712 447.459 800.64 468.602 800.956 484.562Z"></path>
<path fill="#776A3C" d="M867.862 439.748C871.939 437.504 875.984 435.26 880.03 432.89C880.693 438.863 878.513 444.362 875.479 449.387C866.693 464.62 860.024 481.055 849.753 495.403C850.701 485.353 851.017 474.765 855.916 465.663C860.846 457.51 864.449 448.629 867.862 439.748Z"></path>
<path fill="#F69B3E" d="M506.534 438.231L512.823 435.04L512.254 437.378C511.18 449.135 500.403 456.909 490.068 460.418C475.783 463.704 461.878 453.907 455.43 441.676C473.192 447.523 492.344 451.252 510.421 444.205C509.347 443.035 507.198 440.665 506.123 439.496L506.534 438.231Z"></path>
<path fill="#886A4D" d="M800.956 484.563C800.64 468.603 798.712 447.46 812.776 436.588C807.435 452.2 804.338 468.413 800.956 484.563Z"></path>
<path fill="#CFD6D0" d="M328.193 444.995C334.04 444.394 334.103 454.16 335.114 458.521C326.929 460.86 318.491 461.998 309.989 461.682C312.296 452.833 323.579 452.358 328.193 444.995Z"></path>
<path fill="#382B2C" d="M118.153 462.282C117.679 449.577 136.515 444.647 144.416 453.464C161.703 470.72 169.667 494.581 180.982 515.756C198.143 558.579 194.16 607.565 216.473 648.745C232.622 688.44 268.145 714.987 302.467 738.28C301.108 739.133 298.327 740.808 296.937 741.63C294.029 740.018 291.153 738.406 288.309 736.826C268.43 722.351 248.519 707.339 232.97 688.092C222.699 675.83 216.188 661.008 206.391 648.43C194.255 622.799 191.79 594.071 187.682 566.417C185.28 549.888 181.961 533.138 174.724 518C165.559 501.218 157.753 483.646 146.438 468.16C141.097 460.291 133.986 450.431 123.209 455.55C121.155 485.005 126.401 515.566 143.847 539.996C156.678 565.058 166.317 591.574 177.063 617.552C180.855 625.738 189.957 631.047 191.284 640.402C168.782 636.009 151.558 619.986 133.259 607.439C122.83 597.989 105.701 618.627 117.236 626.749C138.632 634.966 161.766 638.379 182.372 648.872C190.368 652.791 199.059 657.152 202.915 665.748C198.079 662.62 193.244 659.428 188.472 656.267C191.348 669.731 193.497 683.636 199.628 696.12C206.423 709.804 217.863 720.36 229.588 729.841C240.492 739.354 253.196 746.528 266.375 752.406C273.391 755.914 280.439 759.486 287.55 762.867C296.652 769.378 304.711 777.247 313.118 784.611C313.876 785.085 315.425 786.002 316.183 786.476C320.608 786.602 325.064 786.634 329.552 786.697C330.342 788.309 331.891 791.595 332.681 793.239C339.602 794.44 346.586 796.02 352.907 799.275C342.983 798.706 333.186 797.221 323.421 795.704C325.538 792.86 327.655 790.047 329.805 787.202C322.188 787.74 315.551 791.343 309.546 795.736C307.903 795.736 304.616 795.704 302.973 795.672C307.334 793.65 310.684 790.458 312.991 786.128C298.39 788.719 285.717 796.779 273.866 805.217L271.369 801.519C280.123 792.638 291.058 786.444 300.95 778.986C285.022 769.662 267.166 764.29 251.269 754.903C229.209 741.914 208.129 725.417 194.919 703.136C186.417 688.883 185.343 671.848 178.706 656.931C162.398 641.635 137.431 644.574 118.374 634.871C104.626 629.119 106.965 606.775 120.428 602.224C125.706 599.285 132.217 600.138 136.957 603.805C150.01 612.401 162.019 622.641 176.02 629.815C161.45 607.85 156.457 581.492 144.858 558.074C138.158 544.01 128.709 531.179 124.537 516.009C119.733 498.563 117.489 480.359 118.153 462.282Z"></path>
<path fill="#D6CBC8" d="M649.005 448.281C651.976 448.692 654.536 450.588 657.38 451.757C661.362 451.599 668.504 449.102 667.746 455.992C662.436 460.48 654.757 461.049 648.183 462.566C641.483 461.207 642.747 449.26 649.005 448.281Z"></path>
<path fill="#9D6C4D" d="M813.946 527.892C823.585 501.787 803.612 474.26 815.495 448.661C817.486 479.664 820.299 510.636 823.491 541.576C825.924 540.249 828.389 538.922 830.854 537.594C831.992 536.962 834.236 535.73 835.374 535.097C836.796 534.023 839.704 531.842 841.126 530.736C842.516 532.537 843.97 534.339 845.455 536.204C838.661 546.728 832.119 557.41 825.102 567.808C824.439 553.744 817.075 541.355 813.946 527.892Z"></path>
<path fill="#A79B5B" d="M123.21 455.55C133.987 450.43 141.098 460.29 146.439 468.16C143.784 470.024 141.161 471.889 138.538 473.785C139.075 481.275 140.15 488.765 142.172 496.066C135.314 510.509 146.407 525.079 143.847 539.996C126.402 515.566 121.156 485.005 123.21 455.55Z"></path>
<path fill="#362C4B" d="M249.277 463.483C251.079 463.293 254.682 462.882 256.515 462.661C242.514 480.675 230.03 500.649 226.143 523.53C224.563 532.569 222.983 541.798 223.647 551.026C223.805 555.45 229.525 555.261 232.401 557.41C233.696 554.723 235.056 552.1 236.478 549.509C238.342 546.664 240.239 543.82 242.23 541.071C242.704 542.84 243.652 546.443 244.126 548.213C239.512 556.493 236.193 565.501 236.762 575.14C239.764 573.496 242.767 571.821 245.801 570.178C242.672 574.065 237.9 577.226 236.857 582.345C237.805 589.772 238.848 597.231 238.658 604.753C242.072 605.353 245.517 605.985 248.961 606.586C249.53 611.958 249.846 617.426 251.142 622.735C254.271 625.864 259.011 624.947 263.025 625.769C265.048 629.878 267.102 634.049 269.156 638.19C273.802 638.095 278.479 638.032 283.188 638C285.717 636.198 288.245 634.46 290.805 632.722C292.986 635.977 295.166 639.264 297.379 642.551L298.232 637.052C298.485 638.758 298.959 642.203 299.212 643.91C309.641 633.986 318.68 622.356 325.064 609.43C329.014 597.737 328.888 585.158 331.637 573.18C332.807 574.444 335.177 577.004 336.346 578.269C338.969 603.014 325.601 625.358 309.23 642.614C305.027 646.47 299.78 648.84 294.661 651.21C291.753 647.955 288.94 644.826 286.033 641.666C280.218 664.137 286.538 686.986 296.715 707.118C302.656 720.075 310.463 732.085 319.438 743.178C315.677 744.821 311.98 746.496 308.314 748.203C304.489 745.991 300.729 743.779 296.936 741.629C298.327 740.808 301.108 739.133 302.467 738.279C305.69 740.049 308.946 741.851 312.232 743.589C288.972 716.188 273.486 680.729 276.362 644.258C273.739 645.269 271.147 646.312 268.587 647.386C262.804 641.887 259.58 633.67 251.458 631.142C243.999 628.456 242.23 620.397 241.819 613.412C238.69 611.389 234.392 610.378 233.159 606.491C231.168 593.375 232.432 580.038 231.548 566.86C228.324 560.634 218.874 561.108 216.062 554.408C216.946 521.666 227.85 489.619 247.887 463.641L249.277 463.483Z"></path>
<path fill="#A19558" d="M146.438 468.16C157.753 483.646 165.559 501.217 174.724 517.999C181.961 533.138 185.28 549.888 187.681 566.417C187.271 571.094 186.765 575.803 186.291 580.543C183.447 581.112 180.634 581.744 177.853 582.408C166.981 549.003 172.29 509.055 147.165 481.56C146.533 483.393 145.237 487.027 144.574 488.86C144.732 484.12 144.637 479.348 144.605 474.639C143.088 474.417 140.054 474.006 138.537 473.785C141.16 471.889 143.784 470.024 146.438 468.16Z"></path>
<path fill="#B7B357" d="M867.388 492.716C875.889 478.463 890.237 466.169 907.967 468.223C907.841 473.596 907.714 479.095 905.344 484.056C903.764 483.962 900.604 483.772 899.023 483.677C886.951 480.138 878.639 491.357 867.388 492.716Z"></path>
<path fill="#574D41" d="M138.537 473.786C140.054 474.007 143.088 474.418 144.605 474.639C144.637 479.348 144.732 484.12 144.574 488.861C143.973 490.662 142.772 494.265 142.172 496.067C140.149 488.766 139.075 481.276 138.537 473.786Z"></path>
<path fill="#998843" d="M867.388 492.716C878.639 491.357 886.951 480.138 899.023 483.677C887.646 493.159 876.332 502.893 863.627 510.572C860.877 512.342 857.97 512.785 854.809 511.9C858.475 505.168 862.616 498.721 867.388 492.716Z"></path>
<path fill="#917F46" d="M144.573 488.861C145.237 487.028 146.533 483.393 147.165 481.56C147.291 496.477 159.301 507.57 160.597 522.14C162.24 537.12 166.032 551.847 166.696 566.922C161.26 552.606 159.648 537.341 158.195 522.234C157.721 514.049 153.391 506.938 147.987 501.091C151.337 513.29 154.813 525.553 155.35 538.289C157.594 568.028 173.333 594.07 181.518 622.198C183.004 623.209 185.975 625.232 187.46 626.243C186.291 611.231 181.234 596.978 177.852 582.408C180.634 581.745 183.446 581.113 186.291 580.544C186.765 575.803 187.27 571.094 187.681 566.417C191.79 594.07 194.255 622.798 206.391 648.429C200.955 646.027 195.393 643.91 189.894 641.792L191.284 640.402C189.957 631.047 180.855 625.737 177.062 617.552C166.317 591.573 156.678 565.058 143.847 539.996C146.406 525.079 135.313 510.509 142.171 496.066C142.772 494.265 143.973 490.662 144.573 488.861Z"></path>
<path fill="#61483D" d="M147.166 481.56C172.291 509.056 166.981 549.003 177.853 582.408C181.235 596.978 186.291 611.231 187.461 626.243C185.975 625.232 183.004 623.209 181.519 622.198C173.334 594.07 157.595 568.028 155.351 538.289C154.814 525.553 151.337 513.29 147.987 501.091C153.392 506.938 157.721 514.049 158.195 522.234C159.649 537.341 161.261 552.606 166.697 566.922C166.033 551.847 162.241 537.12 160.597 522.14C159.301 507.57 147.292 496.477 147.166 481.56Z"></path>
<path fill="#855943" d="M899.023 483.678C900.604 483.773 903.764 483.962 905.344 484.057C897.285 498.31 883.917 508.139 872.918 519.896C857.401 535.856 844.728 554.565 836.258 575.203C832.023 575.993 827.756 576.846 823.585 577.858C824.185 574.508 824.691 571.158 825.102 567.808C832.118 557.41 838.66 546.728 845.455 536.204C843.969 534.339 842.515 532.537 841.125 530.736C846.434 525.174 852.882 520.907 859.866 517.715C858.001 517.336 854.272 516.514 852.408 516.135C853.008 515.061 854.209 512.943 854.809 511.9C857.97 512.785 860.877 512.343 863.627 510.573C876.332 502.893 887.646 493.159 899.023 483.678Z"></path>
<path fill="#766039" d="M857.275 496.066C854.873 492.842 858.982 486.68 862.869 488.355C864.86 491.483 861.036 497.899 857.275 496.066Z"></path>
<path fill="#6E5536" d="M844.254 519.896C845.076 510.699 848.078 500.175 857.275 496.066C854.999 504.979 849.248 512.342 844.254 519.896Z"></path>
<path fill="#FB9457" d="M431.031 826.075C433.56 821.619 436.12 817.194 438.553 812.675C436.215 823.42 434.065 834.292 429.736 844.437C426.386 836.346 428.092 827.592 428.756 819.217C429.325 820.923 430.463 824.368 431.031 826.075Z"></path>
<path fill="#A9BBC3" d="M223.646 551.026C222.982 541.798 224.563 532.569 226.143 523.531C226.87 526.533 227.628 529.599 228.418 532.664C230.536 533.296 232.653 533.928 234.834 534.592C235.308 539.522 235.877 544.547 236.477 549.509C235.055 552.101 233.696 554.724 232.4 557.41C229.524 555.261 223.804 555.451 223.646 551.026Z"></path>
<path fill="#0F1430" d="M258.348 546.033C256.737 539.87 256.484 530.958 263.816 528.651C263.626 534.466 263.595 540.281 264.005 546.128C270.99 548.277 277.658 545.875 283.758 542.462C281.704 545.938 280.661 550.3 277.437 552.891C270.548 554.914 261.604 553.018 258.348 546.033Z"></path>
<path fill="#8EACBD" d="M739.992 548.213C745.744 553.617 751.496 559.053 757.311 564.457C758.165 575.898 764.264 586.485 764.011 597.989C764.169 605.068 757.848 608.924 752.729 612.369C753.108 617.331 753.55 622.261 754.025 627.254C751.844 628.139 747.451 629.909 745.27 630.794C743.595 627.254 742.046 623.778 740.435 620.302C741.667 624.473 742.995 628.677 744.354 632.88C742.552 636.23 740.782 639.612 739.044 642.993C735.22 638.853 731.428 634.713 727.73 630.541C727.382 628.424 727.003 626.306 726.687 624.252C727.825 619.701 728.994 615.119 730.29 610.631C732.313 603.235 734.493 595.872 736.674 588.54C738.665 588.287 742.615 587.749 744.606 587.497C734.778 576.119 741.13 561.55 739.992 548.213Z"></path>
<path fill="#99BECA" d="M244.126 548.213C248.108 563.888 253.67 579.153 257.178 594.955C259.138 606.016 270.831 612.021 280.376 615.751C292.765 620.08 301.045 607.913 308.63 600.328C318.269 591.163 320.197 577.573 325.19 565.879C327.687 560.001 335.619 557.252 341.087 560.949C348.04 565.5 347.281 574.855 348.451 582.124C346.744 583.831 345.101 585.569 343.489 587.307C341.119 584.241 338.811 581.176 336.346 578.268C335.177 577.004 332.807 574.444 331.637 573.18C328.888 585.158 329.014 597.736 325.064 609.43C318.68 622.356 309.641 633.986 299.212 643.91C298.959 642.203 298.485 638.758 298.232 637.052L297.379 642.551C295.167 639.264 292.986 635.977 290.805 632.722C288.245 634.46 285.717 636.198 283.188 638C278.479 638.031 273.802 638.094 269.156 638.189C267.102 634.049 265.048 629.877 263.025 625.769C259.011 624.947 254.271 625.864 251.142 622.735C249.846 617.426 249.53 611.958 248.962 606.585C245.517 605.985 242.072 605.353 238.659 604.752C238.848 597.231 237.805 589.772 236.857 582.345C237.9 577.225 242.672 574.065 245.801 570.178C242.767 571.821 239.765 573.496 236.762 575.14C236.193 565.5 239.512 556.493 244.126 548.213Z"></path>
<path fill="#9BB9C9" d="M634.025 562.214C636.9 552.702 651.565 548.751 657.19 558.011C665.629 572.011 663.954 590.5 675.141 603.11C688.383 618.817 713.035 620.46 730.29 610.632C728.995 615.119 727.825 619.702 726.687 624.253C727.003 626.307 727.383 628.425 727.73 630.542L726.845 636.294C727.825 639.486 728.9 642.646 730.101 645.839C718.723 646.85 705.924 645.396 701.246 633.323C690.374 638.38 677.733 632.47 670.496 623.968C660.319 609.778 656.211 592.459 652.671 575.678C652.387 571.79 649.479 569.294 647.077 566.67C648.847 591.321 655.073 619.101 674.857 635.694C676.121 642.741 679.06 649.315 682.347 655.667C685.065 656.173 687.783 656.679 690.532 657.247C691.449 658.891 693.314 662.209 694.23 663.884L695.779 668.498C692.334 666.349 688.889 664.264 685.476 662.209C685.191 669.099 685.223 676.052 684.243 682.91C681.051 685.249 677.543 687.05 674.288 689.136C673.055 690.147 670.59 692.17 669.358 693.181C667.525 701.683 666.513 712.144 655.705 713.029C656.906 707.119 658.138 701.24 659.782 695.457C660.951 693.655 662.247 691.98 663.637 690.337C673.846 683.479 670.432 671.722 666.513 662.336C666.324 661.609 665.913 660.218 665.723 659.523C666.229 650.516 666.355 641.098 658.202 635.346C656.021 641.129 654.156 647.008 652.639 653.012C654.662 633.418 640.883 617.995 637.217 599.634C634.688 587.498 629.537 574.445 634.025 562.214Z"></path>
<path fill="#6E4B3E" d="M823.586 577.857C827.757 576.846 832.024 575.993 836.259 575.203C831.328 589.298 826.556 603.457 822.163 617.742C820.109 614.17 818.118 610.631 816.095 607.123C818.307 597.294 819.603 587.181 823.586 577.857Z"></path>
<path fill="#AAC7D3" d="M336.346 578.269C338.811 581.176 341.118 584.242 343.489 587.307C345.101 585.569 346.744 583.831 348.451 582.124C348.767 596.03 348.293 610.157 344.911 623.715C344.152 629.372 339.254 632.627 335.588 636.388C328.192 643.278 322.662 652.095 314.002 657.563C314.223 666.033 313.718 675.293 319.059 682.53L316.341 683.415C314.318 684.047 310.305 685.311 308.313 685.912C308.503 671.469 311.284 657.057 309.23 642.614C325.601 625.358 338.969 603.014 336.346 578.269Z"></path>
<path fill="#A38D58" d="M117.236 626.749C105.7 618.627 122.829 597.989 133.259 607.439C151.558 619.986 168.782 636.009 191.284 640.402L189.893 641.792C187.365 644.131 184.868 646.501 182.372 648.872C161.766 638.379 138.632 634.966 117.236 626.749Z"></path>
<path fill="#79493B" d="M816.095 607.123C818.118 610.631 820.109 614.171 822.163 617.742C813.188 650.61 808.384 684.458 803.453 718.085C808.257 728.956 821.247 730.853 831.581 733.096C825.639 733.191 820.362 735.593 816.348 739.86C809.743 738.848 803.422 734.993 796.659 736.668C782.69 739.67 768.942 743.621 755.005 746.781C755.384 744.537 756.079 740.018 756.458 737.774C758.197 737.426 761.705 736.668 763.443 736.32C761.989 734.708 760.567 733.096 759.176 731.548C761.294 728.577 763.443 725.606 765.782 722.825C767.109 722.857 769.732 722.92 771.028 722.951C788.726 704.052 797.923 678.99 801.463 653.676C806.898 638.316 809.869 622.198 816.095 607.123Z"></path>
<path fill="#ACCAD7" d="M359.259 637.368C355.656 626.686 360.46 604.468 375.914 611.231C381.729 620.333 379.833 631.963 379.296 642.203C372.564 642.614 361.724 646.47 359.259 637.368Z"></path>
<path fill="#AECCD9" d="M595.31 612.148C608.33 612.306 611.27 629.341 605.834 638.569C602.073 644.29 594.456 643.436 588.894 641.287C583.679 632.249 581.277 613.95 595.31 612.148Z"></path>
<path fill="#B0CBD9" d="M386.06 636.04C384.322 626.938 393.455 616.857 402.652 619.195C412.102 622.83 408.657 634.997 408.056 642.804C407.93 649.851 401.451 652.79 395.857 655.034C391.053 649.662 385.902 643.688 386.06 636.04Z"></path>
<path fill="#B1CCD7" d="M440.228 618.406C457.516 613.918 459.159 640.591 448.193 648.461C431.822 653.328 425.912 622.609 440.228 618.406Z"></path>
<path fill="#AECBD8" d="M487.761 621.345C493.829 617.963 503.942 619.227 505.775 627.033C508.019 634.934 507.798 649.03 496.515 648.872C482.799 649.946 479.986 629.277 487.761 621.345Z"></path>
<path fill="#ADC9D7" d="M544.586 621.503C550.875 618.817 559.945 619.038 563.738 625.675C567.277 633.86 567.909 643.341 566.392 652.127C563.485 663.189 545.312 659.238 544.175 648.872C542.595 640.055 539.023 629.594 544.586 621.503Z"></path>
<path fill="#7C9AB0" d="M658.202 635.345C666.356 641.097 666.229 650.515 665.724 659.522C661.078 657.752 656.559 655.95 652.64 653.011C654.157 647.006 656.021 641.128 658.202 635.345Z"></path>
<path fill="#7B97B0" d="M674.856 635.693C687.877 640.212 700.551 645.806 712.244 653.233C712.939 655.161 714.33 659.017 715.025 660.944C718.122 660.218 719.576 657.563 719.418 652.98C722.073 652.411 724.791 651.874 727.572 651.4L730.543 652.159C728.014 652.696 722.926 653.707 720.366 654.244C719.102 662.114 717.111 669.857 714.836 677.505C713.982 673.839 718.122 666.38 712.686 665.401C710.79 670.868 708.42 676.209 705.607 681.297C703.711 674.281 699.476 668.624 694.23 663.884C693.313 662.209 691.449 658.89 690.532 657.247C687.783 656.678 685.065 656.172 682.347 655.667C679.06 649.314 676.121 642.741 674.856 635.693Z"></path>
<path fill="#C18D6C" d="M182.372 648.872C184.868 646.501 187.365 644.131 189.893 641.792C195.392 643.91 200.955 646.028 206.391 648.429C216.188 661.008 222.698 675.83 232.97 688.092C248.519 707.339 268.429 722.351 288.308 736.826L284.579 736.921C287.771 741.345 293.144 745.295 291.595 751.553C255.44 739.069 221.245 713.85 205.126 678.422C204.463 674.155 203.831 669.92 202.914 665.748C199.058 657.152 190.367 652.791 182.372 648.872Z"></path>
<path fill="#87A9BB" d="M286.033 641.666C288.941 644.826 291.754 647.955 294.661 651.21C299.781 648.84 305.028 646.47 309.231 642.614C311.285 657.057 308.504 671.469 308.314 685.912C303.542 692.454 300.097 699.817 296.716 707.118C286.539 686.986 280.218 664.136 286.033 641.666Z"></path>
<path fill="#AECAD8" d="M415.419 646.881C432.043 639.138 434.476 664.39 431.348 675.072C429.578 686.639 412.986 684.427 409.952 675.104C406.791 665.559 410.173 655.003 415.419 646.881Z"></path>
<path fill="#AECAD8" d="M584.248 697.132C575.525 685.407 577.99 665.686 593.792 661.672C602.642 669.542 606.529 682.183 600.998 693.181C599.07 700.356 589.557 700.514 584.248 697.132Z"></path>
<path fill="#ACC8D8" d="M516.015 649.82C531.027 643.784 536.4 663.125 533.966 674.25C535.547 685.374 517.469 688.819 514.182 678.674C511.022 669.857 508.778 656.994 516.015 649.82Z"></path>
<path fill="#A9C6D3" d="M336.346 653.265C344.532 651.432 348.198 662.24 350.789 668.213C355.309 677.726 345.796 689.546 335.556 686.006C323.989 679.117 323.958 659.396 336.346 653.265Z"></path>
<path fill="#AFC9D8" d="M476.984 687.113C464.595 678.738 464.026 655.478 480.271 651.812C494.777 657.721 492.438 677.758 485.138 688.63C489.941 695.741 493.07 707.782 485.928 714.103C478.406 715.178 467.345 714.135 465.922 704.811C464.153 696.752 471.864 691.759 476.984 687.113Z"></path>
<path fill="#A3C9D8" d="M623.689 653.391C632.665 650.895 644.295 657.69 643.126 667.929C642.778 674.945 641.862 683.763 635.825 688.251C618.127 689.736 608.93 662.588 623.689 653.391Z"></path>
<path fill="#AD6F57" d="M188.471 656.268C193.243 659.428 198.079 662.62 202.914 665.749C203.831 669.92 204.463 674.155 205.126 678.422C203.799 679.433 201.144 681.424 199.817 682.436C202.851 694.003 209.013 704.653 217.673 712.965C222.098 718.18 229.114 722.32 229.588 729.842C217.863 720.36 206.422 709.805 199.627 696.12C193.496 683.637 191.347 669.731 188.471 656.268Z"></path>
<path fill="#81A5B8" d="M685.475 662.209C688.888 664.264 692.333 666.35 695.778 668.499C696.947 671.88 698.053 675.325 699.254 678.77C697.232 683.985 695.241 689.199 693.249 694.446C689.236 694.161 685.19 693.845 681.208 693.592C681.335 696.342 681.461 699.123 681.651 701.904C679.597 700.924 677.542 699.976 675.551 699.028C675.109 695.71 674.666 692.423 674.287 689.136C677.542 687.05 681.05 685.249 684.242 682.91C685.222 676.052 685.191 669.099 685.475 662.209Z"></path>
<path fill="#82A3B9" d="M663.638 690.336C659.371 681.708 652.166 665.242 666.514 662.334C670.433 671.721 673.846 683.477 663.638 690.336Z"></path>
<path fill="#AFCADA" d="M377.4 672.1C394.277 666.412 399.808 699.785 382.457 700.038C366.687 701.934 361.535 675.482 377.4 672.1Z"></path>
<path fill="#8C5849" d="M199.818 682.435C201.145 681.424 203.8 679.433 205.128 678.422C221.246 713.85 255.441 739.07 291.596 751.553C309.294 757.906 324.464 769.979 343.015 774.182L341.657 769.789C352.433 775.351 363.811 779.681 375.094 784.137C374.778 785.623 374.177 788.625 373.861 790.11C370.385 793.839 366.782 797.411 363.21 801.045C359.734 800.445 356.289 799.844 352.908 799.275C346.587 796.02 339.602 794.44 332.681 793.239C331.891 791.596 330.342 788.309 329.552 786.697C325.065 786.634 320.608 786.602 316.184 786.476C315.425 786.002 313.877 785.085 313.118 784.611C316.405 781.83 318.333 778.132 318.333 773.834C318.175 772.791 317.859 770.737 317.732 769.694C301.614 762.109 284.769 750.858 266.376 752.407C253.197 746.528 240.492 739.354 229.589 729.841C229.115 722.32 222.099 718.18 217.674 712.965C209.015 704.653 202.852 694.003 199.818 682.435Z"></path>
<path fill="#6D87A1" d="M699.255 678.769C701.309 679.78 705.386 681.771 707.44 682.751C696.189 719.222 666.671 746.275 634.53 764.89C618.096 774.15 599.196 776.931 581.056 780.85C557.258 786.033 533.049 789.004 508.746 789.889C508.746 787.487 508.777 782.683 508.777 780.281C515.003 778.827 521.293 777.753 527.74 777.563C544.079 777.279 559.66 771.78 575.746 769.441C575.904 766.565 576.284 760.813 576.473 757.937C579.729 759.391 582.984 760.971 586.207 762.709C586.112 764.669 585.923 768.587 585.828 770.579C593.887 767.513 600.872 762.456 607.477 757.052L609.721 755.409C616.041 754.366 621.793 756.989 627.198 759.928C632.159 758.285 637.121 756.578 642.083 754.871C646.824 743.273 650.142 730.694 658.738 721.15C659.876 724.437 661.045 727.755 662.215 731.105C663.352 726.491 664.332 721.814 666.039 717.389C669.958 715.84 674.098 714.892 678.207 713.818C672.929 708.098 668.946 701.208 669.357 693.18C670.59 692.169 673.055 690.146 674.287 689.135C674.667 692.422 675.109 695.709 675.552 699.027C677.543 699.975 679.597 700.923 681.651 701.903C681.462 699.122 681.335 696.341 681.209 693.591C685.191 693.844 689.236 694.16 693.25 694.445C695.241 689.198 697.232 683.984 699.255 678.769Z"></path>
<path fill="#769BB1" d="M308.314 685.912C310.305 685.311 314.319 684.047 316.341 683.415C313.592 689.515 311.569 695.93 309.673 702.346C314.761 701.556 319.913 700.734 325.033 699.881C321.24 705.222 318.143 711.037 315.962 717.231C322.062 718.021 328.193 718.78 334.356 719.57C335.588 725.543 336.821 731.611 338.559 737.521C342.573 740.745 346.713 744.158 351.58 746.212C356.162 745.801 357.142 740.587 359.607 737.584C361.156 740.903 362.578 744.316 364.063 747.729C372.312 745.707 379.296 749.594 385.522 754.651C382.267 761.73 376.231 769.346 380.845 777.342C357.585 772.317 334.703 762.046 319.439 743.178C310.463 732.085 302.657 720.076 296.715 707.118C300.097 699.818 303.542 692.454 308.314 685.912Z"></path>
<path fill="#8CB0BE" d="M316.342 683.416L319.06 682.531C325.823 694.129 335.557 703.8 341.499 715.936C343.806 720.677 346.555 725.259 350.506 728.894C346.492 731.738 342.51 734.614 338.559 737.522C336.821 731.612 335.589 725.544 334.356 719.571C328.193 718.78 322.062 718.022 315.963 717.232C318.143 711.037 321.241 705.222 325.033 699.881C319.913 700.735 314.762 701.556 309.673 702.347C311.57 695.931 313.592 689.515 316.342 683.416Z"></path>
<path fill="#AECADA" d="M535.136 687.935C546.513 684.743 556.595 699.502 550.242 709.078C547.177 716.536 533.113 717.864 530.68 709.173C527.551 702.093 528.625 692.77 535.136 687.935Z"></path>
<path fill="#88ABBD" d="M641.578 689.83C648.214 684.457 654.598 691.6 659.781 695.456C658.138 701.239 656.905 707.118 655.704 713.028C666.513 712.143 667.524 701.682 669.357 693.18C668.947 701.208 672.929 708.097 678.207 713.818C674.098 714.892 669.958 715.84 666.039 717.389C664.332 721.813 663.353 726.491 662.215 731.105C661.046 727.755 659.876 724.436 658.738 721.15C650.142 730.694 646.824 743.273 642.083 754.871C637.121 756.578 632.16 758.284 627.198 759.928C621.794 756.989 616.041 754.365 609.721 755.408C614.809 750.921 619.581 746.148 624.543 741.534C630.895 741.06 640.819 742.735 642.178 734.012C645.054 726.68 635.478 725.574 631.338 722.477C630.011 720.012 628.746 717.579 627.514 715.177C631.496 712.111 635.636 709.203 639.808 706.359C640.061 700.892 638.228 694.602 641.578 689.83Z"></path>
<path fill="#95BECB" d="M341.498 715.936C345.859 711.005 350.062 699.375 358.406 704.748C364.316 711.258 366.18 720.739 371.3 728.04C375.693 723.9 378.316 715.461 385.459 715.904C392.886 720.771 399.712 726.523 407.866 730.315C403.663 730.631 399.491 731.011 395.382 731.421C394.308 740.46 399.27 747.413 406.539 752.217C407.455 752.912 409.257 754.271 410.141 754.966C413.681 754.556 417.189 753.987 420.76 753.513C426.196 759.897 431.221 766.628 436.467 773.234C431.664 772.696 426.892 772.412 422.151 772.064C421.298 768.019 420.507 763.974 419.717 759.96C416.652 763.089 413.649 766.249 410.394 769.157C401.735 764.985 393.707 759.581 385.522 754.65C379.296 749.594 372.311 745.707 364.063 747.729C362.577 744.316 361.155 740.903 359.607 737.584C356.604 734.613 353.57 731.706 350.505 728.893C346.554 725.259 343.805 720.676 341.498 715.936Z"></path>
<path fill="#89B2C8" d="M609.215 707.939C612.123 705.127 616.389 708.224 619.834 708.382C620.024 710.847 620.403 715.777 620.592 718.242C617.464 720.865 614.398 723.489 611.364 726.175C611.996 731.769 612.913 737.394 612.597 743.083C609.5 748.14 604.759 751.9 600.682 756.104C602.357 756.357 605.77 756.831 607.477 757.052C600.872 762.456 593.887 767.513 585.828 770.578C585.923 768.587 586.113 764.668 586.207 762.709C588.198 762.33 592.181 761.571 594.172 761.192C596.416 754.05 593.887 747.192 590.221 741.06C592.686 733.349 597.616 726.997 604.948 723.362C605.675 718.084 603.684 711.068 609.215 707.939Z"></path>
<path fill="#A4C5D2" d="M619.834 708.382C621.509 711.289 623.152 714.229 624.827 717.231C625.491 716.725 626.85 715.682 627.513 715.177C628.746 717.579 630.01 720.012 631.338 722.477C627.166 728.071 624.795 734.518 624.543 741.534C619.581 746.149 614.809 750.921 609.72 755.409L607.477 757.052C605.77 756.831 602.357 756.357 600.682 756.104C604.759 751.9 609.499 748.14 612.596 743.083C612.912 737.394 611.996 731.769 611.364 726.175C614.398 723.489 617.463 720.865 620.592 718.242C620.402 715.777 620.023 710.847 619.834 708.382Z"></path>
<path fill="#A7CBD8" d="M567.561 723.014C571.227 721.212 577.453 718.242 580.613 722.35C582.32 727.596 583.11 733.127 584.153 738.595C585.67 739.227 588.704 740.459 590.221 741.06C593.887 747.191 596.415 754.049 594.171 761.191C592.18 761.571 588.198 762.329 586.207 762.708C582.984 760.97 579.729 759.39 576.473 757.936C572.839 758.568 569.268 759.422 565.728 760.338C565.096 758.189 564.464 756.04 563.863 753.986C563.389 753.859 562.441 753.575 561.967 753.448C555.773 751.331 548.757 748.74 545.533 756.451C543.447 758.758 541.33 761.065 539.18 763.277C534.503 761.887 529.889 760.528 525.275 759.169C523.631 762.866 521.988 766.564 520.408 770.293C510.2 765.142 499.644 767.828 490.163 773.075C491.143 771.463 493.102 768.239 494.082 766.627C494.84 765.395 496.357 762.898 497.116 761.665C492.975 754.902 485.359 753.164 478.027 752.816C479.986 751.047 481.977 749.308 484 747.57C483.779 741.913 483.652 736.287 483.526 730.694C491.933 728.671 501.667 725.131 509.694 730.283C515.794 735.213 510.832 743.493 510.611 750.004C517.753 749.561 524.959 749.119 532.133 748.676C533.334 745.2 534.566 741.755 535.83 738.31C544.964 742.04 554.761 743.841 564.622 742.355C565.444 735.94 564.432 728.861 567.561 723.014Z"></path>
<path fill="#7089A1" d="M624.543 741.534C624.796 734.518 627.167 728.071 631.338 722.477C635.479 725.574 645.054 726.68 642.179 734.012C640.82 742.735 630.896 741.06 624.543 741.534Z"></path>
<path fill="#738BA3" d="M338.559 737.521C342.51 734.613 346.492 731.737 350.505 728.893C353.571 731.705 356.605 734.613 359.607 737.584C357.142 740.586 356.162 745.801 351.58 746.212C346.713 744.157 342.573 740.744 338.559 737.521Z"></path>
<path fill="#7CA2BD" d="M395.383 731.421C399.491 731.01 403.663 730.631 407.866 730.315C410.331 732.622 412.733 735.087 415.072 737.647C412.228 742.514 409.383 747.349 406.539 752.216C399.27 747.413 394.308 740.46 395.383 731.421Z"></path>
<path fill="#A7C9D5" d="M420.476 743.811C424.616 739.196 427.113 732.022 433.212 729.873C443.705 736.225 453.786 743.526 461.466 753.26C463.868 757.147 468.45 757.843 472.654 757.179C474.518 760.213 476.383 763.279 478.279 766.344C472.022 771.053 464.342 772.254 456.694 771.464C451.511 770.958 447.023 774.15 442.472 776.046C440.987 775.351 437.953 773.929 436.467 773.234C431.221 766.629 426.196 759.897 420.76 753.513C417.189 753.987 413.681 754.556 410.141 754.967C409.256 754.271 407.455 752.912 406.538 752.217C409.383 747.35 412.227 742.515 415.071 737.648C416.841 739.67 418.643 741.725 420.476 743.811ZM433.149 746.149C432.201 749.246 431.253 752.375 430.336 755.504C437.51 757.147 444.779 758.506 452.111 759.518C453.344 756.136 456.567 752.249 453.281 748.962C447.023 745.802 439.88 746.339 433.149 746.149Z"></path>
<path fill="#6F4139" d="M796.659 736.667C803.422 734.992 809.743 738.848 816.348 739.859C819.508 740.365 825.797 741.408 828.958 741.913C824.344 742.798 819.761 743.936 815.273 745.074C820.994 746.022 826.714 746.938 832.497 748.013C829.59 751.173 826.461 754.334 821.847 754.144C794.067 757.494 766.888 764.763 740.277 773.328C719.418 779.775 702.163 793.681 682.948 803.573C663.669 813.591 647.014 827.687 628.683 839.159C628.051 836.346 627.514 833.565 627.009 830.784C647.362 811.158 671.696 796.873 696.253 783.22C692.84 782.935 686.013 782.335 682.6 782.05C688.984 775.603 697.359 772.095 705.576 768.65C717.143 764.415 723.085 752.88 731.681 744.852C731.839 747.507 732.123 752.785 732.25 755.44C739.74 752.343 747.23 749.151 755.005 746.78C768.942 743.62 782.69 739.669 796.659 736.667Z"></path>
<path fill="#925746" d="M816.348 739.859C820.361 735.593 825.639 733.191 831.581 733.096C841.062 734.961 851.27 738.785 856.579 747.476C852.408 755.535 842.453 754.903 834.773 755.251C836.448 749.783 839.671 745.137 843.306 740.839C838.471 741.218 833.698 741.566 828.958 741.914C825.797 741.408 819.508 740.365 816.348 739.859Z"></path>
<path fill="#CE9D7D" d="M284.579 736.92L288.308 736.825C291.153 738.405 294.029 740.017 296.936 741.629C300.729 743.778 304.49 745.99 308.314 748.203C319.786 754.808 330.531 762.582 341.656 769.788L343.015 774.181C324.463 769.978 309.294 757.905 291.595 751.553C293.144 745.295 287.771 741.345 284.579 736.92Z"></path>
<path fill="#82A9CA" d="M433.149 746.149C439.881 746.339 447.023 745.801 453.281 748.962C456.568 752.249 453.344 756.136 452.111 759.517C444.779 758.506 437.51 757.147 430.336 755.504C431.253 752.375 432.201 749.246 433.149 746.149Z"></path>
<path fill="#A96E4F" d="M266.375 752.407C284.768 750.858 301.613 762.109 317.731 769.694C317.858 770.737 318.174 772.791 318.332 773.834C308.218 769.757 297.884 766.281 287.549 762.868C280.439 759.486 273.391 755.915 266.375 752.407Z"></path>
<path fill="#799FBA" d="M545.533 756.451C548.757 748.739 555.773 751.331 561.967 753.448C557.543 756.261 553.276 759.327 549.01 762.361C548.156 760.875 546.386 757.905 545.533 756.451Z"></path>
<path fill="#7CA8C2" d="M472.654 757.179C473.982 756.105 476.668 753.892 478.027 752.818C485.359 753.166 492.976 754.904 497.116 761.667C496.357 762.899 494.84 765.396 494.082 766.629C488.772 766.597 483.526 766.408 478.28 766.344C476.384 763.279 474.519 760.213 472.654 757.179Z"></path>
<path fill="#93B7C7" d="M561.967 753.45C562.441 753.576 563.389 753.861 563.863 753.987C564.464 756.041 565.096 758.19 565.728 760.339C569.268 759.423 572.839 758.569 576.473 757.937C576.284 760.813 575.904 766.565 575.746 769.441C559.66 771.78 544.079 777.279 527.74 777.564C521.293 777.753 515.004 778.828 508.778 780.281C495.188 781.261 481.535 779.997 468.04 778.417C463.015 778.512 459.128 775.604 456.694 771.464C464.342 772.254 472.022 771.053 478.28 766.344C483.526 766.407 488.772 766.597 494.082 766.629C493.102 768.24 491.143 771.464 490.163 773.076C499.644 767.83 510.2 765.143 520.408 770.295C521.451 770.579 523.537 771.116 524.58 771.401C529.573 768.999 534.408 766.218 539.181 763.278C541.33 761.066 543.447 758.759 545.533 756.452C546.386 757.906 548.156 760.877 549.01 762.362C553.276 759.328 557.543 756.262 561.967 753.45Z"></path>
<path fill="#6F89A4" d="M380.845 777.343C376.231 769.347 382.267 761.73 385.522 754.651C393.708 759.581 401.735 764.985 410.395 769.157C413.65 766.249 416.652 763.089 419.718 759.96C420.508 763.974 421.298 768.019 422.152 772.065C426.892 772.412 431.664 772.697 436.468 773.234C437.953 773.929 440.988 775.351 442.473 776.047C447.024 774.15 451.512 770.959 456.695 771.464C459.128 775.604 463.016 778.512 468.041 778.417C481.535 779.997 495.188 781.261 508.778 780.282C508.778 782.684 508.746 787.487 508.746 789.889C465.923 788.973 423.068 784.706 380.845 777.343Z"></path>
<path fill="#7797B4" d="M525.275 759.169C529.889 760.528 534.503 761.887 539.18 763.278C534.408 766.217 529.573 768.998 524.579 771.4C523.537 771.116 521.451 770.579 520.408 770.294C521.988 766.565 523.631 762.867 525.275 759.169Z"></path>
<path fill="#6A453E" d="M287.55 762.867C297.885 766.28 308.219 769.757 318.332 773.834C318.332 778.132 316.405 781.83 313.118 784.611C304.711 777.247 296.652 769.378 287.55 762.867Z"></path>
<path fill="#F29721" d="M578.339 787.708C587.441 785.148 596.985 781.039 606.466 784.705C611.207 791.405 615.6 798.674 617.18 806.891C617.212 810.083 617.243 816.467 617.275 819.659C612.914 816.783 609.88 812.675 607.383 808.25C601.694 797.22 593.035 783.536 578.339 787.708Z"></path>
<path fill="#9D6954" d="M309.546 795.735C315.551 791.342 322.188 787.739 329.804 787.202C327.655 790.047 325.538 792.859 323.421 795.704C333.186 797.221 342.983 798.706 352.907 799.275C356.289 799.844 359.733 800.444 363.21 801.045C366.781 797.41 370.384 793.839 373.86 790.11C372.438 802.625 371.711 815.203 370.763 827.782C342.825 821.84 314.319 819.975 285.812 820.797C298.738 815.835 312.865 816.183 326.044 812.074C316.468 806.512 305.28 806.133 294.503 806.449C292.48 806.417 288.467 806.386 286.476 806.354C293.523 802.72 301.582 803.162 309.293 802.878L309.42 800.981C303.51 800.729 297.6 800.476 291.785 800.223C295.451 798.611 299.18 797.126 302.973 795.672C304.616 795.704 307.903 795.735 309.546 795.735Z"></path>
<path fill="#F8B734" d="M380.845 785.18C395.92 786.918 410.932 789.162 426.07 790.679L425.754 794.567C419.56 795.325 412.607 793.745 406.918 796.589C403.062 805.47 407.044 815.046 413.365 821.588C419.338 820.924 420.982 813.213 424.395 809.199C423.289 819.123 422.688 829.141 421.234 839.065C417.284 837.485 413.397 835.968 409.541 834.419C409.509 831.575 409.541 828.73 409.573 825.918C407.613 825.697 403.726 825.254 401.766 825.033C400.502 816.436 400.502 807.777 399.839 799.181C392.507 812.202 395.066 828.857 385.838 841.404C383.752 841.151 379.549 840.614 377.463 840.329C376.831 825.159 377.242 809.926 378.79 794.819C379.328 792.417 380.339 787.582 380.845 785.18Z"></path>
<path fill="#C28257" d="M449.014 792.891C491.142 797.379 534.187 797.727 575.714 788.309C574.735 792.607 573.787 796.968 572.997 801.329C572.933 798.232 572.775 792.07 572.681 788.972C562.662 803.7 566.36 822.789 567.023 839.57L563.737 839.223C562.156 836.062 560.639 832.933 559.217 829.805C548.029 829.394 536.842 829.141 525.654 829.236C524.769 830.721 522.967 833.692 522.083 835.177L520.092 836.315C515.066 825.096 503.341 820.608 491.838 819.849C476.984 818.111 461.94 817.511 447.339 814.034C447.876 806.955 448.445 799.907 449.014 792.891Z"></path>
<path fill="#F8DB48" d="M575.714 788.308L578.337 787.708C593.033 783.536 601.693 797.221 607.381 808.25C603.526 809.388 599.733 810.558 595.941 811.727C594.424 807.081 591.453 803.194 588.451 799.496C588.577 803.763 588.862 808.029 589.241 812.328C587.155 813.054 582.952 814.508 580.834 815.235C578.306 821.271 575.714 827.276 573.028 833.249C572.111 822.599 572.333 811.948 572.996 801.329C573.786 796.968 574.735 792.607 575.714 788.308Z"></path>
<path fill="#F7DC42" d="M406.918 796.589C412.607 793.745 419.56 795.325 425.754 794.566C425.343 799.433 424.932 804.3 424.395 809.199C420.982 813.213 419.338 820.924 413.365 821.588C407.044 815.046 403.062 805.47 406.918 796.589Z"></path>
<path fill="#FBA134" d="M429.388 791.879C432.549 792.005 438.87 792.258 442.03 792.385C441.714 795.545 441.114 801.803 440.829 804.931C440.26 806.891 439.123 810.747 438.554 812.674C436.12 817.194 433.56 821.618 431.032 826.074C430.463 824.368 429.325 820.923 428.756 819.216C429.262 810.083 429.452 800.981 429.388 791.879Z"></path>
<path fill="#835649" d="M294.503 806.45C305.28 806.134 316.468 806.513 326.044 812.075C312.865 816.184 298.738 815.836 285.812 820.798C281.324 822.125 276.71 823.358 272.285 824.685C272.412 812.518 285.18 809.357 294.503 806.45Z"></path>
<path fill="#F9B827" d="M607.382 808.251C609.878 812.675 612.912 816.784 617.274 819.66C617.242 816.468 617.211 810.084 617.179 806.892C618.538 817.321 617.653 828.161 621.288 838.243C624.1 847.124 630.137 856.636 624.448 865.707C618.285 848.325 611.364 831.164 602.167 815.109C602.072 816.531 601.883 819.344 601.788 820.734L597.363 823.357C596.889 819.438 596.415 815.551 595.941 811.727C599.734 810.558 603.526 809.388 607.382 808.251Z"></path>
<path fill="#E88D26" d="M580.835 815.235C582.952 814.508 587.156 813.055 589.241 812.328C590.822 831.859 596.795 851.39 592.623 871.048C578.559 864.127 575.399 847.187 573.029 833.249C575.715 827.276 578.306 821.272 580.835 815.235ZM587.598 855.751C587.061 846.492 585.386 837.326 583.174 828.351C580.266 837.706 580.993 848.103 587.598 855.751Z"></path>
<path fill="#A86C52" d="M440.924 830.152C442.125 825.98 443.357 821.84 444.653 817.7C459.949 822.409 476.162 822.757 491.838 819.849C503.342 820.608 515.067 825.095 520.092 836.315C493.576 837.8 467.124 833.565 440.924 830.152Z"></path>
<path fill="#ED9835" d="M597.364 823.358L601.788 820.735C606.623 836.505 612.375 852.434 623.058 865.328C621.351 865.96 617.969 867.256 616.294 867.92C600.334 859.355 599.892 839.097 597.364 823.358Z"></path>
<path fill="#EE9932" d="M401.767 825.032C403.726 825.253 407.613 825.696 409.573 825.917C409.541 828.73 409.51 831.574 409.541 834.419C413.397 835.967 417.284 837.484 421.235 839.064C420.919 840.961 420.318 844.753 420.002 846.618C415.578 846.965 411.216 847.345 406.855 847.724C405.148 840.139 403.315 832.617 401.767 825.032Z"></path>
<path fill="#975C4C" d="M525.655 829.236C536.842 829.141 548.03 829.394 559.218 829.805C560.64 832.933 562.157 836.062 563.737 839.223C545.059 836.947 527.646 845.828 509.157 845.701C491.206 847.029 473.476 841.466 455.62 844.437C454.261 844.342 451.606 844.184 450.279 844.121C450.279 843.173 450.248 841.214 450.248 840.265C444.843 840.708 439.091 840.898 438.112 833.945C466.871 835.209 495.251 841.909 524.169 840.297C523.632 839.033 522.621 836.441 522.083 835.177C522.968 833.692 524.77 830.721 525.655 829.236ZM535.294 833.249C534.535 838.18 545.818 837.548 545.344 832.997C541.899 830.721 538.549 830.816 535.294 833.249Z"></path>
<path fill="#B64923" d="M587.598 855.751C580.993 848.103 580.266 837.705 583.174 828.35C585.386 837.326 587.061 846.491 587.598 855.751Z"></path>
<path fill="#57353E" d="M535.293 833.25C538.549 830.816 541.899 830.721 545.343 832.997C545.818 837.548 534.535 838.18 535.293 833.25Z"></path>
<path fill="#9F5F4B" d="M483.242 849.115C506.692 850.505 530.047 847.313 553.245 843.963C551.601 848.103 550.021 852.275 548.472 856.447C551.317 857.869 554.224 859.291 557.132 860.777C531.596 866.213 507.545 854.962 483.242 849.115Z"></path>
<path fill="#B37455" d="M553.244 843.964C557.606 843.49 562.03 843.11 566.455 842.826C571.164 857.332 576.853 874.809 593.824 878.538C591.485 878.064 586.776 877.084 584.437 876.61L586.934 882.362C585.733 880.972 583.3 878.254 582.099 876.863C580.519 877.843 577.358 879.802 575.778 880.782C563.642 877.78 551.886 872.47 541.488 865.518C549.673 865.549 557.669 867.224 565.696 868.804C564.432 864.664 560.861 862.357 557.132 860.777C554.224 859.292 551.317 857.869 548.472 856.447C550.021 852.275 551.601 848.104 553.244 843.964Z"></path>
</svg>
